<?xml version="1.0" encoding="utf-8"?>
<!-- Generator: Adobe Illustrator 23.0.5, SVG Export Plug-In . SVG Version: 6.00 Build 0)  -->
<svg version="1.1" id="Capa_1" xmlns="http://www.w3.org/2000/svg" xmlns:xlink="http://www.w3.org/1999/xlink" x="0px" y="0px"
	 viewBox="0 0 678 736.5" style="enable-background:new 0 0 678 736.5;" xml:space="preserve">
<style type="text/css">
	.st0{fill:#57317C;}
	.st1{fill:#F5D349;}
</style>
<path d="M299.4,63.9c25.9,0,51.9,0,77.8,0c1.7,0.5,3.3,1.1,5,1.6c15.4,5,25.2,15.2,29.5,31c5.2,19.2-7.5,32.5-24.6,30.9
	c-5.2-0.5-12.2-1.7-15.2,0.9c-3.6,3.2-0.7,10.3-1.3,15.7c-0.5,4.6,0.4,7.4,6,7.5c4.1,0,8.2,1.3,12.3,2.2
	c109,22.1,191,120.8,192.7,232c0.4,27-3.2,53.5-11.8,79.1c-1.9,5.6-0.4,7.9,4.8,9.6c3.6,1.1,6.8,1.3,10.2-0.2
	c2.8-1.2,5.7-2.2,8.7-2.8c15-2.8,25.5,4.8,35.1,15.1c10.4,11.1,13.2,23.4,7.6,37.5c-3.7,9.4-0.3,17.2,9.1,21.4
	c13.6,6,20.7,16.5,20.8,31.4c0,2.9,0,5.7,0,8.6c-0.3,14.7-7.2,25-20.6,30.9c-9.9,4.4-13,11.9-9.2,21.8c1,2.6,1.8,5.4,2.3,8.2
	c2.4,14.5-5,24.6-14.9,33.9c-11.2,10.6-23.7,13.5-38.1,7.8c-9-3.6-17.2-0.2-21,8.8c-6.1,14.3-17,21.3-32.5,21.2c-2.2,0-4.4,0-6.6,0
	c-15.5-0.1-26.3-7.1-32.3-21.4c-3.6-8.6-12-12.1-20.5-8.8c-22,8.5-49.2-7.1-53.3-30.6c-1.1-6.5-0.6-12.7,1.9-18.7
	c0.5-1.2,1.1-2.4,1.5-3.6c1.7-4.9-0.2-9.3-2.9-13c-2.7-3.6-6.1-0.1-8.9,0.7c-24.4,7.4-49.2,11.1-74.6,11c-108.1-0.1-216.2,0-324.4,0
	c0-7,0-14.1,0-21.1c75.1,0,150.2,0,225.2,0c-0.9-1.7-1.9-2.3-2.9-2.7C132.5,559.8,79.3,452,101.6,340.8
	c18.7-93,95.8-169.4,189-187.5c5.5-1.1,13.2,0.1,15.9-4.1c2.6-4.1,0.5-11.1,0.9-16.8c0.4-4.6-1.5-5.6-5.6-5.3
	c-5.3,0.3-10.5,0.2-15.8,0c-12.1-0.4-21.2-9.7-20.8-21.8c0.7-17.9,9.6-30.6,25.8-38.1C293.8,66,296.6,65,299.4,63.9z M370.6,380.4
	c0,30.5,0,61.1,0,91.6c0,13.9,0,13.6,14,14c5.8,0.2,7.2-1.3,7.2-7.2c-0.3-51.6-0.1-103.3-0.3-154.9c0-5.3,0.9-7.2,6.7-7
	c16.7,0.4,33.4,0.4,50.1,0c5.6-0.1,6.8,1.6,6.8,6.9c-0.2,47-0.1,94-0.2,141.1c0,4.4,0.7,6.4,5.6,6c3.9-0.3,7.7,1.1,11.5,2.6
	c9.4,3.8,17.4,0.4,21.4-9.1c2.6-6.2,6.4-11.6,12.2-15.2c2.6-1.6,4-3.7,4.9-6.6c7.6-25.2,10.1-50.8,6.2-76.9
	c-18.7-124-151.2-191.3-261.9-133.2c-89.3,46.9-121.8,160.8-70.8,247.9c2.2,3.8,4.6,5.7,9.3,5.4c7.7-0.4,15.4-0.5,23.1,0
	c5.4,0.3,7-1.2,6.9-6.8c-0.3-31-0.1-62-0.2-92.9c0-4.4,0.8-6.1,5.6-6c17.4,0.3,34.7,0.3,52.1,0c4.7-0.1,5.8,1.3,5.8,5.9
	c-0.2,28.8-0.1,57.6-0.1,86.4c0,13.4,0,12.9,13.2,13.6c7.1,0.4,8-2.1,8-8.4c-0.2-65.5-0.1-131-0.3-196.4c0-5.2,1.3-6.6,6.5-6.5
	c16.7,0.3,33.4,0.4,50.1,0c5.4-0.1,7,1.1,7,6.7C370.5,314.5,370.6,347.5,370.6,380.4z M560.5,391.3c0.1-14.8-1.4-29.4-4.3-43.9
	c-24.4-124-150-202.7-272.8-171C168.2,206.2,97,322.5,122.8,439.2c26.6,120.6,149.6,197,268.7,167c4.1-1,6.5-1.6,3.5-6.5
	c-1.8-2.9-2.9-6.6-2.9-10c-0.1-5.5-2.3-5.1-6.4-4.1c-23.9,5.9-48.2,7.5-72.6,4.1c-112.6-15.7-188.4-117-172-229.9
	c15.9-109.3,124.2-186.6,233-166.3c114.5,21.4,186,131.1,159.4,244.7c-1.1,4.6-0.2,5.6,4.3,5.8c3.4,0.2,7.1,1.2,10,2.9
	c4.9,3,5.5,0.6,6.5-3.5C558.3,426.3,560.4,408.9,560.5,391.3z M597.9,669.8c11.3,0.2,22-15.3,18.3-24.9c-7.3-19,0.8-39.7,19.1-47.2
	c8-3.3,9.8-8.8,9.7-16.6c0-7.9-1.4-13.8-9.8-17.2c-18.2-7.4-26.8-28.3-19.2-46.5c3.3-8,0.5-13.2-5-18.6c-5.4-5.3-10.4-8.7-18.5-5.3
	c-18.7,7.7-39.3-0.8-47-19.4c-3.3-8.1-9.1-9.4-16.8-9.4c-7.7,0-13.4,1.4-16.8,9.4c-7.7,18.6-28.3,27.1-47,19.4
	c-8.2-3.4-13.1,0-18.5,5.3c-5.5,5.4-8.3,10.5-5,18.6c7.6,18.2-1,39.1-19.2,46.5c-8,3.3-9.8,8.8-9.8,16.6c0,7.9,1.4,13.8,9.7,17.3
	c18.2,7.4,26.8,28.3,19.2,46.5c-3.2,7.6-0.9,12.7,4.5,18.1c5.7,5.8,11,9.2,19.6,5.6c17.8-7.5,38.8,1.2,46.1,19
	c3.4,8.3,9,10.1,17.1,10.1c8.1,0,13.7-1.8,17.1-10.1c7.2-17.8,28.1-26.1,46.1-19.2C594.3,668.7,596.6,669.4,597.9,669.8z M202.7,507
	c2.6,3,4,4.9,5.7,6.6c51,50.8,111,68,180.9,49.2c3.8-1,6.6-2.7,8.7-6.2c3.4-5.4,8.5-8.7,14.3-11.2c9.8-4.2,13-11.8,9.1-21.8
	c-1.3-3.3-2.7-6.7-2.4-10.2c0.5-5.9-2.4-6.5-7.4-6.5c-67.2,0.2-134.4,0.1-201.7,0.1C208.1,507,206.2,507,202.7,507z M328.4,390.6
	c0,27,0,54,0,81c0,14.3,0,14,14.3,14.4c5.4,0.1,6.9-1.2,6.9-6.8c-0.2-56-0.1-112-0.1-168c0-15.4,0-15.1-15.3-15.4
	c-5.4-0.1-5.9,2-5.9,6.5C328.5,331.8,328.4,361.2,328.4,390.6z M412.8,411.8c0,21.1,0,42.2,0,63.3c0,10.9,0,10.9,11.1,10.9
	c8.5,0,10-1.5,10-9.9c0-40.9,0-81.7,0-122.6c0-15.4,0-15.2-15.3-15.3c-4.6,0-5.9,1.1-5.9,5.8C413,366.5,412.8,389.1,412.8,411.8z
	 M338.6,106.1c16,0,32.1-0.2,48.1,0.1c5,0.1,5.5-1.5,4.2-5.7c-2.7-8.7-10.2-15.2-19.3-15.4c-21.8-0.2-43.5-0.2-65.3,0
	c-9.2,0.1-16.6,6.5-19.3,15.3c-1.3,4.1-1,5.9,4.1,5.8C307,105.9,322.8,106.1,338.6,106.1z M265.1,443.4c0-8.8,0-17.6,0-26.3
	c0-15.8,0-15.6-15.6-15.7c-5,0-5.6,1.8-5.6,6.1c0.2,21.1,0.1,42.1,0.1,63.2c0,15.4,0,15.2,15.3,15.3c4.5,0,6.1-1,5.9-5.7
	C264.9,468,265.1,455.7,265.1,443.4z M338.6,148.3c10.9,0,10.9,0,10.9-10.3c0-10.8,0-10.8-10.5-10.8c-10.6,0-10.6,0-10.6,10.7
	C328.4,148.3,328.4,148.3,338.6,148.3z"/>
<path class="st0" d="M597.9,668.7c11.3,0.2,22-15.3,18.3-24.9c-7.3-19,0.8-39.7,19.1-47.2c8-3.3,9.8-8.8,9.7-16.6
	c0-7.9-1.4-13.8-9.8-17.2c-18.2-7.4-26.8-28.3-19.2-46.5c3.3-8,0.5-13.2-5-18.6c-5.4-5.3-10.4-8.7-18.5-5.3
	c-18.7,7.7-39.3-0.8-47-19.4c-3.3-8.1-9.1-9.4-16.8-9.4c-7.7,0-13.4,1.4-16.8,9.4c-7.7,18.6-28.3,27.1-47,19.4
	c-8.2-3.4-13.1,0-18.5,5.3c-5.5,5.4-8.3,10.5-5,18.6c7.6,18.2-1,39.1-19.2,46.5c-8,3.3-9.8,8.8-9.8,16.6c0,7.9,1.4,13.8,9.7,17.3
	c18.2,7.4,26.8,28.3,19.2,46.5c-3.2,7.6-0.9,12.7,4.5,18.1c5.7,5.8,11,9.2,19.6,5.6c17.8-7.5,38.8,1.2,46.1,19
	c3.4,8.3,9,10.1,17.1,10.1c8.1,0,13.7-1.8,17.1-10.1c7.2-17.8,28.1-26.1,46.1-19.2C594.3,667.5,596.6,668.2,597.9,668.7z"/>
<path class="st0" d="M554.6,202.2c31.2,10.4,60.8,19.4,89.7,30.2c8.5,3.2-1.3,10.1-1.1,15.5c0.1,3-1.4,5.7-6,4
	c-9.8-3.7-19.8-6.7-31-10.4c7,13.6,13.2,26,18.2,39c18.4,48.1,24.4,97.7,18.1,148.8c-0.6,4.6-2,5.5-6.2,4.5
	c-4.8-1.3-11.3,0.4-14.3-3.1c-2.9-3.3,0.2-9.2,0.6-14c6-72.2-12.7-137.4-55-196C563.6,215.2,559.7,209.4,554.6,202.2z"/>
<path class="st0" d="M123.2,579.7c-31.2-10.4-60.5-20.1-89.8-29.8c-0.6-0.2-1.7-0.3-1.8-0.7c-2.2-6.6,2.7-11.7,3.9-17.7
	c0.7-3.5,3.2-2,5.2-1.4c9.9,3.2,19.8,6.6,31,10.3c-8.9-16.8-16.4-32.9-22.1-49.6c-15.3-45-20.1-91-14.3-138.3
	c0.6-4.6,2.1-5.5,6.2-4.6c4.7,1,10.8,0.1,13.9,2.8c3.6,3.1,0.2,9.1-0.2,13.7C49.2,437.3,68.1,503,111,562
	C114.8,567.3,118.5,572.8,123.2,579.7z"/>
<path class="st1" d="M602.7,580.9c0,40.6-33.2,73.8-73.9,73.8c-40.6,0-73.8-33.3-73.8-73.9c0-40.6,33.3-73.8,73.9-73.8
	C569.6,507.1,602.7,540.3,602.7,580.9z M528.6,633.6c29.1,0.1,52.9-23.6,53-52.6c0-28.8-23.4-52.6-52.1-52.8
	c-29.1-0.2-53.1,23.3-53.3,52.3C476,609.6,499.6,633.5,528.6,633.6z"/>
<path class="st1" d="M528.8,612.5c-17.5,0-31.7-14.5-31.5-32.1c0.2-17.2,14.5-31.2,31.7-31.2c17.5,0,31.7,14.5,31.5,32
	C560.3,598.5,546,612.5,528.8,612.5z M518.4,580.4c-0.3,5.7,4.3,10.7,10,11c5.7,0.3,10.7-4.3,11-10c0.3-5.7-4.3-10.7-10-11
	C523.7,570.1,518.7,574.7,518.4,580.4z"/>
<path class="st1" d="M328.5,390.6c0,27,0,54,0,81c0,14.3,0,14,14.3,14.4c5.4,0.1,6.9-1.2,6.9-6.8c-0.2-56-0.1-112-0.1-168
	c0-15.4,0-15.1-15.3-15.4c-5.4-0.1-5.9,2-5.9,6.5C328.6,331.8,328.5,361.2,328.5,390.6z"/>
<path class="st1" d="M412.9,411.8c0,21.1,0,42.2,0,63.3c0,10.9,0,10.9,11.1,10.9c8.5,0,10-1.5,10-9.9c0-40.9,0-81.7,0-122.6
	c0-15.4,0-15.2-15.3-15.3c-4.6,0-5.9,1.1-5.9,5.8C413,366.5,412.9,389.1,412.9,411.8z"/>
<path class="st1" d="M265.2,443.4c0-8.8,0-17.6,0-26.3c0-15.8,0-15.6-15.6-15.7c-5,0-5.6,1.8-5.6,6.1c0.2,21.1,0.1,42.1,0.1,63.2
	c0,15.4,0,15.2,15.3,15.3c4.5,0,6.1-1,5.9-5.7C264.9,468,265.2,455.7,265.2,443.4z"/>
</svg>
