<?xml version="1.0" encoding="utf-8"?>
<!-- Generator: Adobe Illustrator 23.0.5, SVG Export Plug-In . SVG Version: 6.00 Build 0)  -->
<svg version="1.1" id="Capa_1" xmlns="http://www.w3.org/2000/svg" xmlns:xlink="http://www.w3.org/1999/xlink" x="0px" y="0px"
	 viewBox="0 0 678 736.5" style="enable-background:new 0 0 678 736.5;" xml:space="preserve">
<style type="text/css">
	.st0{fill:#9676B3;}
	.st1{fill:#8962A7;}
	.st2{fill:#754A97;}
	.st3{fill:#57317C;}
	.st4{fill:#E8422E;stroke:#000000;stroke-width:11;stroke-miterlimit:10;}
	.st5{fill:#F39C4D;stroke:#000000;stroke-width:11;stroke-miterlimit:10;}
	.st6{fill:#F5D349;stroke:#000000;stroke-width:11;stroke-miterlimit:10;}
</style>
<g id="hdXuLu.tif">
	<g>
		<path d="M28.1,727c-9.3-2.6-16.6-7.4-19.3-17.4c-0.6-2.3-0.7-4.6-0.7-6.9c0-58,0-115.9,0-173.9c0-13.9,8.9-23.6,22.7-23.8
			c21.1-0.4,42.3-0.4,63.5,0c13.4,0.2,22.4,9.9,22.7,23.5c0.1,3,0,6,0,9c0,5.9,0,5.9,5.9,4.4c18-4.6,35.9-9.7,54.2-13.2
			c6.4-1.2,12.5-0.4,18.7,1c32.8,7.6,65,17.9,97.5,26.6c2.9,0.8,4.9,0.5,7.4-1c16.7-10.3,33.5-20.4,50.3-30.6
			c17.4-10.6,33.9-9.1,48.9,4.4c2,1.8,3.3,1.9,5.5,0.6c5.7-3.4,11.1-7.3,17.5-9.5c15.1-5.2,28.5-2.2,39.9,9c2,1.9,3.5,3.2,6.8,2.1
			c21.3-7,42.1,4.1,48.9,25.6c0.4,1.4,1,2.8,1.5,4.2c0,4.3,0,8.7,0,13c-2.9,10.2-7.7,18.9-16.8,25.1c-44,30.1-87.7,60.6-133,88.6
			c-18.3,11.3-36.7,22.3-56.4,30.9c-8.3,3.6-16.7,6.4-26.1,5.1c-33.4-4.7-66.4-11.7-99.5-18.3c-22.5-4.5-44.9-9.4-67.3-14.2
			c-2.8-0.6-4.4-0.3-4.1,3.3c0.3,3.6,0.3,7.4-0.1,11c-1.2,12-8.7,18.4-19.7,21.6C74.1,727,51.1,727,28.1,727z M386.7,540.5
			c-7.7-6.6-16.2-7.3-24.9-2.2c-11,6.6-21.9,13.3-32.8,20c-2.8,1.7-5.5,3.4-8.2,5.1c0.6,1.3,1.5,1.4,2.3,1.6
			c9.4,2.8,18.7,5.8,27.2,10.9c12.9,7.8,20.6,19.2,20.4,34.3c-0.4,25.3-22.9,43.7-48,40.3c-10.7-1.5-21.5-2.3-32.2-3.7
			c-19.8-2.5-39.6-5-59.4-7.7c-6.7-0.9-9.6-4.4-9-9.7c0.6-5.3,4.9-8.2,11.5-7.4c24.4,3.1,48.8,6.4,73.3,9.3c9,1.1,18.1,3.3,27.3,1.6
			c9.3-1.8,15.3-7.6,18-16.7c2.5-8.4,0.5-15.8-5.9-21.8c-5.5-5.1-12.2-8.1-19.2-10.2c-43.4-13-86.9-25.9-130.9-36.8
			c-5.2-1.3-10.4-3.1-16.1-1.9c-19.7,3.9-39,9.5-58.6,14.3c-3.5,0.9-4.6,2.3-4.6,6c0.2,33.8,0.2,67.7,0,101.5c0,4.6,1.7,5.8,5.6,6.6
			c49.6,10.3,99.1,21.1,149,29.7c13.5,2.3,26.6,4.2,39.8-2.7c18-9.4,35.7-19.4,52.9-30c43.9-27.1,86.3-56.6,128.8-85.9
			c6.9-4.8,10.4-11.3,9.5-19.5c-1.7-16.2-18-24.1-32.4-15.7c-23,13.4-45.9,27-68.8,40.5c-1.4,0.8-2.8,1.8-4.4,2.4
			c-4.4,1.9-9.1,0.4-11.3-3.4c-2.1-3.8-1.2-8.1,2.5-11.1c1.4-1.1,3-2.1,4.6-3c18.1-10.7,36.1-21.4,54.2-31.9
			c3.7-2.1,3.2-3.3,0.1-5.2c-7.8-4.6-15.5-4.1-23.1,0.5c-16.2,9.6-32.4,19.1-48.6,28.7c-2.6,1.5-5.2,3.1-8.4,2.4
			c-3.5-0.9-6-3.1-6.7-6.7c-0.9-4,0.8-7.2,4.3-9.3C371.8,549.3,379.1,545,386.7,540.5z"/>
	</g>
</g>
<g>
	<path d="M436.3,466.7 M436.3,472.6 M436.3,472.9 M436.3,473.1 M436.3,473.3 M436.3,473.6 M436.3,473.8 M436.3,474 M436.3,474.2
		 M436.3,474.5 M436.3,474.7 M436.3,474.9 M436.3,475.2 M436.3,475.4 M436.3,475.6 M436.3,475.8 M436.3,476.1 M436.3,476.3
		 M436.3,476.5 M436.3,476.8 M436.3,477 M436.3,477.2 M436.3,477.4 M436.3,477.7 M436.3,477.9 M436.3,478.1 M436.3,478.4
		 M436.3,478.6 M436.3,478.8 M436.3,479 M436.3,479.3 M436.3,479.5 M436.3,479.7 M436.3,480 M436.3,480.2 M436.3,480.4 M436.3,480.6
		 M436.3,480.9 M436.3,481.1 M436.3,481.3 M436.3,481.6 M174.9,523 M174.9,523c0-39.6,0-79.3,0-118.9c2.5-7.3,6.3-13.8,12.1-19
		c4.4-3.9,9.3-7.3,14.5-10.1c20-10.7,41.7-15.6,64-18.5c7.7-1,15.4-1.7,23.1-2.5c11.3,0,22.6,0,33.9,0c7.7,0.8,15.5,1.5,23.2,2.5
		c22.3,2.9,44.1,7.8,64.1,18.5c6.3,3.4,12.1,7.5,17.1,12.7c6.3,6.6,9.7,14.2,9.6,23.5L436.3,523c0,7-14.4,15.6-14.4,15.6
		c-2.6,1.8-5.1,3.6-7.7,5.2c-2.6,1.6-5.3,3.2-8.1,4.5c-25.4,12.4-52.7,16.7-80.5,18.6c-19.4,1.3-38.7,0.6-57.9-1.6
		c-19-2.2-37.5-6.2-55.2-13.6c-8.3-3.4-16-7.9-23.5-13.5C189,538.2,174.9,529.7,174.9,523"/>
	<path class="st0" d="M188.8,435.3c0,2,0,3.3,0,4.6c0,23.1,0.1,46.2-0.1,69.3c-0.1,7,2.4,12.5,7.5,17.1c6.3,5.8,13.8,9.8,21.6,12.9
		c25,10.1,51.1,13.8,77.8,14.6c29.5,0.9,58.7-1.6,87-10.5c11.6-3.7,22.7-8.3,32-16.4c4.6-4,8-8.6,8-15.1c-0.1-24.3,0-48.6-0.1-73
		c0-0.9,0.6-2.2-0.8-2.9c-4.5,3.4-9.2,6.5-14.2,9.1c-21.7,11.1-45.2,15.8-69.1,18.3c-27.5,2.8-55,2.3-82.3-2.3
		C232.4,457,209.3,450.7,188.8,435.3z"/>
	<path class="st1" d="M305.7,450.4c25.4,0.1,50.4-2.6,74.7-10c12.6-3.8,24.9-8.6,34.9-17.7c9.7-8.8,9.7-18,0.1-26.8
		c-1.9-1.7-3.9-3.3-6-4.7c-6.6-4.5-13.8-7.8-21.2-10.4c-23.4-8.3-47.6-11.6-72.2-12.4c-28.9-0.9-57.4,1.6-85.1,10
		c-12.3,3.7-24.1,8.4-33.9,17c-10.4,9-10.5,18.3-0.3,27.6c7.4,6.7,16.2,10.9,25.4,14.3C248.9,447.2,277,450.3,305.7,450.4z"/>
</g>
<g>
	<path d="M434.7,375.7 M434.7,381.6 M434.7,381.8 M434.7,382.1 M434.7,382.3 M434.7,382.5 M434.7,382.7 M434.7,383 M434.7,383.2
		 M434.7,383.4 M434.7,383.7 M434.7,383.9 M434.7,384.1 M434.7,384.3 M434.7,384.6 M434.7,384.8 M434.7,385 M434.7,385.3
		 M434.7,385.5 M434.7,385.7 M434.7,385.9 M434.7,386.2 M434.7,386.4 M434.7,386.6 M434.7,386.9 M434.7,387.1 M434.7,387.3
		 M434.7,387.5 M434.7,387.8 M434.7,388 M434.7,388.2 M434.7,388.5 M434.7,388.7 M434.7,388.9 M434.7,389.1 M434.7,389.4
		 M434.7,389.6 M434.7,389.8 M434.7,390.1 M434.7,390.3 M434.7,390.5 M173.3,432 M173.3,432c0-39.6,0-79.3,0-118.9
		c2.5-7.3,6.3-13.8,12.1-19c4.4-3.9,9.3-7.3,14.5-10.1c20-10.7,41.7-15.6,64-18.5c7.7-1,15.4-1.7,23.1-2.5c11.3,0,22.6,0,33.9,0
		c7.7,0.8,15.5,1.5,23.2,2.5c22.3,2.9,44.1,7.8,64.1,18.5c6.3,3.4,12.1,7.5,17.1,12.7c6.3,6.6,9.7,14.2,9.6,23.5L434.7,432
		c0,7-14.4,15.6-14.4,15.6c-2.6,1.8-5.1,3.6-7.7,5.2c-2.6,1.6-5.3,3.2-8.1,4.5c-25.4,12.4-52.7,16.7-80.5,18.6
		c-19.4,1.3-38.7,0.6-57.9-1.6c-19-2.2-37.5-6.2-55.2-13.6c-8.3-3.4-16-7.9-23.5-13.5C187.3,447.2,173.3,438.6,173.3,432"/>
	<path class="st1" d="M187.2,344.3c0,2,0,3.3,0,4.6c0,23.1,0.1,46.2-0.1,69.3c-0.1,7,2.4,12.5,7.5,17.1c6.3,5.8,13.8,9.8,21.6,12.9
		c25,10.1,51.1,13.8,77.8,14.6c29.5,0.9,58.7-1.6,87-10.5c11.6-3.7,22.7-8.3,32-16.4c4.6-4,8-8.6,8-15.1c-0.1-24.3,0-48.6-0.1-73
		c0-0.9,0.6-2.2-0.8-2.9c-4.5,3.4-9.2,6.5-14.2,9.1c-21.7,11.1-45.2,15.8-69.1,18.3c-27.5,2.8-55,2.3-82.3-2.3
		C230.7,365.9,207.7,359.7,187.2,344.3z"/>
	<path class="st2" d="M304,359.3c25.4,0.1,50.4-2.6,74.7-10c12.6-3.8,24.9-8.6,34.9-17.7c9.7-8.8,9.7-18,0.1-26.8
		c-1.9-1.7-3.9-3.3-6-4.7c-6.6-4.5-13.8-7.8-21.2-10.4c-23.4-8.3-47.6-11.6-72.2-12.4c-28.9-0.9-57.4,1.6-85.1,10
		c-12.3,3.7-24.1,8.4-33.9,17c-10.4,9-10.5,18.3-0.3,27.6c7.4,6.7,16.2,10.9,25.4,14.3C247.3,356.1,275.4,359.3,304,359.3z"/>
</g>
<g>
	<path d="M434.7,295.4 M434.7,301.3 M434.7,301.6 M434.7,301.8 M434.7,302 M434.7,302.3 M434.7,302.5 M434.7,302.7 M434.7,302.9
		 M434.7,303.2 M434.7,303.4 M434.7,303.6 M434.7,303.9 M434.7,304.1 M434.7,304.3 M434.7,304.5 M434.7,304.8 M434.7,305
		 M434.7,305.2 M434.7,305.5 M434.7,305.7 M434.7,305.9 M434.7,306.1 M434.7,306.4 M434.7,306.6 M434.7,306.8 M434.7,307.1
		 M434.7,307.3 M434.7,307.5 M434.7,307.7 M434.7,308 M434.7,308.2 M434.7,308.4 M434.7,308.7 M434.7,308.9 M434.7,309.1
		 M434.7,309.3 M434.7,309.6 M434.7,309.8 M434.7,310 M434.7,310.3 M173.3,351.7 M173.3,351.7c0-39.6,0-79.3,0-118.9
		c2.5-7.3,6.3-13.8,12.1-19c4.4-3.9,9.3-7.3,14.5-10.1c20-10.7,41.7-15.6,64-18.5c7.7-1,15.4-1.7,23.1-2.5c11.3,0,22.6,0,33.9,0
		c7.7,0.8,15.5,1.5,23.2,2.5c22.3,2.9,44.1,7.8,64.1,18.5c6.3,3.4,12.1,7.5,17.1,12.7c6.3,6.6,9.7,14.2,9.6,23.5l-0.1,111.7
		c0,7-14.4,15.6-14.4,15.6c-2.6,1.8-5.1,3.6-7.7,5.2c-2.6,1.6-5.3,3.2-8.1,4.5c-25.4,12.4-52.7,16.7-80.5,18.6
		c-19.4,1.3-38.7,0.6-57.9-1.6c-19-2.2-37.5-6.2-55.2-13.6c-8.3-3.4-16-7.9-23.5-13.5C187.3,366.9,173.3,358.3,173.3,351.7"/>
	<path class="st2" d="M187.2,264c0,2,0,3.3,0,4.6c0,23.1,0.1,46.2-0.1,69.3c-0.1,7,2.4,12.5,7.5,17.1c6.3,5.8,13.8,9.8,21.6,12.9
		c25,10.1,51.1,13.8,77.8,14.6c29.5,0.9,58.7-1.6,87-10.5c11.6-3.7,22.7-8.3,32-16.4c4.6-4,8-8.6,8-15.1c-0.1-24.3,0-48.6-0.1-73
		c0-0.9,0.6-2.2-0.8-2.9c-4.5,3.4-9.2,6.5-14.2,9.1c-21.7,11.1-45.2,15.8-69.1,18.3c-27.5,2.8-55,2.3-82.3-2.3
		C230.7,285.7,207.7,279.4,187.2,264z"/>
	<path class="st3" d="M304,279.1c25.4,0.1,50.4-2.6,74.7-10c12.6-3.8,24.9-8.6,34.9-17.7c9.7-8.8,9.7-18,0.1-26.8
		c-1.9-1.7-3.9-3.3-6-4.7c-6.6-4.5-13.8-7.8-21.2-10.4c-23.4-8.3-47.6-11.6-72.2-12.4c-28.9-0.9-57.4,1.6-85.1,10
		c-12.3,3.7-24.1,8.4-33.9,17c-10.4,9-10.5,18.3-0.3,27.6c7.4,6.7,16.2,10.9,25.4,14.3C247.3,275.9,275.4,279,304,279.1z"/>
</g>
<path class="st3" d="M100.1,615.5c0-28.3,0-56.6,0-85c0-7.8-1.3-9.1-8.9-9.1c-18.8,0-37.6,0-56.5,0c-7,0-8.8,1.8-8.8,8.9
	c0,56.6,0,113.3,0,169.9c0,6.8,1.7,8.5,8.6,8.5c18.8,0,37.6,0,56.5,0c8.2,0,9-0.9,9-9.3C100.2,671.5,100.1,643.5,100.1,615.5z"/>
<path class="st4" d="M666.1,174.5c-0.5,2.4-0.9,4.8-1.6,7.2c-3.4,12.4-13.6,20.4-27.4,20.5c-22.6,0.3-45.3,0.3-67.9,0
	c-16.5-0.2-27.8-10.6-28.3-27.4c-0.8-24.4-1.1-48.9,0.3-73.4c0.7-12.9,12.1-23.7,25.1-23.9c24-0.3,47.9-0.4,71.9-0.1
	c14.9,0.2,24.9,9.8,27,24.8c0.1,0.8,0.6,1.5,0.9,2.3C666.1,127.8,666.1,151.1,666.1,174.5z"/>
<path class="st4" d="M541.3,248.7c0,8.5,0.2,17,0,25.5c-0.3,12.3-8.4,20.7-20.8,21c-17.1,0.4-34.3,0.4-51.5,0
	c-12.6-0.3-20.8-9.3-20.8-22.1c-0.1-16.2,0-32.3,0-48.5c0-13.7,8-22.4,21.7-22.7c16.6-0.4,33.3-0.4,50,0
	c13.6,0.3,21.3,8.7,21.5,22.3C541.4,232.4,541.3,240.6,541.3,248.7C541.3,248.7,541.3,248.7,541.3,248.7z"/>
<path class="st5" d="M407,350.3c0-7.3-0.2-14.6,0-22c0.3-8.7,6.1-15.3,14.8-15.9c15.4-1.1,30.9-1,46.4-0.1
	c9.4,0.5,15.5,7.5,15.7,16.9c0.2,14.1,0.2,28.3,0,42.4c-0.2,9.5-6.2,16.4-15.6,17c-15.3,1-30.6,1-45.9,0
	c-9.6-0.6-15.2-7.4-15.5-16.9C406.8,364.6,407,357.4,407,350.3C407,350.3,407,350.3,407,350.3z"/>
<path class="st5" d="M418,129.2c0-6.8-0.1-13.6,0-20.5c0.2-10.6,6.7-17.6,17.3-17.9c14-0.3,28-0.3,41.9,0
	c10.8,0.2,17.6,7.5,17.7,18.2c0.1,13.5,0.1,27,0,40.4c-0.1,11.1-6.8,18.1-18,18.3c-13.6,0.2-27.3,0.2-40.9,0
	c-11.6-0.2-17.9-6.9-18-18.6C418,142.5,418,135.8,418,129.2z"/>
<path class="st6" d="M519.1,29.4c0-3.8-0.1-7.7,0-11.5c0.2-5.4,3-8.9,8.3-9.5c8.9-1,17.9-1,26.8,0c4.9,0.6,7.8,3.8,7.9,8.7
	c0.2,8.3,0.3,16.6,0,24.9c-0.2,5.7-3.9,9.2-9.6,9.4c-8,0.2-16,0.2-23.9,0c-5.8-0.2-9.4-4.1-9.5-10C519,37.4,519.1,33.4,519.1,29.4z"
	/>
<path class="st6" d="M603.1,277.8c-3.7,0-7.3,0.1-11,0c-6.9-0.3-10.6-3.7-10.8-10.4c-0.3-7.5-0.3-15,0-22.4
	c0.2-6.7,4.1-10.3,10.8-10.4c7.3-0.1,14.6-0.1,22,0c6.7,0.1,10.5,3.6,10.8,10.4c0.3,7.5,0.3,15,0,22.4c-0.3,6.8-3.9,10.1-10.8,10.4
	C610.4,277.9,606.8,277.8,603.1,277.8z"/>
<path class="st5" d="M571.1,330.4c0,3.3,0.1,6.7,0,10c-0.2,5-3.2,8-8.2,8.2c-6.5,0.2-13,0.2-19.5,0.1c-5.6-0.1-8.7-2.9-9-8.5
	c-0.3-6.5-0.3-13,0-19.5c0.3-5.4,3.1-8.3,8.6-8.5c6.5-0.3,13-0.3,19.5,0c5.9,0.3,8.6,3.4,8.7,9.4
	C571.1,324.4,571.1,327.4,571.1,330.4C571.1,330.4,571.1,330.4,571.1,330.4z"/>
<path class="st6" d="M342.7,148.3c5.7,0,11.3,0,17,0c8.2,0.1,14,4.7,14.6,12.6c1,12.8,0.9,25.6,0,38.4c-0.6,8-6.5,12.8-14.5,12.8
	c-11.5,0.1-23,0.1-34.5,0c-8.2-0.1-14.2-5.3-14.4-13.4c-0.4-12.3-0.4-24.6,0-37c0.2-8.2,6.1-13.4,14.3-13.5
	C331.1,148.3,336.9,148.3,342.7,148.3z"/>
</svg>
