<?xml version="1.0" encoding="utf-8"?>
<!-- Generator: Adobe Illustrator 23.0.5, SVG Export Plug-In . SVG Version: 6.00 Build 0)  -->
<svg version="1.1" id="Capa_1" xmlns="http://www.w3.org/2000/svg" xmlns:xlink="http://www.w3.org/1999/xlink" x="0px" y="0px"
	 viewBox="0 0 678 736.5" style="enable-background:new 0 0 678 736.5;" xml:space="preserve">
<style type="text/css">
	.st0{fill:#9676B3;}
	.st1{fill:#57317C;}
	.st2{fill:#754A97;}
	.st3{fill:#F39C4D;}
	.st4{fill:#F5D349;}
	.st5{fill:#E8422E;}
</style>
<g id="c9mmdC.tif">
	<g>
		<path d="M675.3,242.6c0,113.9,0,227.7,0,341.6c-7.3,24.4-24.1,36-53.3,35.5c-68.9-1-137.8-0.3-206.7-0.4c-5,0-6.9,0.4-4.8,6.1
			c4.1,10.7,7.6,21.7,10.9,32.7c1.1,3.8,2.9,4.9,6.7,4.8c9.9-0.2,19.9-0.2,29.8,0c7.3,0.1,11.1,4.1,11.3,11.4c0.1,5,0.4,10-0.1,14.9
			c-0.5,5.2,1.4,6.3,6.4,6.3c32.7-0.2,65.5-0.1,98.3-0.1c1.8,0,3.6-0.1,5.4,0.1c5.5,0.7,9.3,5.1,9.3,10.6c0,5.5-3.7,10.1-9.1,10.8
			c-2,0.3-4.1,0.1-6.1,0.1c-156.1,0-312.1,0-468.2,0c-2,0-4.1,0.2-6.1-0.1c-5.5-0.7-9.2-5.2-9.2-10.8c0-5.6,3.8-10,9.3-10.7
			c2-0.2,4.1-0.1,6.1-0.1c32.8,0,65.5-0.1,98.3,0.1c4.3,0,6.1-0.9,5.7-5.5c-0.4-4.9-0.1-9.9-0.1-14.9c0.1-8.2,3.9-12.1,11.9-12.1
			c9.7-0.1,19.4-0.2,29.1,0.1c3.7,0.1,5.6-1,6.7-4.7c3.3-10.8,6.7-21.5,10.7-32c2.4-6.2,0.6-6.9-5.2-6.8
			c-71.8,0.2-143.7,0.1-215.5,0.1C22,619.4,3,600.6,3,575.9c0-108.4,0-216.8,0-325.2c0-24.3,19-43.2,43.4-43.2
			c23-0.1,46.1-0.2,69.1,0.1c5.1,0.1,6.9-1,6.8-6.5c-0.4-22.1-0.2-44.3-0.1-66.4c0-10.4,3.4-13.9,13.6-13.9c12.4,0,24.8,0,37.3,0
			c10.8,0,14.1,3.3,14.2,14c0,22.4,0.1,44.7-0.1,67.1c0,4.3,1,5.6,5.5,5.8c5.5,0.2,5.5-2.5,5.5-6.5c-0.1-47.4-0.1-94.9-0.1-142.3
			c0-10.7,3.3-14,14.2-14c11.3,0,22.6,0,33.9,0c14.7,0,17,2.3,17,16.7c0,46.5,0,93.1-0.1,139.6c0,4-0.2,6.8,5.4,6.6
			c4.5-0.2,5.6-1.4,5.6-5.8c-0.2-33.7-0.1-67.3-0.1-101c0-9,3.7-12.7,12.7-12.7c12.9-0.1,25.7,0,38.6,0c10.3,0,13.7,3.4,13.7,13.9
			c0,33,0.1,66-0.1,98.9c0,5.5,1.6,6.6,6.8,6.6c39.8-0.2,79.5-0.1,119.3-0.1c1.9,0,4,0.6,5.8-0.6C429.7,154.7,449.1,95.4,481.4,68
			c36.2-30.5,89.6-30.9,125.9-1.4c32.6,26.6,54.3,86.4,11.7,140.7c3.8,0,7.1,0.1,10.4,0c12.1-0.6,22.6,3.2,31.7,11.1
			C668.6,224.9,672.1,233.7,675.3,242.6z M338.9,532.7c102.5,0,205.1,0,307.6,0.1c4.6,0,7.2-0.1,7.2-6.2
			c-0.2-91-0.1-182.1-0.2-273.1c0-15.4-9-24.3-24.4-24.4c-11.5-0.1-23,0.1-34.6-0.1c-3,0-5.7,0.7-8.4,1.9
			c-27.2,12.3-54.5,12.2-81.8,0.1c-3-1.3-5.9-2-9.1-2c-49.9,0.1-99.8,0.1-149.8-0.1c-4.9,0-6.6,0.9-6.5,6.2
			c0.3,24.8,0.2,49.7,0,74.5c0,4.4,0.6,6.2,5.7,6.3c5.8,0.1,5.3-3,5.3-6.7c-0.1-19.2-0.1-38.4,0-57.6c0-7.7,3.9-11.7,11.6-11.7
			c13.8-0.1,27.6-0.1,41.3,0c8.1,0.1,12,3.9,12,12.1c0.1,24.4,0.1,48.8,0,73.2c0,8.5-3.9,12.3-12.5,12.3c-114.5,0-229,0-343.6,0
			c-8.6,0-12.5-3.8-12.5-12.3c-0.1-24.4-0.1-48.8,0-73.2c0-8.2,3.9-12,12-12.1c13.3-0.1,26.7-0.1,40,0c9.4,0,13,3.6,13,13.1
			c0,19,0.1,37.9-0.1,56.9c0,3.9,0.3,6.2,5.3,6c4.3-0.2,5.8-1,5.7-5.6c-0.2-25.3-0.2-50.6,0-75.9c0-4.6-1.5-5.5-5.8-5.5
			c-21.9,0.2-43.8,0.1-65.7,0.1c-17.8,0-26.2,8.4-26.2,26.1c0,90.1,0.1,180.2-0.2,270.4c0,6.1,1.6,7.3,7.4,7.3
			C134.3,532.6,236.6,532.7,338.9,532.7z M339.2,554.3c-99.6,0-199.1,0-298.7,0c-15.8,0-15.8,0-15.8,15.6c0,20.1,7.7,27.8,27.8,27.8
			c191,0,382,0,573,0c1.8,0,3.6,0,5.4,0c13.3-0.5,22.2-9.5,22.6-22.9c0.1-4.3-0.4-8.6,0.1-12.9c0.7-6.1-1.3-7.8-7.6-7.8
			C543.8,554.4,441.5,554.3,339.2,554.3z M278.8,661.9c0.9,0.4,1.3,0.8,1.7,0.8c38.4,0,76.8,0,115.2,0.2c4.3,0,3.5-2.1,2.6-4.7
			c-3.9-11.5-7.9-23-11.5-34.6c-1-3.1-2.4-4.3-5.7-4.3c-28,0.1-56,0.1-84,0c-2.4,0-4.4,0.2-5.3,3
			C287.6,635.6,283.2,648.8,278.8,661.9z M339.2,695.3c33.9,0,67.7,0,101.6,0c4,0,7.2,0.5,7.1-5.6c-0.1-5.7-2.9-5.3-6.7-5.3
			c-68,0.1-135.9,0.1-203.9,0c-3.8,0-6.6-0.4-6.7,5.3c-0.1,6.1,3.1,5.6,7.1,5.6C271.4,695.3,305.3,695.3,339.2,695.3z M198.2,272.8
			c0-12.9-0.2-25.7,0.1-38.6c0.1-4.3-1.3-5.4-5.4-5.2c-3.5,0.2-5.8,0.1-5.7,4.9c0.2,25.7,0.2,51.5,0,77.2c0,4.8,2.2,4.8,5.7,4.9
			c4.1,0.2,5.5-0.9,5.4-5.2C198,298.1,198.2,285.4,198.2,272.8z M263.2,272.4c0,12.6,0.2,25.3-0.1,37.9c-0.1,4.6,1.4,5.6,5.7,5.6
			c4.1,0,5.4-1,5.3-5.3c-0.2-25.5-0.2-51,0-76.5c0-4.3-1.3-5.2-5.4-5.3c-4.4-0.1-5.8,1.1-5.7,5.6
			C263.4,247.2,263.2,259.8,263.2,272.4z"/>
		<path d="M46.4,434.6C46.5,419.4,57,406.4,72,403c14.9-3.3,30.6,4.5,36.6,18.9c1.7,4.2,4.1,6.3,8.1,8c33.5,13.8,67,27.7,100.3,41.9
			c4.3,1.8,6.5,1.9,9.7-2.3c12-16.2,35.2-17.4,49.1-2.6c3.5,3.8,5.4,3.5,9.1,0.6c34.7-26.3,69.6-52.4,104.5-78.4
			c2.8-2.1,4.5-4.6,5.6-8c4.3-13,16.4-21.6,29.6-21.9c14.6-0.2,26.7,7.5,31.6,20.9c1.4,3.7,3.3,6,6.6,7.9
			c34.1,19.8,68.2,39.7,102.2,59.7c4,2.4,6.3,3,9.9-1.3c9.4-11.5,25.4-14.5,38.7-8c12.9,6.3,20.4,20.7,18,34.8
			c-2.3,13.7-14.3,25.3-27.8,26.9c-15.1,1.8-29.2-6.2-34.6-20.3c-1.6-4.1-3.9-6.7-7.6-8.8c-33.9-19.7-67.8-39.4-101.6-59.3
			c-4.2-2.5-6.4-2.6-9.9,1.5c-12.3,14.5-34.3,15.2-47.3,1.4c-4-4.3-6.1-3.7-10.2-0.6c-34.5,26.2-69.2,52.1-103.9,78
			c-2.6,2-4.3,4.2-5.4,7.4c-4.4,13.2-16.1,22.1-29.2,22.4c-14.8,0.4-26.4-6.8-31.9-20.4c-1.4-3.5-3.6-5.3-6.8-6.6
			c-33.9-14-67.8-28.1-101.6-42.3c-4-1.7-6.2-1.9-9.2,2.3c-8.4,11.8-23.4,15.9-36.8,11.1C54.7,461.2,46.3,448.9,46.4,434.6z"/>
		<path class="st0" d="M550.9,250.8c15.6,0,31.2,0,46.7,0c8,0,12.6,4,12.6,10.8c0,6.8-4.6,10.8-12.6,10.8c-28.2,0-56.4,0.1-84.7-0.1
			c-4.7,0-7.9,1.4-11.1,4.7c-11.5,11.8-23.2,23.4-34.9,35c-3.9,3.9-8.5,5.1-13.5,2.5c-4.9-2.5-6.4-6.8-5.6-11.9
			c0.4-2.8,2.3-4.8,4.2-6.7c13.6-13.6,27.2-27.1,40.7-40.7c3.1-3.1,6.4-4.5,10.8-4.4C519.3,250.9,535.1,250.8,550.9,250.8z"/>
		<path class="st1" d="M116.2,370c-19,0-37.9,0-56.9,0c-8.5,0-13.1-4.1-12.9-11.2c0.2-6.7,4.7-10.5,12.9-10.5c38.4,0,76.7,0,115.1,0
			c8.5,0,13.1,4,12.9,11.2c-0.2,6.7-4.7,10.5-12.9,10.5C155,370,135.6,370,116.2,370z"/>
		<path class="st1" d="M474.2,521.8c-12,0-23.9,0-35.9,0c-8,0-12.5-4.1-12.4-11c0.1-6.8,4.6-10.7,12.7-10.7c24.1,0,48.3,0,72.4,0
			c8,0,12.5,4.1,12.5,10.9c-0.1,6.8-4.6,10.7-12.7,10.7C498.6,521.8,486.4,521.8,474.2,521.8z"/>
		<path class="st1" d="M496.3,489.3c-5.4,0-10.8,0.1-16.2,0c-6.4-0.2-10.7-4.5-10.8-10.5c-0.1-6.4,4.2-11,10.9-11.1
			c10.8-0.2,21.6-0.2,32.4,0c6.4,0.1,10.7,4.5,10.8,10.5c0.1,6.3-4.2,10.9-10.9,11.1C507.1,489.4,501.7,489.3,496.3,489.3z"/>
		<path class="st1" d="M213.8,369.9c-2.2,0-4.6,0.4-6.7-0.1c-5.8-1.2-9-4.9-8.9-10.9c0.2-6,3.5-9.7,9.4-10.4c4-0.5,8.1-0.3,12.1-0.1
			c6.7,0.2,11.1,4.7,10.9,11.1c-0.1,6-4.4,10.2-10.8,10.6C217.9,370.1,215.9,370,213.8,369.9C213.8,370,213.8,369.9,213.8,369.9z"/>
		<path d="M89.3,586.9c-10.4,0-20.7,0.1-31.1,0c-7.4-0.1-11.8-4.3-11.8-10.9c0.1-6.6,4.5-10.7,12-10.7c21-0.1,41.9-0.1,62.9,0
			c7.4,0,11.9,4.3,11.8,10.9c-0.1,6.5-4.6,10.6-12,10.7C110.5,586.9,99.9,586.9,89.3,586.9z"/>
		<path d="M160.8,565.3c2.2,0,4.6-0.4,6.7,0.1c5.8,1.2,9,4.9,8.9,10.9c-0.1,6-3.5,9.7-9.4,10.4c-4,0.5-8.1,0.3-12.1,0.1
			c-6.7-0.2-11.1-4.7-10.9-11.1c0.1-6.1,4.3-10.2,10.7-10.6C156.8,565.1,158.8,565.2,160.8,565.3
			C160.8,565.2,160.8,565.3,160.8,565.3z"/>
	</g>
</g>
<path class="st1" d="M220.3,192.1c0,37,0,74.1,0,111.1c0,14,0,13.7,14.1,14.1c6.1,0.2,7.8-1.3,7.8-7.7C241.9,234,242,158.4,242,82.7
	c0-15.1,0-14.8-15.1-15.1c-5.2-0.1-6.8,1.2-6.8,6.6C220.4,113.5,220.3,152.8,220.3,192.1z"/>
<path class="st0" d="M585.3,154.5c-9.9,0-19.9,0.2-29.8-0.1c-3.7-0.1-6.3,1.1-8.8,3.7c-13.9,14.2-27.9,28.3-42.2,42.1
	c-3.7,3.6-3.2,4.9,1,7.6c44,27.9,103.7,2.8,114.3-48.3c0.8-3.9,0.1-5.2-4-5.1C605.6,154.6,595.4,154.5,585.3,154.5z"/>
<path class="st1" d="M485,188.6c16-16,31.6-31.7,47.4-47.2c2.3-2.2,2.4-4.6,2.4-7.3c0-19.9-0.2-39.7,0.1-59.6
	c0.1-5.1-1.2-5.9-6.1-4.7c-34,8.2-58.3,37.7-58.9,72.7C469.6,159.3,474.4,174.8,485,188.6z"/>
<path class="st2" d="M317.9,214.5c0-29.6,0-59.2,0-88.7c0-14.7,0-14.4-14.8-14.8c-5.6-0.1-7.1,1.3-7.1,7
	c0.2,61.2,0.1,122.4,0.1,183.5c0,15.8,0,15.6,15.8,15.7c4.7,0,6.1-1.1,6-6C317.8,279,317.9,246.7,317.9,214.5z"/>
<path class="st2" d="M144.4,230.4c0,23.9,0,47.9,0,71.8c0,15,0,14.8,15.1,15.1c5.2,0.1,6.8-1.2,6.7-6.6
	c-0.2-50.6-0.1-101.1-0.1-151.7c0-15.4,0-15.2-15.4-15.4c-5-0.1-6.5,1.1-6.4,6.3C144.6,176.7,144.4,203.5,144.4,230.4z"/>
<path class="st2" d="M588.4,132.8c9,0,18.1-0.1,27.1,0.1c3.9,0.1,5.1-0.8,4.2-4.9c-5.8-28.5-30.1-52.8-58.5-58.4
	c-3.3-0.7-5-0.5-4.9,3.6c0.2,18.5,0.1,37,0,55.6c0,3.3,1,4.3,4.3,4.2C569.9,132.7,579.2,132.8,588.4,132.8z"/>
<path class="st0" d="M68.5,289.6c0,3.8,0,7.7,0,11.5c0,16.6,0,16.4,16.7,16.2c4.4,0,5.2-1.6,5.1-5.5c-0.2-10.8-0.1-21.6-0.1-32.5
	c0-17.1,0-16.9-17-16.5c-4,0.1-4.9,1.5-4.8,5.1C68.7,275.2,68.5,282.4,68.5,289.6z"/>
<path class="st0" d="M393.8,290.4c0-3.8,0-7.7,0-11.5c0-16.2,0-16.1-16.1-16c-4.3,0-5.8,1-5.7,5.6c0.3,10.8,0.1,21.6,0.1,32.5
	c0,17,0,16.9,17.1,16.4c3.4-0.1,4.8-0.9,4.7-4.5C393.7,305.3,393.8,297.8,393.8,290.4z"/>
<path class="st3" d="M425.6,402.5c5.6,0,10.9-5.3,10.9-10.9c0-5.6-5.5-10.8-11-10.7c-5.3,0.2-10.4,5.2-10.5,10.5
	C414.8,397,420,402.4,425.6,402.5z"/>
<path class="st4" d="M78.6,445.9c5.6,0,10.9-5.3,10.8-10.9c-0.1-5.4-5-10.4-10.4-10.7c-5.6-0.3-11,4.9-11.2,10.6
	C67.8,440.5,73,445.8,78.6,445.9z"/>
<path class="st4" d="M598.7,478.4c5.5,0.3,11-4.8,11.3-10.4c0.2-5.5-5-11-10.6-11.1c-5.3-0.1-10.5,4.7-10.9,10.1
	C588,472.4,593.1,478.1,598.7,478.4z"/>
<path class="st5" d="M263,489c-0.2-5.6-5.7-10.8-11.2-10.5c-5.4,0.3-10.3,5.4-10.3,10.7c0,5.6,5.3,10.9,10.9,10.8
	C257.9,500,263.2,494.6,263,489z"/>
</svg>
