<?xml version="1.0" encoding="utf-8"?>
<!-- Generator: Adobe Illustrator 23.0.5, SVG Export Plug-In . SVG Version: 6.00 Build 0)  -->
<svg version="1.1" id="Capa_1" xmlns="http://www.w3.org/2000/svg" xmlns:xlink="http://www.w3.org/1999/xlink" x="0px" y="0px"
	 viewBox="0 0 678 736.5" style="enable-background:new 0 0 678 736.5;" xml:space="preserve">
<style type="text/css">
	.st0{fill:#57317C;}
	.st1{fill:#F5D349;}
</style>
<g id="_x33_uYNuU.tif">
	<g>
		<path d="M626,547.2c-1.2,4.2-2.2,8.5-3.5,12.7c-9.2,28.6-34.7,47.4-65.5,47.5c-82.8,0.2-165.5,0.1-248.3,0
			c-6.3,0-11.3,1.6-16.4,5.5c-39.3,30.6-78.8,61-118.3,91.3c-14.5,11.1-32.9,5.7-37.2-10.9c-0.7-2.7-0.7-5.7-0.7-8.6
			c-0.1-23.6-0.2-47.2,0.1-70.7c0.1-5.5-1.7-6.5-6.8-6.6c-13.1,0-26.3,1.4-39.3-1c-32.8-5.9-56-33-56.6-66.4
			c-0.4-20.9-0.1-41.8-0.1-62.7c0-69,0-137.9,0-206.9c0-43.8,28.9-72.9,72.6-72.9c24,0,48.1-0.1,72.1,0.1c5.2,0.1,8.3-1.3,11.2-6
			c27.4-43.7,55.2-87.1,82.5-130.9c11.1-17.8,26.1-29.4,46.9-33.2c0.6-0.1,1.1-0.6,1.7-1c6.2,0,12.5,0,18.7,0c0.3,0.3,0.7,0.7,1,0.8
			c22.1,3.9,37.3,16.7,48.9,35.5c26.5,42.8,53.9,85.2,80.6,127.9c3,4.8,6.1,6.9,12,6.8c25.8-0.4,51.6-0.4,77.3-0.1
			c29.4,0.4,55,19.9,63.8,48c1.2,4,2.2,8,3.3,12C626,354.1,626,450.7,626,547.2z M489.5,220.3c0.3,3.3,2.1,5.1,3.4,7.1
			c17.9,28.4,36,56.6,53.8,85.1c13.6,21.8,14.8,44.6,2.5,67.2c-12.5,22.7-32.5,34.1-58.5,34.1c-107.5,0.1-214.9,0-322.4,0.1
			c-6,0-12-0.7-17.8-2.2c-42.4-11.6-61.8-59.9-38.7-97.7c17.9-29.2,36.5-57.9,54.7-86.9c1.2-2,3.3-3.7,3-6.9c-21.1,0-42.2,0-63.3,0
			c-31.4,0-50.1,18.8-50.1,50.3c0,50.3,0,100.6,0,150.8c0,38.7-0.1,77.4,0,116.1c0.1,27.6,19.6,47,47.1,47.2c10.2,0.1,20.5,0,30.7,0
			c15.5,0.1,24.8,9.4,24.8,25.1c0.1,19.8,0,39.6,0,59.4c0,5.7,0,11.4,0,18.1c2.9-2.1,4.9-3.4,6.8-4.9c38.2-29.5,76.4-59,114.4-88.8
			c7.9-6.2,16.1-9.1,26.3-9.1c82.3,0.3,164.6,0.2,246.9,0.1c4.2,0,8.5,0,12.6-0.8c22.7-4.4,37.4-22.7,37.4-46.8
			c0.1-60.3,0-120.6,0-180.9c0-29.8,0.2-59.6-0.1-89.4c-0.2-25.4-18.7-45.7-43.1-46.4C536.7,219.7,513.3,220.3,489.5,220.3z
			 M329,391.1c53.4,0,106.8-0.1,160.2,0c17.5,0,31.3-6.7,39.9-22c8.6-15.3,7.2-30.8-2.2-45.5c-53.2-84.2-106.5-168.3-159.7-252.5
			c-3-4.7-6.4-9.1-10.9-12.5c-21.1-16.4-49.2-10.8-64.3,13.1c-53.1,83.7-106,167.5-159,251.3c-1.8,2.8-3.5,5.7-4.8,8.8
			c-11.9,28.5,8.6,59,40,59.2C221.7,391.2,275.3,391.1,329,391.1z"/>
		<path class="st0" d="M341,448.2c43.8,0,87.6,0,131.4,0c2.2,0,4.5-0.1,6.7,0.2c5.8,0.8,9.3,4.2,9.8,10.1c0.5,5.8-2.2,9.8-7.7,11.8
			c-2.8,1-5.7,0.7-8.6,0.7c-87.6,0-175.2,0-262.9,0c-2.7,0-5.4,0.1-7.9-0.6c-5.9-1.6-8.9-5.6-8.5-11.8c0.3-5.7,4.4-9.8,10.3-10.2
			c5.1-0.3,10.2-0.1,15.3-0.1C259.6,448.2,300.3,448.2,341,448.2z"/>
		<path class="st0" d="M238.2,527.8c-36,0-72,0-108,0c-2.7,0-5.4,0.1-8-0.5c-5.5-1.1-8.5-4.7-8.8-10.2c-0.3-5.8,2.5-9.9,8.1-11.4
			c2.5-0.7,5.3-0.7,7.9-0.7c72.7,0,145.3,0,218,0c2.2,0,4.5,0,6.6,0.4c6.1,1.1,10.1,5.9,9.6,11.7c-0.6,6-3.9,9.8-10.1,10.5
			c-2.4,0.3-4.9,0.2-7.3,0.2C310.2,527.8,274.2,527.8,238.2,527.8z"/>
		<path class="st0" d="M142.2,448.3c5.6,0,11.1-0.2,16.7,0c6.3,0.3,10.6,4.4,11.1,10.3c0.5,6.2-3.5,11.8-9.9,12.1
			c-12.2,0.5-24.5,0.5-36.7,0c-6.4-0.3-10.4-5.8-10.1-11.9c0.4-5.9,4.6-10.1,10.9-10.4C130.2,448.1,136.2,448.3,142.2,448.3z"/>
		<path class="st0" d="M415.1,527.7c-5.8,0-11.6,0.3-17.3-0.1c-6.8-0.4-10.9-4.8-10.9-11c-0.1-6.2,3.9-11.1,10.6-11.3
			c11.8-0.4,23.5-0.4,35.3,0c6.7,0.2,10.7,5.1,10.6,11.4c-0.1,6.2-4.2,10.6-11,11C426.6,527.9,420.8,527.7,415.1,527.7z"/>
		<path class="st0" d="M529.5,448.2c1.6,0,3.1-0.1,4.7,0c7.1,0.3,11.6,4.5,11.8,10.9c0.2,6.3-4.3,11.2-11.1,11.7
			c-3.7,0.3-7.5,0.3-11.3,0c-7.2-0.5-11.8-5.4-11.4-12c0.3-6.4,4.8-10.3,12.1-10.6C525.9,448.2,527.7,448.2,529.5,448.2z"/>
		<path class="st1" d="M286.9,164.6c-0.6-26.9,18.2-46.8,42.5-46.9c24.5-0.1,44.2,20.1,42.7,45.5c-1.6,27.5-4,55-6.8,82.4
			c-1.8,18-17.7,31.6-35.6,31.7c-17.7,0.1-34.1-13.6-35.9-31.4C291.1,218.2,289.1,190.5,286.9,164.6z M309.7,162.4
			c2.2,26.6,4.4,53.2,6.7,79.7c0.6,7,6.3,12,12.9,12.2c6.8,0.2,12.9-4.9,13.6-12.2c2.4-26.6,4.7-53.1,6.7-79.7
			c0.9-12.4-8.2-22-19.9-22C318,140.4,309.3,150.1,309.7,162.4z"/>
		<path class="st1" d="M329.7,368.3c-18.6,0-33.9-15.1-34.2-33.8c-0.2-18.9,15-34.3,34.1-34.4c18.7-0.1,34.1,15.1,34.2,33.7
			C363.9,352.7,348.6,368.3,329.7,368.3z M340.9,334c-0.1-6.3-5.3-11.3-11.6-11.1c-6.1,0.2-10.9,5.1-10.9,11.1
			c-0.1,6.3,5.1,11.5,11.3,11.5C335.9,345.5,341,340.3,340.9,334z"/>
	</g>
</g>
<path class="st0" d="M328.9,391.1c53.4,0,106.8-0.1,160.2,0c17.5,0,31.3-6.7,39.9-22c8.6-15.3,7.2-30.8-2.2-45.5
	C473.5,239.5,420.2,155.3,367,71.2c-3-4.7-6.4-9.1-10.9-12.5c-21.1-16.4-49.2-10.8-64.3,13.1c-53.1,83.7-106,167.5-159,251.3
	c-1.8,2.8-3.5,5.7-4.8,8.8c-11.9,28.5,8.6,59,40,59.2C221.6,391.2,275.2,391.1,328.9,391.1z"/>
<path class="st1" d="M286.8,164.6c-0.6-26.9,18.2-46.8,42.5-46.9c24.5-0.1,44.2,20.1,42.7,45.5c-1.6,27.5-4,55-6.8,82.4
	c-1.8,18-17.7,31.6-35.6,31.7c-17.7,0.1-34.1-13.6-35.9-31.4C291,218.2,289,190.5,286.8,164.6z M309.6,162.4
	c2.2,26.6,4.4,53.2,6.7,79.7c0.6,7,6.3,12,12.9,12.2c6.8,0.2,12.9-4.9,13.6-12.2c2.4-26.6,4.7-53.1,6.7-79.7
	c0.9-12.4-8.2-22-19.9-22C317.9,140.4,309.2,150.1,309.6,162.4z"/>
<path class="st1" d="M329.6,368.3c-18.6,0-33.9-15.1-34.2-33.8c-0.2-18.9,15-34.3,34.1-34.4c18.7-0.1,34.1,15.1,34.2,33.7
	C363.8,352.7,348.5,368.3,329.6,368.3z M340.8,334c-0.1-6.3-5.3-11.3-11.6-11.1c-6.1,0.2-10.9,5.1-10.9,11.1
	c-0.1,6.3,5.1,11.5,11.3,11.5C335.8,345.5,340.9,340.3,340.8,334z"/>
</svg>
