<?xml version="1.0" encoding="utf-8"?>
<!-- Generator: Adobe Illustrator 23.0.5, SVG Export Plug-In . SVG Version: 6.00 Build 0)  -->
<svg version="1.1" id="LOGOTYPES" xmlns="http://www.w3.org/2000/svg" xmlns:xlink="http://www.w3.org/1999/xlink" x="0px" y="0px"
	 viewBox="0 0 560.7 590.2" style="enable-background:new 0 0 560.7 590.2;" xml:space="preserve">
<style type="text/css">
	.st0{fill:#8D46BC;}
	.st1{fill:#6C2395;}
	.st2{fill:#3D0464;}
	.st3{fill:#E5D510;}
	.st4{fill:#E2A713;}
</style>
<g>
	<polyline class="st0" points="121.5,409.6 0,351.2 202.7,0 358,0 77.6,485.6 	"/>
	<polygon class="st0" points="202.7,0 155.2,351.2 358,0 	"/>
	<g>
		<path class="st1" d="M461,178.4L358,0H202.7L357,267.2C395.1,245,430.8,216,461,178.4z"/>
		<path class="st1" d="M508.5,260.6c-18.1,43-44.7,86.2-83.7,124l58.3,101l77.6-134.4L508.5,260.6z"/>
	</g>
	<path class="st2" d="M455.2,351.2C407.7,410.6,335.7,461.7,227,485.6h256.1l77.6-134.4H455.2z"/>
</g>
<path class="st3" d="M77.6,485.6c0,0-1-60.2-77.6-134.4c0,0,460.7,54.1,539.4-331.4C539.4,19.8,590.6,485.6,77.6,485.6z"/>
<path class="st4" d="M77.6,485.6c0,0,383.1-80.3,461.8-465.8C539.4,19.8,590.6,485.6,77.6,485.6z"/>
</svg>
