<?xml version="1.0" encoding="utf-8"?>
<!-- Generator: Adobe Illustrator 23.0.5, SVG Export Plug-In . SVG Version: 6.00 Build 0)  -->
<svg version="1.1" id="Capa_1" xmlns="http://www.w3.org/2000/svg" xmlns:xlink="http://www.w3.org/1999/xlink" x="0px" y="0px"
	 viewBox="0 0 265.8 483.9" style="enable-background:new 0 0 265.8 483.9;" xml:space="preserve">
<style type="text/css">
	.st0{fill:none;stroke:#F9AE14;stroke-width:6;stroke-miterlimit:10;}
	.st1{fill:none;stroke:#9331C0;stroke-width:10;stroke-linecap:round;stroke-linejoin:round;stroke-miterlimit:10;}
	.st2{fill:#9331C0;}
	.st3{fill:none;stroke:#010101;stroke-width:2.5624;stroke-miterlimit:10;}
	.st4{fill:#FFA8A7;}
	.st5{fill:#263238;}
	.st6{fill:#455A64;}
	.st7{fill:#37474F;}
	.st8{fill:#EBEBEB;}
	.st9{opacity:0.4;enable-background:new    ;}
	.st10{opacity:0.3;enable-background:new    ;}
	.st11{opacity:0.3;}
	.st12{fill:#F0F0F0;}
	.st13{fill:#FAFAFA;}
	.st14{fill:#F28F8F;}
	.st15{fill:#B16668;}
	.st16{fill:#E0E0E0;}
	.st17{opacity:0.15;fill:#FFFFFF;enable-background:new    ;}
	.st18{fill:#E6E6E6;}
	.st19{opacity:0.5;}
	.st20{opacity:0.7;}
	.st21{fill:#FFFFFF;}
</style>
<g id="XMLID_43_">
	<path id="XMLID_45_" class="st0" d="M518.3,1344.2c-11.5,11.5-30.2,11.5-41.8,0c-11.5-11.5-11.5-30.2,0-41.8"/>
	<path id="XMLID_44_" class="st1" d="M517.9,1344.6c-11.5,11.5-30.2,11.5-41.8,0c-11.5-11.5-11.5-30.2,0-41.8"/>
</g>
<g id="XMLID_37_">
	<g id="XMLID_40_">
		<path id="XMLID_41_" class="st2" d="M343.2,1322.1c0,4.1-1.6,8.2-4.7,11.3c-6.2,6.2-16.4,6.2-22.6,0c-8.5-8.5-22.4-8.5-30.9,0
			s-8.5,22.4,0,30.9c6.2,6.2,6.2,16.4,0,22.6c-6.2,6.2-16.4,6.2-22.6,0c-21-21-21-55.1,0-76.1s55.1-21,76.1,0
			C341.6,1313.9,343.2,1318,343.2,1322.1z"/>
	</g>
	<g id="XMLID_38_">
		<path id="XMLID_39_" class="st3" d="M333.6,1312.5c0,4.1-1.6,8.2-4.7,11.3c-6.2,6.2-16.4,6.2-22.6,0c-8.5-8.5-22.4-8.5-30.9,0
			s-8.5,22.4,0,30.9c6.2,6.2,6.2,16.4,0,22.6c-6.2,6.2-16.4,6.2-22.6,0c-21-21-21-55.1,0-76.1s55.1-21,76.1,0
			C332,1304.3,333.6,1308.4,333.6,1312.5z"/>
	</g>
</g>
<g id="freepik--Character--inject-9">
	<g id="freepik--character--inject-9">
		<g id="freepik--Bottom--inject-9">
			<path class="st4" d="M171.3,401.6l13.4-26.4l26.9,15.7l-33.2,39.3c0,0-16.5-1.6-19.1-10.1C156.7,411.6,166.8,404.5,171.3,401.6z"
				/>
			<path class="st5" d="M152.3,412c-1.5,1.1-2.8,2.5-3.7,4.1c-1.1,1.6-0.7,9.4-1.8,13s-1.8,4.6-3.6,9.1c-1.9,5-5.5,9.6-1.5,22.6
				s10.4,19.1,15.9,22.2c2,1,4.3,1.6,6.5,1.6c0,0,7.1-2.7,6-6.9S152.3,412,152.3,412z"/>
			<path class="st6" d="M183.5,426.2c-0.2,1.3-2.1,3.4-2.8,4.5c-2.5,3.7-3.7,8.6-4.6,12.9c-4.2,20.4,4,30.9-7.1,38.5
				c-3.1,2-9.8,1.5-19.9-11.4c-5.2-6.6-8.1-20.1-6.1-26.3s4.7-10.1,6-14.8s0.6-13.5,3.2-17.6c1.7-2.3,3.9-4.2,6.4-5.5
				c1.9-1.2,6.3-2.7,8.2-3.9c1.9-1.1,3.1-2.4,4.4-1l-2.3,2.9c-3.6,5-2.6,5.7-2.5,8.4c-0.2,2.8-0.6,5.7-1.3,8.4
				c2.5-3.2,3.6-6,6.4-5.5c2.8,0.5,3.1,0.4,7.1,4.1C182.6,423.6,183.7,425,183.5,426.2z"/>
			<path class="st7" d="M149.1,470.7c-5.2-6.6-8.1-20.1-6.1-26.3c0.7-2,1.5-4,2.4-5.9c-0.1,0.4-0.2,0.8-0.3,1.2
				c-0.1,0.8-0.2,1.6-0.3,2.4c-0.5,3.1-0.1,6.3,1,9.3c1.2,2.6,3.8,9,7.3,9.1c1.9,0,3.6-1.8,4.4-4c0.3-0.9,0.8-3.4,0.8-3.4
				c3.2,0.7,6.2,2,9,3.7c5,3.3,4.8,4,4.8,4c-0.3,1.4-0.3,2.9-0.2,4.4c0.3,1.6,0.9,3.1,1.9,4.4c0.4,0.4,0.8,0.7,1.3,1
				c-0.2,4.7-1.4,8.4-6,11.6C165.8,484.2,159.2,483.6,149.1,470.7z"/>
			<path class="st7" d="M176.1,443.6c-1.1,5.4-1.5,10.9-1.3,16.4c-1.9,5.2-3.5,5.1-3.8,2.4c-0.2-2.7,3.4-14,6.1-23.3
				C176.7,440.7,176.4,442.1,176.1,443.6z"/>
			<path class="st7" d="M163.6,410.8c-0.2-2.7,0.5-5.3,2-7.5c0.5-0.2,0.9-0.4,1.3-0.7c2.2-1.2,3.1-2.4,4.4-1l-2.3,2.9
				c-3.6,5-2.6,5.7-2.5,8.4c-0.2,2.8-0.6,5.7-1.3,8.4c-2.1,8.9-4,11.9-5,20.3c-1,8.4,0.7,14-0.5,14.5c-1.2,0.5-3.6-0.5-4-7.2
				c-0.4-6.7,2.5-18,4.6-23.4C162.4,420.1,164,414.4,163.6,410.8z"/>
			<path class="st8" d="M157.7,453.6c0.1,0.1,0.3,0.2,0.4,0.2c5.3,0.7,10.2,3.5,13.4,7.9c0.3,0.3,0.8,0.4,1.2,0.1
				c0.3-0.3,0.4-0.8,0.1-1.2c-3.5-4.6-8.6-7.6-14.4-8.4c-0.5-0.1-0.9,0.2-1,0.7C157.5,453.2,157.5,453.4,157.7,453.6L157.7,453.6z"
				/>
			<path class="st8" d="M158.8,446.6c0.1,0.1,0.3,0.2,0.4,0.2c5.6,1,10.7,4,14.1,8.6c0.3,0.4,0.8,0.4,1.2,0.1c0,0,0,0,0,0
				c0.4-0.3,0.4-0.8,0.1-1.2c-3.7-4.8-9.1-8.1-15.1-9.1c-0.5-0.1-0.9,0.2-1,0.6C158.5,446.1,158.6,446.4,158.8,446.6z"/>
			<path class="st8" d="M158.6,438.9c0.1,0.1,0.3,0.2,0.5,0.3c6.3,1.1,11.9,4.6,15.7,9.6c0.3,0.4,0.9,0.5,1.4,0.1c0,0,0,0,0,0
				c0.4-0.3,0.4-0.9,0.1-1.3c0,0,0,0,0,0c-4.1-5.4-10.1-9-16.8-10.3c-0.5-0.1-1,0.2-1.1,0.7C158.3,438.4,158.4,438.7,158.6,438.9z"
				/>
			<path class="st8" d="M159.8,432.3c0.1,0.1,0.3,0.2,0.5,0.3c6.1,1.1,11.7,4.5,15.4,9.4c0.3,0.4,0.9,0.4,1.3,0.1
				c0.4-0.3,0.4-0.9,0.1-1.3c-4-5.3-9.9-8.8-16.5-10c-0.5-0.1-1,0.2-1.1,0.7c0,0,0,0,0,0C159.4,431.8,159.5,432.1,159.8,432.3z"/>
			<path class="st8" d="M162.2,425.9c0.1,0.1,0.3,0.2,0.5,0.3c6.2,1.1,11.7,4.5,15.5,9.4c0.3,0.4,0.9,0.4,1.3,0.1
				c0.4-0.3,0.4-0.9,0.1-1.3c0,0,0,0,0,0c-4-5.3-9.9-8.8-16.4-10c-0.5-0.1-1,0.2-1.1,0.7c0,0,0,0,0,0
				C161.9,425.4,161.9,425.7,162.2,425.9z"/>
			<polygon class="st4" points="178.6,403.8 196,418 205.9,424.2 194.6,445.5 162.9,430.3 			"/>
			<path class="st2" d="M136.9,309.7c0,0,69.7-11.8,96.8-11.6c27.7,0.2,30.3,21,23.4,33.7c-13.3,24.4-59.5,76.2-59.5,76.2
				s-15.5-7.1-20.3-20.5l10.5-24.2L154.7,374l-16.9-11.4l-1.4-8.6L136.9,309.7z"/>
			<path class="st9" d="M136.9,309.7c0,0,69.7-11.8,96.8-11.6c27.7,0.2,30.3,21,23.4,33.7c-13.3,24.4-59.5,76.2-59.5,76.2
				s-15.5-7.1-20.3-20.5l10.5-24.2L154.7,374l-16.9-11.4l-1.4-8.6L136.9,309.7z"/>
			<path class="st2" d="M136.9,309.7L33.2,326.8c0,0-1.1,26.3,9.3,49.9c7.4,16.8,22.9,28.7,41.1,31.4c11,1.5,22.1,2.4,33.2,2.7
				c5.4,4.1,11.2,7.5,17.4,10.2c8.8,3.5,47,19.5,47,19.5s10.7-9.1,9.7-28.1L154.7,374c-8.2-10-11-13.2-15.6-15.4
				C141.4,326.9,139.2,323.1,136.9,309.7z"/>
			<path class="st10" d="M136.9,309.7L33.2,326.8c0,0-1.1,26.3,9.3,49.9c7.4,16.8,22.9,28.7,41.1,31.4c11,1.5,22.1,2.4,33.2,2.7
				c5.4,4.1,11.2,7.5,17.4,10.2c8.8,3.5,47,19.5,47,19.5s10.7-9.1,9.7-28.1L154.7,374c-8.2-10-11-13.2-15.6-15.4
				C141.4,326.9,139.2,323.1,136.9,309.7z"/>
			<g class="st11">
				<path d="M193.4,342.8c-5.1,7.5-9.8,15.3-14,23.3l8.5-2.7c9.5-22.7,11.5-29.4,26.7-40C214.6,323.4,203.6,327.5,193.4,342.8z"/>
				<path d="M108.6,398c0,0,5.8,8.4,24.5,16.3c10.5,4.5,43.1,17.3,53,19.5c-1.3,2.5-3,4.7-5,6.6c0,0-38.3-16-47-19.5
					c-1.9-0.8-3.8-1.6-5.6-2.6c-0.8-0.4-1.6-0.8-2.3-1.3c-1.9-1.1-3.7-2.3-5.2-3.3s-2.7-1.9-3.4-2.4l-0.8-0.6l-0.1-0.1
					C108.5,403.6,108.6,398,108.6,398z"/>
				<path d="M149.2,367.6l5.5,6.4l5.3-1.7c0,0-9.4-10.2-15.5-15.6c-1-1-2.2-2-3.5-2.7c3.1-8,3-21.2,3-21.2c-1,7-3.8,13.6-8,19.3
					c-5-1.2-10.2-1.2-15.3-0.2c-10.6,1.8-41.5,7-41.5,7s29.5-2.7,44.9-3.2C139.5,355,145.5,363.2,149.2,367.6z"/>
			</g>
			<path class="st5" d="M245.9,435.3c7.5,2.9,12.1,5.9,15.5,10.4c3.5,4.5,4.5,9.1,1.2,14.5s-9.3,11.9-16.5,11.5
				c-7.1-0.4-11.6-2.2-18.2-5.8L245.9,435.3z"/>
			<path class="st6" d="M186.1,441.6c-0.1,2.2,9.3,6.7,19.1,11.4c10.5,5,13.1,8.3,21.7,12.5c9.8,4.8,13.5,5.1,21.1,3
				c7.6-2.1,17-13,10.4-23c-5.3-8.2-12.2-10.4-22.7-13.2c-8.3-2.1-16.5-4.7-24.5-7.9c-7.6-2.9-13.8-8.2-15.4-6.4
				c1.1,0.5,9,5.4,7.5,6.7c-0.4,0.7-1.6,0.5-3.5-0.3c-0.8-0.4-1.8-0.5-2.7-0.1c-0.9,0.6-1.6,1.4-2,2.3c-0.9,2-1.7,4-2.4,6
				c-0.6,1.4-0.3,0.6-0.9,2c-0.5,1.4-1.8,3.9-1.6,5.4c0.1,0.9,0.7,1.1,1.4,1.6c0.7,0.4,1.6,0.9,2.2,1.4c0.3,0.2,0.7,0.8,0.5,1.2
				c-0.2,0.5-1.6,0.3-2.2,0s-1.6-0.5-2.2-0.7C189.6,443.2,187.9,442.4,186.1,441.6z"/>
			<path class="st7" d="M223.6,463.9c1.4,0.7,10.3,4.8,13.1,2.4c3-2.7-4.1-7-4.1-7s-1.1-6.7,7-16.6c1.4,1.1,7.2,1,7.2-2.4
				c-0.1-3.5-9.9-7.7-10-7.7c10,2.7,16.6,5,21.8,12.9c6.5,10-2.8,20.9-10.4,23c-7.6,2.1-11.3,1.8-21.1-3
				C226,465,224.5,464.4,223.6,463.9z"/>
			<path class="st7" d="M233.6,458.6c3.7,1.2,1.2,4.6-4.3,3.5c-8.2-1.6-14.9-6.3-24-9.1c-9.8-4.7-19.8-9-19.1-11.5
				c1.8,0.6,5.5,2.2,5.5,2.2c0.7,0.3,2.6,1,2.6,1c7.4,3.1,15.7,8.4,23.7,10.5C225.1,457.2,229.9,457.4,233.6,458.6z"/>
			<path class="st7" d="M239.1,444c-3.4-2-4-3.6-10.6-6.7c-6.7-3.1-17.9-9.6-24.9-13.7c-2.6-1.7-5.1-3.6-7.6-5.6
				c1.2-1.3,5.4-0.1,9.6,2.6c4.2,2.7,6.8,4.4,11,6.6c8.2,4.9,17.5,8.2,22.2,11.2S242.5,445.9,239.1,444z"/>
			<path class="st12" d="M239.6,443.1c0,0.1-0.1,0.2-0.2,0.3c-3.7,4.7-5.9,10.5-6.3,16.4c0,0.5-0.4,0.9-0.9,0.9
				c-0.5,0-0.8-0.4-0.8-0.9c0,0,0,0,0-0.1c1.1-11.3,6.6-17.4,6.9-17.7c0.3-0.3,0.8-0.4,1.1-0.1c0,0,0.1,0.1,0.1,0.1
				C239.7,442.4,239.7,442.7,239.6,443.1z"/>
			<path class="st12" d="M233,438.2c0,0.1-0.1,0.2-0.2,0.3c-4.3,5.7-7,12.4-7.9,19.4c-0.1,0.5-0.5,0.9-1,0.9c-0.4,0-0.8-0.4-0.7-0.9
				c0,0,0-0.1,0-0.1c0.9-7.5,3.8-14.6,8.4-20.6c0.3-0.3,0.8-0.4,1.1-0.1c0,0,0,0,0.1,0.1C233.1,437.5,233.2,437.9,233,438.2z"/>
			<path class="st12" d="M218.5,457.2c-0.1,0.3-0.4,0.6-0.8,0.6c-0.4,0-0.8-0.3-0.8-0.8c0,0,0-0.1,0-0.1c0.4-11.9,8-23.1,8.4-23.4
				c0.3-0.3,0.8-0.4,1.1-0.1c0,0,0.1,0.1,0.1,0.1c0.3,0.4,0.3,0.9,0,1.3c-0.1,0.1-7.5,11-7.9,22.1
				C218.6,457,218.6,457.1,218.5,457.2z"/>
			<path class="st12" d="M212.4,453.3c-0.1,0.3-0.4,0.6-0.8,0.6c-0.4,0-0.8-0.3-0.8-0.7c0,0,0-0.1,0-0.1c0.3-8.2,3.4-16.1,8.9-22.2
				c0.3-0.3,0.8-0.4,1.1-0.1c0,0,0.1,0.1,0.1,0.1c0.3,0.4,0.2,1-0.2,1.3c-5,5.8-7.9,13.1-8.2,20.8
				C212.5,453.1,212.5,453.2,212.4,453.3z"/>
			<path class="st8" d="M204.5,450.1c-0.1,0.3-0.4,0.5-0.8,0.6c-0.4,0-0.8-0.3-0.8-0.7c0,0,0-0.1,0-0.1c0-12.4,8.8-22,9.1-22.3
				c0.3-0.3,0.8-0.4,1.1-0.1c0,0,0.1,0.1,0.1,0.1c0.3,0.4,0.2,1-0.1,1.3c-0.1,0.1-8.5,9.3-8.5,20.9
				C204.6,449.8,204.6,449.9,204.5,450.1z"/>
		</g>
		<g id="freepik--Top--inject-9">
			<g id="freepik--Arm--inject-9">
				<path id="freepik--arm--inject-9" class="st4" d="M100.3,193c15.8-1.1,29.4,8.2,31.2,20.9c1.9,13.1-4.4,52-4.4,52l28.8,19.9
					l-15,21.1c0,0-27.6-11.9-37.2-16.4c-14.6-6.9-12.6-11.3-12.5-29.3C91.3,243.2,98.6,203.2,100.3,193z"/>
				<path class="st2" d="M100.4,193c4.1-0.3,8.3,0.1,12.3,1.1c3.5,1.1,10.6,4.1,14.3,8.8s5.4,8.6,5.3,19.4
					c-0.1,10.8-3.1,33.2-3.1,33.2l-23.6,0.2L100.4,193z"/>
			</g>
			<g id="freepik--Chest--inject-9">
				<path class="st13" d="M128.1,233.3c-2.7-29.4-12.7-39.3-27.7-40.4c-0.3,0-20.9,1-32.8,3.1c-14.4,2.7-31.1,10.9-36,14
					c-7.4,4.7-9.8,14.6-10,35.4c0,20.1,1.3,40.2,3.9,60.1c1.9,17.5,5.4,34.9,10.3,51.9c20.7,6.9,101.7-21.4,101.1-47.7
					c-2.1-6-4.7-9.8-6.4-22C128.4,266.3,129,242.6,128.1,233.3z"/>
				<g id="freepik--Head--inject-9">
					<path class="st5" d="M57.7,185.5c-0.8-8.3-8.5-17.4-11.7-24.8c-3.1-7.1-4.9-12.6-4-19.1c0.5-3.8,3.3-8.9,6.2-9.8
						c-2.4-14.5,8.6-19.5,13.5-20.9c2.2-0.6,6.9-1.4,9.1-2.2c3.1-1.1,4.1-3.5,6.7-5.5c4.5-3.4,11.8-3,14.1,2.7
						c3.1-3.5,7-3.1,11.4-1.7c3.9,1.2,6.2,5.1,5.3,9.1c6.3-3,11.4,1.6,11.8,5.2c0.2,2.6-0.5,4.7,1.1,7.2c1.7,2.7,5.4,2.9,6.6,0.9
						c0.4,3.7-1.2,6.5-5.2,6c1.2,2.2,1.4,4.8,0.6,7.1c-1.2,3-4.1,4.9-7.3,4.8c-0.5,4.2-3.2,7.8-7.1,9.4c-6.3,2.5-13,3-19.7,3.9
						l-7.9,1.1c-0.5,0-2.8,0-3.1,0.4L57.7,185.5z"/>
					<path class="st4" d="M48.5,174.2c5.6,3.8,9.7,0.4,9.7,0.4L56,201.6c3.7,11.9,23.4,15.1,30.8,12.4c7.4-2.8,6.8-7.1,2.5-14
						l0.8-4.4c3.3,0.3,6.5,0.3,9.8,0.2c6.5-0.5,11.7-5.4,14-12.2c2.6-8.9,3.5-18.3,2.6-27.6c-0.3-2.3-0.2-4.5,0.1-6.8
						c1-6,0.2-9.4-1.1-14.6c-6.7-6.2-23-9.2-38.9-0.9c1.2,9.2-2.8,16.2-9.7,19.2c0.2,2.5,0,8.7-4,8.3c-2.9-0.3-2.9-3.9-5.6-7.4
						c-2.8-3.4-9.7-4.7-12.7-0.2C40.5,160,42.4,170,48.5,174.2z"/>
					<path class="st5" d="M76,148.7l-19.7,4c1.2,0.8,2.1,2,2.6,3.3l17.1-2.8L76,148.7z"/>
					<path class="st7" d="M121.3,146.3H120c-4.3-0.4-8.7,0-12.8,1.1c-4.2,1.5-5.8,3-8.1,3.1c-2.3,0.1-3.8-1.3-8.1-2.3
						c-3.4-0.8-9.2-0.4-13.7,0.3l-1.4,0.2c-1,0.4-1.8,1.3-1.8,2.5c0,1,0.4,1.9,1,2.7c0.2,0.3,0.3,0.7,0.3,1.1c0,2.5,0.3,5.1,0.7,7.6
						c0.3,1,0.8,1.9,1.4,2.7c0.2,0.3,0.5,0.5,0.8,0.8l0.5,0.3c0.5,0.3,1,0.5,1.5,0.7l0.3,0.1l0.4,0.1l0.4,0.1
						c0.5,0.1,0.9,0.1,1.4,0.2h0.6h0.8c4.3,0,8.3-2.5,10.2-6.4c1.7-3,1.8-7.1,4.4-7.3H99h0.2c1.9,0.4,1.3,4.2,2.3,6.9
						c0.4,1.1,0.9,2,1.6,2.9c0.1,0.2,0.3,0.3,0.4,0.5l0.2,0.2l0.2,0.2l0.2,0.2l0.2,0.2l0.2,0.1l0.1,0.1c0.7,0.4,1.4,0.7,2.2,0.9h0.2
						c0.9,0.2,1.9,0.2,2.8,0.2c3.8-0.1,7.1-2.4,8.5-5.9c0.9-2.6,1.6-5.2,2.2-7.9c0.1-0.4,0.3-0.7,0.5-1c0.7-0.8,1.2-1.8,1.4-2.9
						C122.7,147.4,122,146.3,121.3,146.3z M93.2,158.5c-0.5,1.6-1.3,3-2.4,4.2l0,0c-1.7,1.7-4.1,2.7-6.5,2.7
						c-2.3,0.3-4.5-0.7-5.7-2.7c-0.1-0.1-0.1-0.2-0.2-0.3l-0.1-0.3c0-0.1-0.1-0.2-0.1-0.3l-0.1-0.2c0-0.1,0-0.1,0-0.2
						c0-0.1,0-0.1,0-0.2L78,161l0,0c-0.1-0.3-0.1-0.6-0.2-0.9l0,0l-0.1-0.5c0-0.3,0-0.6-0.1-0.8c0-0.1,0-0.1,0-0.2c0,0,0-0.1,0-0.1
						c-0.2-2-0.2-6,0.9-7s3.8-2,7.9-1.8h0.5c0.6,0,1.3,0.1,1.9,0.2l0.7,0.2c0.6,0.1,1.2,0.3,1.8,0.5c0.2,0.1,0.4,0.1,0.5,0.2
						c0.2,0.1,0.4,0.2,0.6,0.3h0.1l0.2,0.1c0.5,0.2,0.9,0.6,1.1,1C94.4,153.6,93.9,156.2,93.2,158.5z M118,156.4
						c-0.4,1.6-1.4,5.1-4.5,6.8c-1,0.5-2.1,0.9-3.2,0.9c-2.4,0.4-4.9-0.7-6.1-2.8l0,0l-0.1-0.2l-0.1-0.2v-0.1c0-0.1-0.1-0.2-0.1-0.3
						l-0.1-0.4c0,0,0-0.1,0-0.2s0,0,0-0.1c0-0.1,0-0.1,0-0.2c0,0,0-0.1,0-0.1c-0.1-0.5-0.2-1-0.3-1.6c-0.2-2.3-0.2-4.9,0.7-6.2
						c0.9-1.3,4.1-2.8,7.1-3.3c0.6-0.1,1.3-0.2,1.9-0.3h1.7h0.5l0.9,0.1h0.2l0,0h0.2h0.2l0.3,0.1l0.4,0.2l0,0c0.4,0.1,0.7,0.4,1,0.6
						C119.4,150.3,118.6,154.3,118,156.4L118,156.4z"/>
					<path class="st14" d="M109.1,168.1l-10,4.4l-2.5-16.6c0.5-1.1,1.1-1.9,2.3-2h0.5c0.1,0,0.2,0.1,0.3,0.1l0,0
						c0.2,0.1,0.3,0.3,0.5,0.5c1.2,1.2,2.2,2.6,3.1,4c1,1.4,2,3.1,3,4.7l1.7,2.8C108.3,166.9,108.7,167.5,109.1,168.1z"/>
					<path class="st14" d="M90.2,195.6c-10.2-1.9-17.8-3.5-22.7-11.3c-2.2-4-4-8.2-5.4-12.6c0,0,0.5,9.1,3.4,15.5
						c2.3,4.9,8.1,9.4,24,11.9L90.2,195.6z"/>
					<path class="st5" d="M89.2,157.4c-0.1,1.6-1.5,2.8-3,2.7c-1.6-0.1-2.8-1.5-2.7-3c0.1-1.5,1.4-2.7,2.9-2.7
						C88,154.4,89.2,155.8,89.2,157.4C89.2,157.4,89.2,157.4,89.2,157.4z"/>
					<path class="st5" d="M88.4,144.1l-6.8,1.9c-0.5-1.9,0.6-3.9,2.5-4.5c1.8-0.5,3.7,0.6,4.2,2.4C88.4,144,88.4,144,88.4,144.1z"/>
					<path class="st15" d="M86.8,174.1l9.4,3.5c-1,2.6-4,3.9-6.6,3c-2.5-0.9-3.8-3.7-2.9-6.2C86.8,174.2,86.8,174.2,86.8,174.1z"/>
					<path class="st14" d="M92.3,180.8c-0.3-3-2.8-5.3-5.8-5.3c-0.3,2.2,1,4.3,3.1,5.1C90.5,180.9,91.4,180.9,92.3,180.8z"/>
					<path class="st5" d="M114.4,145.6l-7-1.3c0.2-1.9,1.9-3.2,3.8-2.9c0.1,0,0.1,0,0.2,0C113.3,141.8,114.6,143.6,114.4,145.6z"/>
					<path class="st5" d="M111.6,156.7c-0.2,1.6-1.7,2.7-3.3,2.4c-1.6-0.2-2.7-1.7-2.4-3.3c0.2-1.5,1.6-2.6,3.2-2.4
						C110.6,153.6,111.8,155.1,111.6,156.7z"/>
				</g>
			</g>
			<path class="st6" d="M58.1,151.2L47,150.8c0,0-1.9-11-2.5-17.5c-0.1-1.3-0.2-2.4-0.2-3.1c0-0.4,0-0.7,0-1.1
				c0-4.6,0.5-8.8,5.5-12.7c3.5-2.7,7.6-4.5,11.9-5.5c-2,0.9-3.8,2.2-5.3,3.8c-1.7,1.9-2.8,4.2-3.2,6.7c-0.2,0.9-0.2,1.8-0.1,2.7
				c0,1.4,0.2,2.8,0.4,4.2C54.6,137.4,58.1,151.2,58.1,151.2z"/>
			<path class="st7" d="M62.8,170.5c2.5-7.9,1.1-16.5-3.8-23.2c-1.2-1.5-2.8-2.7-4.6-3.5c-1.1-0.4-2.3-0.6-3.5-0.4L47,144
				c-2.7,0.5-5,2.7-6.3,6.3c-2.5,7.9-1.1,16.5,3.8,23.2c1.2,1.5,2.8,2.7,4.6,3.5c1.1,0.4,2.3,0.6,3.5,0.4l3.9-0.6
				C59.2,176.3,61.5,174.1,62.8,170.5z"/>
			<path class="st5" d="M49.1,177c-1.8-0.7-3.4-1.9-4.6-3.5c-4.9-6.7-6.3-15.3-3.8-23.2c1.9-5.1,5.8-7.4,9.8-5.9
				c1.8,0.7,3.4,1.9,4.6,3.5c4.9,6.7,6.3,15.3,3.9,23.2C57,176.2,53.2,178.5,49.1,177z"/>
			<path class="st12" d="M58.1,170.8c2.4-7.6,1.1-16-3.7-22.5c-2.3-2.8-4.9-4-7.2-3.6l-1.9,0.3c-2.3,0.4-4.4,2.3-5.7,5.7
				c-2.4,7.6-1,16,3.7,22.4c2.3,2.8,4.9,3.9,7.2,3.6l1.9-0.3C54.8,176.2,56.9,174.2,58.1,170.8z"/>
			<path class="st16" d="M52.5,148.8c4.7,6.5,6.1,14.8,3.7,22.4c-2.5,6.8-8.3,7.7-12.9,2.2c-4.7-6.5-6.1-14.8-3.7-22.4
				C42.1,144.1,47.9,143.2,52.5,148.8z"/>
			<path class="st2" d="M56.2,171.2c2.4-7.6,1-16-3.7-22.4c-2.3-2.8-4.9-3.9-7.2-3.6c-0.7,0.1-1.9,0.4-2.5,0.5
				c-2.3,0.4-4.4,2.3-5.7,5.7c-2.4,7.6-1,16,3.7,22.4c2.3,2.8,4.9,4,7.2,3.6c0.7-0.1,1.9-0.4,2.5-0.5
				C52.8,176.5,54.9,174.6,56.2,171.2z"/>
			<path class="st17" d="M50,149.3c4.7,6.5,6.1,14.8,3.7,22.4c-2.5,6.8-8.3,7.7-12.9,2.1c-4.7-6.5-6.1-14.8-3.7-22.4
				C39.6,144.6,45.4,143.7,50,149.3z"/>
			<path class="st5" d="M46.4,155.6c2.5,3.4,3.2,7.8,1.9,11.8c-1.3,3.6-4.4,4.1-6.8,1.1c-2.5-3.4-3.2-7.8-2-11.8
				C40.9,153.1,44,152.6,46.4,155.6z"/>
			<path class="st6" d="M48.2,160l-4.5,2.1l-1.4-8.3c1.5-0.1,3,0.6,3.8,1.9C47.1,156.9,47.8,158.4,48.2,160z"/>
			<path class="st7" d="M48,167.4c-0.4,1.5-1.5,2.6-3,3l-1.4-8.3l4.5-2.1C48.9,162.4,48.8,165,48,167.4z"/>
			<path class="st6" d="M45,170.4c-1.5,0.1-3-0.6-3.8-1.9c-1-1.3-1.7-2.8-2.1-4.4l4.5-2.1L45,170.4z"/>
			<path class="st7" d="M43.7,162l-4.5,2.1c-0.7-2.4-0.6-5,0.2-7.4c0.4-1.5,1.5-2.6,3-3L43.7,162z"/>
			<g id="freepik--Laptop--inject-9">
				<path class="st8" d="M81.2,366v1.9c0,1.9,1,3.7,2.7,4.7l52.2,30.3c1.7,1,3.8,1,5.5,0l96.2-55c1.7-1,2.7-2.8,2.8-4.7V342
					l-101.6,58.1L81.2,366z"/>
				<path class="st13" d="M240.5,342L183.8,309c-1-0.6-2.3-0.6-3.3,0l-98.9,56.6c-0.4,0.2-0.5,0.7-0.3,1c0.1,0.1,0.2,0.2,0.3,0.3
					l57.3,33.4L240.5,342z"/>
				<polygon class="st16" points="138.3,395.3 107.7,377.5 197.6,326.1 228.4,343.8 				"/>
				<polygon class="st16" points="123.5,346 124,346.4 139,355.1 165.8,339.8 166.4,339.5 150.8,330.4 				"/>
				<polygon class="st18" points="124,346.4 139,355.1 165.8,339.8 150.8,331 				"/>
				<path class="st8" d="M138.8,400.1v3.6c1,0,1.9-0.2,2.7-0.7l96.2-55c1.7-1,2.7-2.8,2.8-4.7V342L138.8,400.1z"/>
				<g class="st19">
					<path class="st16" d="M138.8,400.1v3.6c1,0,1.9-0.2,2.7-0.7l96.2-55c1.7-1,2.7-2.8,2.8-4.7V342L138.8,400.1z"/>
				</g>
				<path class="st4" d="M216.8,326.1c-3.1-4.4-7.1-8.3-10.1-12.9c-2.7-3.1-6.3-5.4-9.3-8c-9.5-6.6-12-6.5-23.9-10.1
					c-6.4-1.9-12.4-5.1-17.6-9.3l-15,21.1c1.8,1,3.5,1.9,5.1,2.9c2.7,1.6,6.3,7.6,12.3,9.8c8.1,2.9,17.5,0.7,18.4,3.1
					c0,1.5,0.3,2.9,0.7,4.4c-1.5-0.6-3.1-1-4.7-1.2c-1.5,0-3.6,1.8-3.1,2.8c0.4,1,1.4,1.4,2.5,2.2c0.7,0.6,3.3,2.6,3.6,2.8
					c2.4,1,5,1.4,7.5,1.1c1.1-0.2,2.1-1.1,2.5-2.2c0.6,0.2,1.1,0.4,1.7,0.6c1.1,0.3,2.2,0.3,3.3-0.2c0.5-0.4,0.9-0.9,1-1.6
					c1.3-0.1,2.7-0.4,3.9-0.8c1.8-1,1.8-3.1,2.1-5c0.4-2.2,0.4-4.4,0.2-6.7c5.4,3.1,9.7,9.3,16.2,10.4
					C216.4,329.6,219.4,328.7,216.8,326.1z"/>
				<g>
					<path class="st4" d="M5.3,303.4c1.3-25.6,2.7-48.8,5.7-67.7c1.6-10.4,11.2-20.4,21.1-24.5c14.7,8,14.1,37.7,13,45l-5.4,45.3
						c0,0,12.9,8.2,26.3,15.8c11.4,6.4,18.9,11.7,31.4,11.6s17.4-1.1,24.2,1c3.6,1.1,11.8,3.6,14.6,4.6c2.8,1,8.2,5.3,13,8
						c4.6,2.8-0.4,5.3-3.7,4.7c-3.6-0.7-7-1.9-10.3-3.5c-2.8-1-5.7-1.7-8.7-2.2c1.3,3,2.3,6.2,3,9.4c0.2,1.8,0.9,3.9-0.5,5.4
						c-1.1,0.8-2.3,1.5-3.5,2c0,0.6-0.1,1.3-0.5,1.8c-0.8,0.8-1.9,1.2-3.1,1.2c-0.6,0-1.2,0-1.8,0c0,1.2-0.7,2.2-1.7,2.8
						c-2.4,1.1-5,1.5-7.5,1.2c-0.4-0.1-3.4-1.3-4.3-1.6c-1.1-0.2-2.1-0.7-3-1.4c-0.7-0.8,0.7-3.1,2.2-3.6c1.6-0.4,3.2-0.4,4.9-0.3
						c-0.8-1.2-1.5-2.6-1.9-4c-1.6-1.9-10.8,1.4-19.3,0.9c-6.5-0.3-11.8-5.8-14.8-6.7c-19.3-6-33.9-10.1-53.7-19
						C2.8,321.5,4.7,316.7,5.3,303.4z"/>
					<path class="st14" d="M128.3,341.8c-1.3-2.3-3.1-4.9-5-5.4c1.3,1.5,2.4,3.2,3.3,5C127.2,341.7,127.7,341.7,128.3,341.8z"/>
					<path class="st14" d="M125.5,358.3c0.1-1.8-0.1-3.5-0.5-5.2c-0.3-1.7-0.8-3.4-1.3-5.1c-0.5-1.7-1.2-3.4-2-4.9
						c-0.8-1.6-2.1-2.9-3.6-3.8c0.7,0.6,1.2,1.2,1.7,1.9c0.5,0.7,0.9,1.5,1.3,2.2c0.7,1.6,1.3,3.2,1.8,4.8c0.5,1.6,1,3.3,1.6,5
						C124.8,354.9,125.2,356.6,125.5,358.3z"/>
					<path class="st14" d="M120.1,361.3c0-1.7-0.2-3.5-0.6-5.1c-0.4-1.7-0.8-3.3-1.4-5c-0.6-1.6-1.2-3.2-2-4.7
						c-0.7-1.6-1.8-3-3.1-4.1c0.6,0.6,1.1,1.3,1.4,2.1c0.4,0.8,0.7,1.5,1,2.3c0.6,1.6,1.2,3.1,1.8,4.8
						C118.2,354.7,119.3,357.9,120.1,361.3z"/>
					<path class="st14" d="M105.8,358.6c0.7-0.1,1.4-0.1,2.2,0c0.7,0.1,1.2,0.4,2.1,0.5l-0.4-0.5c0,0.4,0.1,0.7,0.3,1
						c0.2,0.3,0.3,0.5,0.6,0.7c0.4,0.4,1,0.7,1.6,0.8c-0.4-0.4-0.7-0.8-1-1.2c-0.1-0.2-0.2-0.4-0.3-0.6c-0.1-0.2-0.1-0.4-0.1-0.6
						v-0.4l-0.4-0.1c-0.7-0.2-1.4-0.2-2.1-0.2C107.3,358,106.5,358.2,105.8,358.6z"/>
					<path class="st2" d="M32.2,209.7c-11.2,4.4-19.5,14.2-22,26c-3.6,16.1-5,47.9-5,47.9s5.4,5,19.5,6.3
						c14.2,1.2,17.8-2.2,17.8-2.2s2.4-22.3,3.5-32.6C47.1,244.8,48.4,216,32.2,209.7z"/>
				</g>
				<path class="st2" d="M140.4,401c1.8,0.7,3.9,0.6,5.6-0.4l95.7-54.7c1.7-1,2.8-2.6,3.1-4.5l10.7-62.3c0.1-0.4,0.1-0.7,0.1-1.1
					c0-1.7-0.7-3.4-1.9-4.6l-99.5,56.9c-1.2,0.7-2.1,1.9-2.3,3.3L140.4,401z"/>
				<g class="st20">
					<path class="st21" d="M140.4,401c1.8,0.7,3.9,0.6,5.6-0.4l95.7-54.7c1.7-1,2.8-2.6,3.1-4.5l10.7-62.3c0.1-0.4,0.1-0.7,0.1-1.1
						c0-1.7-0.7-3.4-1.9-4.6l-99.5,56.9c-1.2,0.7-2.1,1.9-2.3,3.3L140.4,401z"/>
				</g>
				<path class="st13" d="M138.8,400.1l0.6,0.4c0.3,0.2,0.6,0.3,0.9,0.4l11.6-67.4c0.2-1.4,1.1-2.6,2.3-3.3l99.5-56.9
					c-0.4-0.4-0.8-0.7-1.3-1l-99.7,57c-1.2,0.7-2.1,1.9-2.4,3.3L138.8,400.1z"/>
				<path class="st2" d="M194.4,343.6c0.7-4.2,5.1-9.7,9.7-12.3c4.6-2.6,7.9-1.4,7.1,2.8c-0.8,4.2-5,9.7-9.7,12.3
					S193.7,347.8,194.4,343.6z"/>
			</g>
		</g>
	</g>
</g>
</svg>
