<?xml version="1.0" encoding="utf-8"?>
<!-- Generator: Adobe Illustrator 23.0.5, SVG Export Plug-In . SVG Version: 6.00 Build 0)  -->
<svg version="1.1" id="Capa_1" xmlns="http://www.w3.org/2000/svg" xmlns:xlink="http://www.w3.org/1999/xlink" x="0px" y="0px"
	 viewBox="0 0 875.3 453.4" style="enable-background:new 0 0 875.3 453.4;" xml:space="preserve">
<style type="text/css">
	.st0{fill:#FFFFFF;}
	.st1{fill:none;stroke:#284457;stroke-width:3;stroke-miterlimit:10;}
	.st2{fill:none;stroke:#FFFFFF;stroke-width:3;stroke-linecap:round;stroke-miterlimit:10;}
	.st3{fill:none;stroke:#FFFFFF;stroke-width:3;stroke-linecap:square;stroke-miterlimit:10;}
	.st4{fill:none;stroke:#FFFFFF;stroke-width:2.7;stroke-linejoin:round;stroke-miterlimit:10;}
	.st5{fill:none;stroke:#284457;stroke-width:2.7;stroke-linejoin:round;stroke-miterlimit:10;}
	.st6{opacity:0.3;fill:#FFFFFF;}
	.st7{clip-path:url(#SVGID_2_);fill:none;stroke:#FFFFFF;stroke-width:3;stroke-linecap:round;stroke-miterlimit:10;}
	.st8{opacity:0.45;fill:#F8F7F8;}
</style>
<g>
	<g>
		<g>
			<path class="st0" d="M124,60.5v48.4L92.1,83.8V60.5H124 M127.1,57.5H124H92.1h-3.1v3.1v23.2v2.5h3.1l31.9,22.5h3.1v0.2V60.5V57.5
				L127.1,57.5z"/>
		</g>
	</g>
	<polyline class="st1" points="84.5,200.5 84.5,85.1 92.7,85.1 142.8,121 142.8,122 142.8,122 142.8,239 	"/>
	<g>
		<rect x="90.6" y="180.9" class="st2" width="46.1" height="8.1"/>
	</g>
	<g>
		<rect x="120.1" y="200.5" class="st2" width="16.7" height="8.1"/>
	</g>
	<g>
		<rect x="90.6" y="161.3" class="st2" width="46.1" height="8.1"/>
	</g>
	<g>
		<rect x="90.6" y="141.7" class="st2" width="46.1" height="8.1"/>
	</g>
	<g>
		<rect x="90.6" y="122.1" class="st2" width="30.7" height="8.1"/>
	</g>
	<g>
		<rect x="90.6" y="102.5" class="st2" width="11.6" height="8.1"/>
	</g>
	<polyline class="st2" points="84.5,200.5 84.5,85.1 92.7,85.1 142.8,121 142.8,122 142.8,122 142.8,239 	"/>
	<path class="st2" d="M90,200.5l69.8,51.5c0,9.2,0,163.4,0,167.7H84.4V200.5H90z"/>
	<path class="st3" d="M92.7,199.9l67.1,48.1v6.1l-73.5-52.9c-0.6-0.4-0.3-1.3,0.4-1.3H92.7z"/>
	<g>
		<g>
			<rect x="92" y="372.8" class="st2" width="60.3" height="8.1"/>
		</g>
		<g>
			<rect x="92" y="352.4" class="st2" width="60.3" height="8.1"/>
		</g>
		<g>
			<rect x="92" y="331.9" class="st2" width="60.3" height="8.1"/>
		</g>
		<g>
			<rect x="92" y="311.4" class="st2" width="60.3" height="8.1"/>
		</g>
		<g>
			<rect x="92" y="290.9" class="st2" width="60.3" height="8.1"/>
		</g>
		<g>
			<rect x="92" y="270.5" class="st2" width="60.3" height="8.1"/>
		</g>
		<g>
			<rect x="92" y="250" class="st2" width="44.7" height="8.1"/>
		</g>
		<g>
			<rect x="92.7" y="229.5" class="st2" width="20.4" height="8.1"/>
		</g>
	</g>
	<rect x="84.4" y="394.7" class="st2" width="75.3" height="25"/>
	<g>
		<g>
			<path class="st0" d="M115.4,66.5v4.7h-4.7v-4.7H115.4 M117,64.9h-1.6h-4.7h-1.6v1.6v4.7v1.6h1.6h4.7h1.6v-1.6v-4.7V64.9L117,64.9
				z"/>
		</g>
	</g>
	<g>
		<g>
			<path class="st0" d="M105.9,66.5v4.7h-4.7v-4.7H105.9 M107.4,64.9h-1.6h-4.7h-1.6v1.6v4.7v1.6h1.6h4.7h1.6v-1.6v-4.7V64.9
				L107.4,64.9z"/>
		</g>
	</g>
	<line class="st2" x1="35.7" y1="419.7" x2="208.5" y2="419.7"/>
	<g>
		<g>
			<rect x="134.4" y="400.1" class="st2" width="12.9" height="13.6"/>
		</g>
	</g>
	<g>
		<g>
			<rect x="114.6" y="400.1" class="st2" width="12.9" height="13.6"/>
		</g>
	</g>
	<g>
		<g>
			<rect x="94.8" y="400.1" class="st2" width="12.9" height="13.6"/>
		</g>
	</g>
</g>
<line class="st4" x1="232.4" y1="419.1" x2="473.2" y2="419.1"/>
<g>
	<g>
		<path class="st0" d="M349.5,301l-2.5,2.3h-95.8V418h165.5V303.3h-8l-1.5-2.3l9.5,0.2l0,0c1.2,0,2.2,0.9,2.2,2.1V418
			c0,1.1-1,2.1-2.2,2.1H251.3c-1.2,0-2.2-0.9-2.2-2.1V303.3c0-1.1,1-2.1,2.2-2.1L349.5,301"/>
	</g>
</g>
<g>
	<g>
		<path class="st0" d="M297,310.7v80.3h-34.4v-80.3H297 M299.2,308.6H297h-34.4h-2.2v2.2v80.3v2.2h2.2H297h2.2v-2.2v-80.3V308.6
			L299.2,308.6z"/>
	</g>
</g>
<g>
	<g>
		<path class="st0" d="M337.9,310.7v80.3h-34.4v-80.3H337.9 M340.1,308.6h-2.2h-34.4h-2.2v2.2v80.3v2.2h2.2h34.4h2.2v-2.2v-80.3
			V308.6L340.1,308.6z"/>
	</g>
</g>
<path class="st5" d="M346.7,302.1"/>
<path class="st4" d="M346.7,302.1h-97.1c-2.6,0-4.7-2.1-4.7-4.7V290c0-2.6,2.1-4.7,4.7-4.7h168.9c2.6,0,4.7,2.1,4.7,4.7v7.4
	c0,2.6-2.1,4.7-4.7,4.7h-10"/>
<path class="st4" d="M344,363.7c0-0.8,0.5-1.4,1.1-1.4h10c0.6,0,1.1,0.6,1.1,1.4v6.6c0,0.8-0.5,1.4-1.1,1.4h-10
	c-0.6,0-1.1-0.6-1.1-1.4V363.7z"/>
<path class="st4" d="M399.5,369.7c0-0.8,0.4-1.4,0.9-1.4h8.5c0.5,0,0.9,0.6,0.9,1.4v6.6c0,0.8-0.4,1.4-0.9,1.4h-8.5
	c-0.5,0-0.9-0.6-0.9-1.4V369.7z"/>
<g>
	<g>
		<path class="st0" d="M389.4,238.5c7.6,0,12,7.7,15.8,14.3c1.4,2.5,4,4.3,7,4.7c9.6,1.3,17.9,8.4,17.9,18v5.4
			c0,2.2-1.8,3.9-3.9,3.9H243.4c-2.2,0-3.9-1.8-3.9-3.9v-5.4c0-9.5,8.9-15.6,17.9-18.3c2.3-0.7,4.3-2.3,5.5-4.4
			c3.8-6.6,8.2-14.3,15.8-14.3H389.4 M389.4,236.3H278.6c-8.8,0-13.7,8.5-17.6,15.3l0,0.1c-0.9,1.6-2.4,2.8-4.2,3.4
			c-12.2,3.7-19.4,11.3-19.4,20.4v5.4c0,3.4,2.7,6.1,6.1,6.1h182.7c3.4,0,6.1-2.7,6.1-6.1v-5.4c0-10.1-8.3-18.6-19.8-20.2
			c-2.2-0.3-4.2-1.7-5.4-3.6l0-0.1C403,244.8,398.2,236.3,389.4,236.3L389.4,236.3z"/>
	</g>
</g>
<path class="st5" d="M356.1,328.2"/>
<polyline class="st4" points="356.1,330.4 356.1,400.8 399.5,400.8 399.5,330.4 "/>
<g>
	<path class="st4" d="M419.3,408.6V403c0-1.2-1-2.2-2.2-2.2h-65.8c-1.9,0-3.4,1.5-3.4,3.4v4.5v10.5h71.4h13.8v-8.2
		c0-1.2-1-2.2-2.2-2.2H419.3z"/>
	<path class="st4" d="M347.9,408.6v10.5h71.4h13.8v-8.2c0-1.2-1-2.2-2.2-2.2h-11.6H347.9z"/>
</g>
<g>
	<g>
		<path class="st0" d="M263.2,252.1v32.4h-17.6v-21.3c3.3-2.8,7.5-4.8,11.7-6.1c2.3-0.7,4.3-2.3,5.5-4.4
			C263,252.5,263.1,252.3,263.2,252.1 M263.2,249.9c-0.8,0-1.5,0.4-1.9,1.1l-0.1,0.2l-0.3,0.4c-0.9,1.6-2.4,2.8-4.2,3.4
			c-4.9,1.5-9.2,3.7-12.5,6.5c-0.5,0.4-0.8,1-0.8,1.7v21.3c0,1.2,1,2.2,2.2,2.2h17.6c1.2,0,2.2-1,2.2-2.2v-32.4c0-1-0.7-1.8-1.6-2.1
			C263.6,250,263.4,249.9,263.2,249.9L263.2,249.9z"/>
	</g>
</g>
<g>
	<g>
		<path class="st0" d="M290.1,238.5v46.1h-17.6v-44.2c1.8-1.2,3.8-1.9,6-1.9H290.1 M290.1,236.3h-11.5c-2.5,0-5,0.7-7.2,2.2
			c-0.6,0.4-1,1.1-1,1.8v44.2c0,1.2,1,2.2,2.2,2.2h17.6c1.2,0,2.2-1,2.2-2.2v-46.1C292.3,237.3,291.3,236.3,290.1,236.3L290.1,236.3
			z"/>
	</g>
</g>
<g>
	<g>
		<path class="st0" d="M317,238.6v46h-17.6v-46H317 M317,236.4h-17.6c-1.2,0-2.2,1-2.2,2.2v46c0,1.2,1,2.2,2.2,2.2H317
			c1.2,0,2.2-1,2.2-2.2v-46C319.2,237.4,318.2,236.4,317,236.4L317,236.4z"/>
	</g>
</g>
<g>
	<g>
		<path class="st0" d="M344.5,238.6v46h-17.6v-46H344.5 M344.5,236.4h-17.6c-1.2,0-2.2,1-2.2,2.2v46c0,1.2,1,2.2,2.2,2.2h17.6
			c1.2,0,2.2-1,2.2-2.2v-46C346.7,237.4,345.7,236.4,344.5,236.4L344.5,236.4z"/>
	</g>
</g>
<g>
	<g>
		<path class="st0" d="M371.4,238.6v46h-17.6v-46H371.4 M371.4,236.4h-17.6c-1.2,0-2.2,1-2.2,2.2v46c0,1.2,1,2.2,2.2,2.2h17.6
			c1.2,0,2.2-1,2.2-2.2v-46C373.6,237.4,372.6,236.4,371.4,236.4L371.4,236.4z"/>
	</g>
</g>
<g>
	<g>
		<path class="st0" d="M389.4,238.5c3.6,0,6.5,1.7,8.9,4.3v41.8h-17.6v-46.1H389.4 M389.4,236.3h-8.6c-1.2,0-2.2,1-2.2,2.2v46.1
			c0,1.2,1,2.2,2.2,2.2h17.6c1.2,0,2.2-1,2.2-2.2v-41.8c0-0.6-0.2-1.1-0.6-1.5C396.7,237.9,393.2,236.3,389.4,236.3L389.4,236.3z"/>
	</g>
</g>
<g>
	<g>
		<path class="st0" d="M406.5,254.6c1.4,1.5,3.4,2.5,5.6,2.8c4.5,0.6,8.8,2.5,12,5.4v21.7h-17.6V254.6 M406.5,252.4
			c-0.3,0-0.5,0.1-0.8,0.2c-0.8,0.3-1.4,1.1-1.4,2v29.9c0,1.2,1,2.2,2.2,2.2h17.6c1.2,0,2.2-1,2.2-2.2v-21.7c0-0.6-0.3-1.2-0.7-1.6
			c-3.5-3.1-8.2-5.2-13.1-5.9c-1.6-0.2-3.2-1-4.3-2.2C407.7,252.7,407.1,252.4,406.5,252.4L406.5,252.4z"/>
	</g>
</g>
<path class="st4" d="M368.5,362.4c0,1.8-1.5,3.3-3.3,3.3c-1.8,0-3.3-1.5-3.3-3.3c0-1.8,1.5-3.3,3.3-3.3
	C367,359.1,368.5,360.5,368.5,362.4z"/>
<path class="st4" d="M330,410.4c0,0.8-0.6,1.4-1.4,1.4h-13.2c-0.8,0-1.4-0.6-1.4-1.4v-6.6c0-0.8,0.6-1.4,1.4-1.4h13.2
	c0.8,0,1.4,0.6,1.4,1.4V410.4z"/>
<path class="st4" d="M257.5,406.2c0-0.8,0.6-1.4,1.4-1.4H272c0.8,0,1.4,0.6,1.4,1.4v6.6c0,0.8-0.6,1.4-1.4,1.4h-13.2
	c-0.8,0-1.4-0.6-1.4-1.4V406.2z"/>
<path class="st4" d="M289.4,402.9c0,0.8-0.6,1.4-1.4,1.4h-13.2c-0.8,0-1.4-0.6-1.4-1.4v-6.6c0-0.8,0.6-1.4,1.4-1.4H288
	c0.8,0,1.4,0.6,1.4,1.4V402.9z"/>
<path class="st4" d="M409.9,337.3c-0.8,0-1.4,0.6-1.4,1.4v6.6c0,0.8,0.6,1.4,1.4,1.4h6.9v-9.4H409.9z"/>
<g>
	<line class="st4" x1="266.9" y1="346" x2="282.1" y2="331.5"/>
	<line class="st4" x1="276.9" y1="344.1" x2="281.4" y2="339.8"/>
	<line class="st4" x1="283.7" y1="337.6" x2="293.2" y2="328.5"/>
</g>
<g>
	<line class="st4" x1="307.6" y1="346" x2="322.7" y2="331.5"/>
	<line class="st4" x1="317.6" y1="344.1" x2="322.1" y2="339.8"/>
	<line class="st4" x1="324.4" y1="337.6" x2="333.9" y2="328.5"/>
</g>
<g>
	<g>
		<path class="st0" d="M378,287.6c18.9,0,34.3,15.2,34.6,34h0v3.9c0,2.7-1.6,4.9-5,4.9c-2.4,0-4.4-2.4-4.8-4.6
			c-0.5,2.2-2.5,4.6-4.8,4.6c-2.7,0-5-2.2-5-5c0,2.7-2.2,5-5,5c-2.7,0-4.9-2.2-5-5c0,2.7-2.2,5-5,5c-2.7,0-4.9-2.2-5-4.9
			c0,2.7-2.2,4.9-5,4.9c-2.7,0-5-2.2-5-5l0,0c0,2.7-2.2,5-5,5c-2.6,0-4.8-2.1-4.9-4.7c-0.1,2.6-2.3,4.7-4.9,4.7c-2.7,0-5-2.2-5-4.9
			v-4.2h0C343.9,302.6,359.2,287.6,378,287.6 M378,285.4c-9.7,0-18.8,3.7-25.7,10.5c-6.8,6.7-10.7,15.5-11,25c0,0.1,0,0.3,0,0.4v4.2
			c0,3.9,3.2,7.1,7.1,7.1c1.9,0,3.7-0.8,4.9-2c1.3,1.2,3,2,4.9,2c1.9,0,3.7-0.8,5-2c1.3,1.2,3,2,5,2c1.9,0,3.7-0.8,5-2
			c1.3,1.3,3,2,4.9,2c1.9,0,3.7-0.8,5-2c1.3,1.2,3,2,5,2c1.9,0,3.7-0.8,5-2c1.3,1.2,3,2,5,2c1.9,0,3.6-0.9,4.8-2.3
			c1.3,1.4,2.9,2.3,4.9,2.3c4.3,0,7.1-2.9,7.1-7.1v-3.7c0-0.1,0-0.2,0-0.2c-0.2-9.7-4-18.8-10.9-25.6
			C396.9,289.1,387.7,285.4,378,285.4L378,285.4z"/>
	</g>
</g>
<g>
	<polygon class="st6" points="297,342.9 262.6,378.6 262.6,361.5 297.1,328.2 	"/>
</g>
<g>
	<polygon class="st6" points="337.9,342.9 303.5,378.6 303.5,361.5 338,328.2 	"/>
	<polygon class="st6" points="338,355.4 303.5,390.5 303.5,386.1 337.9,351.8 	"/>
</g>
<g id="_x30_O0yH2.tif">
	<g>
		<path class="st0" d="M471.1,345.4c-1.7,2.3-2.6,4.7-2.5,7.7c0.2,3.2-1.2,6.2-4.1,7.7c-2.4,1.2-3,3.1-3.6,5.3
			c-4.3,15.9-8.6,31.9-12.8,47.8c-0.7,2.8-1.7,5.3-5,5.2c-3.1-0.1-4-2.5-4.7-5.1c-4.3-16.1-8.6-32.1-12.9-48.2
			c-0.6-2.1-1.3-3.7-3.4-4.9c-4.5-2.6-7.9-18.1-5.4-22.6c0.7-1.3,1.7-2.6,3-3.1c2.8-1,3.1-2.3,2-5c-2.1-5.2-0.1-9.4,5.1-12.3
			c3.5-1.9,7.3-3.2,10.4-5.9c3.8-3.4,3.7-6-0.6-8.8c-2.2-1.4-1.8-2.6-0.5-4.2c2.9,0,5.9,0,8.8,0c1,1.2,2.6,1.1,3.9,1.7
			c5.3,2.5,7.1,7.2,5.2,14.2c-0.3,1.2-1.4,2.3,0.9,2.9c8.2,2.3,9.3,4.1,8.1,12.8c-0.1,1-0.5,1.8,0.9,2.1c3.9,0.8,5.7,4,7.4,7.1
			C471.1,341.7,471.1,343.6,471.1,345.4z M442.4,303.2c2.2,5.8-0.4,9.8-5,12.8c-2.7,1.7-5.6,3.1-8.4,4.6c-4.8,2.5-5.9,5.8-3.2,10.5
			c1,1.7,2.4,3.2,3.6,4.8c0.8,1,1.7,2,0.3,3.1c-1,0.9-2,0.2-2.8-0.6c-0.8-0.8-1.4-1.9-3-1.5c-3,0.7-5.1,3.2-4.9,6.4
			c0.3,3.3,1.8,5.2,5.4,4.7c0.8-0.1,1.6,0,2.4,0c0.9,0.1,1.5,0.6,1.6,1.5c0.2,1.2-0.7,1.7-1.7,1.8c-0.8,0.1-1.6,0.1-2.4,0.1
			c-3.5,0.2-4.3,1.8-2.4,4.8c1.4,2.2,3.5,2.7,5.9,2.7c10.1,0,20.3,0,30.4,0c1.8,0,3.4-0.3,4.8-1.5c1.5-1.2,2.1-2.9,1.7-4.6
			c-0.5-2.1-2.4-1.3-3.7-1.3c-8-0.1-16,0-24-0.1c-1.4,0-3.7,0.6-3.6-1.9c0.1-2,2.2-1.5,3.5-1.5c8.3,0,16.5,0,24.8,0
			c4.2,0,5.9-2.1,5.3-6.4c-0.3-2.6-1.6-4.4-4.1-5.4c-2.3-0.9-4.1-0.4-5.7,1.4c-0.9,1-2.3,2.5-3.7,0.8c-1.3-1.6,0.5-2.5,1.5-3.5
			c1.2-1.3,2.5-2.5,3.4-3.9c3.1-4.9,0.7-9.4-5-9.7c-2.7-0.2-4.5,0.8-6.3,2.6c-1,1-2.6,2-3.8,0.4c-1.2-1.6,0.5-2.2,1.5-3
			c2.7-2.1,4.7-4.7,5.6-8.1C452.3,307,449.1,303.1,442.4,303.2z M435.8,391.2c1.5,4.6,1,10.3,7.7,11.2c1.2,0.2,3,2.2,3.6,0.2
			c0.7-2.1,3.4-4.6,0.4-7c-0.8-0.6-1.5-1.2-1.1-2.3c0.4-1,1.2-1.3,2.2-1.1c2.8,0.3,2-2.2,2.4-3.5c0.4-1.2,2-3-0.1-3.8
			c-6.4-2.6-12.6-5.8-19-8.9c1.6,4.1,0.2,9.4,5.7,11.5c1.6,0.6,4.8,0.9,3.8,3.6C440.4,394,438.1,390.7,435.8,391.2z M430.6,362.5
			c-0.6,0.1-2.4-0.5-2,1.5c0.6,2.8,0.7,5.7,3.8,7.5c5.6,3.3,11.3,6.6,17.4,9c1.1,0.4,3.2,2.5,3.6-0.5c0.3-2.1,3.6-4.8-0.8-6.6
			c-6.5-2.5-12.5-5.9-18.3-9.8C433.3,362.9,432.3,362.3,430.6,362.5z M440.7,362.4c3,3.2,6.7,4.8,10.3,6.5c5,2.3,5,2.3,6.4-3
			c0.1-0.4,0.1-0.8,0.2-1.2c0.6-1.8,0-2.4-1.8-2.3C450.7,362.4,445.7,362.4,440.7,362.4z M440.1,405c-0.5,1.9,0.2,3.3,0.7,4.5
			c0.8,1.9,0.2,5.6,2.5,5.4c1.9-0.2,2.2-4,2.3-6.2C445.6,405.2,442,406.4,440.1,405z"/>
	</g>
</g>
<g>
	<polygon class="st2" points="805.5,338.4 805.5,297.8 530,297.8 530,338.4 541.6,338.4 541.6,394 530,394 530,418.8 805.5,418.8 
		805.5,394 794.3,394 794.3,338.4 	"/>
	<rect x="643.7" y="344.9" class="st2" width="48" height="62.8"/>
	<rect x="651" y="344.9" class="st2" width="33.6" height="62.8"/>
	<line class="st2" x1="657.4" y1="374.5" x2="665.4" y2="374.5"/>
	<g>
		<g>
			<path class="st0" d="M693.5,325.1c5,0,9,4,9,9v9.2H633v-9.2c0-5,4-9,9-9H693.5 M693.5,321.9H642c-6.7,0-12.2,5.5-12.2,12.2v9.2
				c0,1.7,1.4,3.1,3.1,3.1h69.6c1.7,0,3.1-1.4,3.1-3.1v-9.2C705.7,327.4,700.2,321.9,693.5,321.9L693.5,321.9z"/>
		</g>
	</g>
	<rect x="530" y="407.7" class="st2" width="275.6" height="11.1"/>
	<g>
		<g>
			<path class="st0" d="M796.5,252.2c5,0,9,4,9,9v17.3H530v-17.3c0-5,4-9,9-9H796.5 M796.5,249.1H539c-6.7,0-12.2,5.5-12.2,12.2
				v17.3c0,1.7,1.4,3.1,3.1,3.1h275.6c1.7,0,3.1-1.4,3.1-3.4V261C808.7,254.6,803.2,249.1,796.5,249.1L796.5,249.1z"/>
		</g>
	</g>
	<g>
		<defs>
			<path id="SVGID_1_" d="M805.5,261.9c0-5.3-4-9.7-9-9.7H539c-5,0-9,4.3-9,9.7v18.5h275.6V261.9z"/>
		</defs>
		<clipPath id="SVGID_2_">
			<use xlink:href="#SVGID_1_"  style="overflow:visible;"/>
		</clipPath>
		<line class="st7" x1="535.4" y1="252.1" x2="561.8" y2="280.4"/>
		<line class="st7" x1="557.1" y1="249.5" x2="585.9" y2="280.4"/>
		<line class="st7" x1="580.1" y1="248.3" x2="610.1" y2="280.4"/>
		<line class="st7" x1="603.7" y1="247.7" x2="634.2" y2="280.4"/>
		<line class="st7" x1="626.8" y1="246.6" x2="658.4" y2="280.4"/>
		<line class="st7" x1="651.7" y1="247.2" x2="682.5" y2="280.4"/>
		<line class="st7" x1="676.1" y1="247.7" x2="706.7" y2="280.4"/>
		<line class="st7" x1="700.8" y1="248.2" x2="730.8" y2="280.4"/>
		<line class="st7" x1="724.4" y1="247.5" x2="755" y2="280.4"/>
		<line class="st7" x1="750" y1="249.2" x2="779.1" y2="280.4"/>
		<line class="st7" x1="773.6" y1="248.6" x2="803.2" y2="280.4"/>
	</g>
	<g>
		<g>
			<path class="st0" d="M615.1,338.4V394h-55.8v-55.7H615.1 M618.2,335.2h-3.1h-55.8h-3.1v3.1V394v3.1h3.1h55.8h3.1V394v-55.7V335.2
				L618.2,335.2z"/>
		</g>
	</g>
	<path class="st2" d="M805.5,338.4H822v-4.3c0-5-4-9-9-9h-7.4C805.5,329.5,805.5,334.1,805.5,338.4z"/>
	<path class="st2" d="M530,338.4h-16.5v-4.3c0-5,4-9,9-9h7.4C530,329.5,530,334.1,530,338.4z"/>
	<g>
		<g>
			<g>
				<path class="st0" d="M806.1,281.8c3.4,0,6.2,2.8,6.2,6.2v8.2h-289V288c0-3.4,2.8-6.2,6.2-6.2H806.1 M806.1,278.7H529.4
					c-5.1,0-9.3,4.2-9.3,9.3v8.2c0,1.7,1.4,3.1,3.1,3.1h289c1.7,0,3.1-1.4,3.1-3.1V288C815.4,282.9,811.2,278.7,806.1,278.7
					L806.1,278.7z"/>
			</g>
		</g>
	</g>
	<rect x="634.3" y="201" class="st2" width="61.7" height="49.3"/>
	<rect x="628.2" y="407.7" class="st2" width="79" height="11.1"/>
	<line class="st2" x1="493.3" y1="418.8" x2="842.2" y2="418.8"/>
	<g>
		<polygon class="st6" points="615.1,347 559.3,375.1 559.3,363.4 615.1,337 		"/>
		<polygon class="st6" points="615.1,355.5 559.3,383.2 559.3,380.2 615.1,353.1 		"/>
	</g>
	<path class="st2" d="M621.1,336.6h-67.8v-4.3c0-5,4-9,9-9h49.8c5,0,9,4,9,9V336.6z"/>
	<g>
		<g>
			<path class="st0" d="M615.1,385.3v8.7h-55.8v-8.7H615.1 M615.1,382.2h-55.8c-1.7,0-3.1,1.4-3.1,3.1v8.7c0,1.7,1.4,3.1,3.1,3.1
				h55.8c1.7,0,3.1-1.4,3.1-3.1v-8.7C618.2,383.6,616.8,382.2,615.1,382.2L615.1,382.2z"/>
		</g>
	</g>
	<g>
		<g>
			<path class="st0" d="M778.6,338.4V394h-55.8v-55.7H778.6 M781.7,335.2h-3.1h-55.8h-3.1v3.1V394v3.1h3.1h55.8h3.1V394v-55.7V335.2
				L781.7,335.2z"/>
		</g>
	</g>
	<g>
		<polygon class="st6" points="778.5,347 722.7,375.1 722.7,363.4 778.6,337 		"/>
		<polygon class="st6" points="778.6,355.5 722.7,383.2 722.7,380.2 778.6,353.1 		"/>
	</g>
	<path class="st2" d="M784.6,336.6h-67.8v-4.3c0-5,4-9,9-9h49.8c5,0,9,4,9,9V336.6z"/>
	<g>
		<g>
			<path class="st0" d="M778.6,385.3v8.7h-55.8v-8.7H778.6 M778.6,382.2h-55.8c-1.7,0-3.1,1.4-3.1,3.1v8.7c0,1.7,1.4,3.1,3.1,3.1
				h55.8c1.7,0,3.1-1.4,3.1-3.1v-8.7C781.7,383.6,780.3,382.2,778.6,382.2L778.6,382.2z"/>
		</g>
	</g>
	<g id="DxQ4WI.tif">
		<g>
			<path class="st0" d="M646.6,218.9c0-1.8,0-3.6,0-5.3c0.3-0.7,0.8-0.9,1.5-0.9c3.5,0,7.1,0,10.6,0c0.3,0,0.5-0.1,0.7-0.4
				c1.4-2.1,2.8-4.3,4.1-6.4c0.3-0.4,0.7-0.6,1.2-0.6c1.5,0,3.1,0,4.6,0c0.2,0,0.4,0,0.6,0.1c0.5,0.3,0.7,0.8,0.6,1.3
				c-0.1,0.5-0.6,0.9-1.2,0.9c-1.3,0-2.6,0-3.9,0c-0.2,0-0.3,0.1-0.4,0.2c-1,1.5-1.9,3-2.9,4.5c0,0.1-0.1,0.2-0.1,0.2
				c0.1,0.1,0.2,0,0.3,0c3.1,0,6.2,0,9.2,0c1,0,1.4,0.4,1.4,1.4c0,1.5,0,2.9,0,4.4c0,0.9-0.5,1.4-1.4,1.4c-0.2,0-0.3,0.1-0.3,0.3
				c0,0.9-0.1,1.7-0.2,2.6c0,0.3,0,0.3,0.3,0.3c2.8,0,5.5,0,8.3,0c0.4,0,0.8,0,1.2,0.1c3.8,0.5,6.6,3.7,6.6,7.5
				c0,0.7-0.5,1.2-1.2,1.2c-0.2,0-0.4,0-0.6,0c0,0.1,0,0.1,0,0.1c0.3,1.2,0.1,2.3-0.7,3.3c-0.1,0.2,0,0.2,0,0.3
				c0.6,0.8,0.9,1.8,0.7,2.8c0,0.2-0.2,0.5-0.1,0.6c0.1,0.1,0.4,0,0.6,0c0.6,0,1.1,0.5,1.1,1c0,0.3,0,0.6,0,0.9
				c-0.3,2.3-1.5,3.9-3.6,4.9c-0.5,0.2-1,0.3-1.6,0.5c-10.6,0-21.1,0-31.7,0c-0.6-0.3-0.9-0.7-0.9-1.4c-0.1-2.5-0.3-4.9-0.4-7.4
				c-0.2-3.1-0.4-6.3-0.6-9.4c-0.2-2.7-0.3-5.3-0.5-8c0-0.2-0.1-0.2-0.2-0.2C647.3,219.9,646.8,219.6,646.6,218.9z M661.3,239
				C661.3,239,661.3,239,661.3,239c-0.4-1.3-0.2-2.4,0.7-3.4c0.1-0.1,0-0.2,0-0.3c-0.7-0.9-0.9-1.9-0.7-3c0.1-0.4,0.1-0.4-0.3-0.4
				c-0.9,0-1.3-0.5-1.4-1.3c0-3.4,2.6-6.6,6.1-7.3c0.9-0.2,1.9-0.2,2.8-0.2c0.2,0,0.3,0,0.3-0.3c0-0.9,0.1-1.7,0.2-2.6
				c0-0.3-0.1-0.3-0.3-0.3c-5.9,0-11.8,0-17.6,0c-0.3,0-0.3,0.1-0.3,0.3c0.1,1.5,0.2,2.9,0.3,4.4c0,0.3,0.1,0.3,0.3,0.3
				c1.5,0,2.8,0.5,3.9,1.4c2.4,2,2.8,5.6,1,8.1c-1.1,1.4-2.5,2.3-4.3,2.5c-0.2,0-0.3,0-0.3,0.3c0.1,2.1,0.3,4.2,0.4,6.4
				c0,0.3,0.1,0.3,0.3,0.3c2.7,0,5.3,0,8,0c0.1,0,0.2,0,0.3,0c0-0.1,0-0.1-0.1-0.2c-0.7-1-1-2.1-1.1-3.3c0-0.6,0.3-1.1,0.9-1.2
				C660.8,239,661.1,239.1,661.3,239z M685,229.4c0-0.1-0.1-0.2-0.1-0.3c-0.7-2.2-2.7-3.7-5.1-3.7c-3.6,0-7.2,0-10.9,0
				c-0.7,0-1.4,0-2.1,0c-2.2,0.1-4,1.5-4.7,3.6c-0.2,0.5-0.2,0.4,0.3,0.4c7.4,0,14.8,0,22.1,0C684.8,229.4,684.9,229.4,685,229.4z
				 M659.8,217.4c0.7,0,1.5,0,2.2,0c2.8,0,5.5,0,8.3,0c0.3,0,0.4-0.1,0.4-0.4c0-0.5,0-1.1,0-1.6c0-0.4,0-0.4-0.4-0.4
				c-7,0-13.9,0-20.9,0c0,0-0.1,0-0.1,0c-0.2,0-0.2,0.1-0.2,0.2c0,0.6,0,1.2,0,1.9c0,0.3,0.1,0.3,0.3,0.3
				C652.8,217.4,656.3,217.4,659.8,217.4z M673.6,241.5c-3.7,0-7.4,0-11.1,0c-0.3,0-0.4,0-0.2,0.3c0.7,1.4,1.8,2.1,3.4,2.1
				c4,0,8,0,12,0c1.4,0,2.7,0,4.1,0c1.4,0,2.5-0.8,3.1-2.1c0.2-0.3,0.2-0.3-0.2-0.3C680.9,241.5,677.3,241.5,673.6,241.5z
				 M673.6,234.3c2.9,0,5.8,0,8.7,0c0.4,0,0.7-0.1,1-0.4c0.3-0.4,0.4-0.8,0.2-1.3c-0.2-0.5-0.6-0.7-1.2-0.7c-5.3,0-10.6,0-15.9,0
				c-0.6,0-1.1,0-1.7,0c-0.4,0-0.8,0.2-1,0.5c-0.3,0.4-0.3,0.8,0,1.3c0.2,0.4,0.6,0.6,1.1,0.6C667.7,234.3,670.7,234.3,673.6,234.3z
				 M673.6,239.1c2.9,0,5.8,0,8.7,0c0.4,0,0.8-0.1,1-0.4c0.3-0.4,0.4-0.8,0.2-1.3c-0.2-0.5-0.6-0.7-1.1-0.7c-1.3,0-2.7,0-4,0
				c-4.5,0-9,0-13.4,0c-0.4,0-0.8,0.1-1.1,0.4c-0.3,0.4-0.4,0.8-0.2,1.3c0.2,0.5,0.6,0.7,1.1,0.7
				C667.7,239.1,670.6,239.1,673.6,239.1z M651.3,230.8c0.1,1.1,0.1,2.3,0.2,3.4c0,0.2,0.1,0.3,0.3,0.2c1.9-0.2,3.3-1.9,3.2-3.8
				c-0.1-1.9-1.7-3.4-3.6-3.4c-0.2,0-0.3,0-0.3,0.3C651.2,228.7,651.3,229.7,651.3,230.8z"/>
		</g>
	</g>
</g>
<g id="pbTU4Y.tif">
	<g>
		<path class="st0" d="M208.5,53.3c10.4,0,20.8,0,31.1,0c5.6,0,9.7,3.1,10.9,8.1c0.2,0.9,0.3,1.8,0.3,2.8c0,13.9,0,27.9,0,41.8
			c0,6.3-4.7,11-11,11c-8.4,0-16.8,0-25.1,0c-1,0-1.9,0.2-2.8,0.7c-7,3.9-14,7.7-21,11.5c-0.5,0.3-1.1,0.6-1.8,0.5
			c-1.2-0.1-1.9-1-1.9-2.5c0-3.1,0-6.1,0-9.2c0-0.8-0.2-1-1-1c-3.1,0-6.2,0-9.3,0c-6.2,0-10.8-4.7-10.8-10.9c0-13.8,0-27.6,0-41.4
			c0-6.9,4.4-11.4,11.4-11.4C187.8,53.3,198.2,53.3,208.5,53.3z M208.4,57.6C208.4,57.6,208.4,57.6,208.4,57.6c-1.1,0-2.2,0-3.3,0
			c-9.3,0-18.6,0-27.8,0c-4.2,0-6.9,2.6-6.9,6.8c0,13.8,0,27.7,0,41.5c0,4.1,2.6,6.7,6.7,6.7c3.9,0,7.9,0,11.8,0
			c1.9,0,2.7,0.8,2.7,2.6c0,2.5,0,5,0,7.6c0,1.1,0,1.1,1,0.6c6.1-3.3,12.2-6.6,18.3-9.9c1-0.6,2.1-0.8,3.2-0.8c8.7,0,17.3,0,26,0
			c3.8,0,6.5-2.7,6.5-6.5c0-14,0-28,0-42c0-0.5,0-1-0.1-1.4c-0.7-3.2-3.2-5.1-6.8-5.1C229.3,57.6,218.9,57.6,208.4,57.6z"/>
	</g>
</g>
<path class="st8" d="M246.6,64.1c0-0.5,0-1-0.1-1.4c-0.7-3.2-3.2-5.1-6.8-5.1c-10.4,0-20.8,0-31.2,0c0,0,0,0,0,0c-1.1,0-2.2,0-3.3,0
	c-9.3,0-18.6,0-27.8,0c-4.2,0-6.9,2.6-6.9,6.8c0,13.8,0,27.7,0,41.5c0,4.1,2.6,6.7,6.7,6.7c3.9,0,7.9,0,11.8,0
	c1.9,0,2.7,0.8,2.7,2.6c0,2.5,0,5,0,7.6c0,1.1,0,1.1,1,0.6c6.1-3.3,12.2-6.6,18.3-9.9c1-0.6,2.1-0.8,3.2-0.8c8.7,0,17.3,0,26,0
	c3.8,0,6.5-2.7,6.5-6.5C246.7,92.1,246.6,78.1,246.6,64.1z M190.7,92.4l12.9-22.4h9.9l6.4,11.1c-1.7,2-3.8,4-6.5,5.8l-4.8-8.3
	l-7.8,13.5c0.6-0.1,1.3-0.2,2-0.3c1.5-0.2,3.7-0.7,6.2-1.7c6.5-2.5,12.9-7.3,15.6-16.6c0.2-0.6,0.4-1.3,0.5-1.9
	c-0.1,0.2-0.1,0.4-0.2,0.7c0.1-0.3,0.2-0.7,0.2-1c0,0,0,0.1,0,0.2c0,0,0,0.1,0,0.1c0,0,0-0.1,0-0.1c0.2,2.5,1.7,29.5-29.4,29.5
	C195.6,101,195.6,97.1,190.7,92.4z M221.4,101h-14.1c12.6-3.2,15.7-14.3,15.7-14.3l3.3,5.8L221.4,101z"/>
<g id="pbTU4Y.tif_1_">
	<g>
		<path class="st0" d="M380.7,142.7c10.4,0,20.8,0,31.1,0c5.6,0,9.7,3.1,10.9,8.1c0.2,0.9,0.3,1.8,0.3,2.8c0,13.9,0,27.9,0,41.8
			c0,6.3-4.7,11-11,11c-8.4,0-16.8,0-25.1,0c-1,0-1.9,0.2-2.8,0.7c-7,3.9-14,7.7-21,11.5c-0.5,0.3-1.1,0.6-1.8,0.5
			c-1.2-0.1-1.9-1-1.9-2.5c0-3.1,0-6.1,0-9.2c0-0.8-0.2-1-1-1c-3.1,0-6.2,0-9.3,0c-6.2,0-10.8-4.7-10.8-10.9c0-13.8,0-27.6,0-41.4
			c0-6.9,4.4-11.4,11.4-11.4C360,142.7,370.4,142.7,380.7,142.7z M380.6,147C380.6,147,380.6,147,380.6,147c-1.1,0-2.2,0-3.3,0
			c-9.3,0-18.6,0-27.8,0c-4.2,0-6.9,2.6-6.9,6.8c0,13.8,0,27.7,0,41.5c0,4.1,2.6,6.7,6.7,6.7c3.9,0,7.9,0,11.8,0
			c1.9,0,2.7,0.8,2.7,2.6c0,2.5,0,5,0,7.6c0,1.1,0,1.1,1,0.6c6.1-3.3,12.2-6.6,18.3-9.9c1-0.6,2.1-0.8,3.2-0.8c8.7,0,17.3,0,26,0
			c3.8,0,6.5-2.7,6.5-6.5c0-14,0-28,0-42c0-0.5,0-1-0.1-1.4c-0.7-3.2-3.2-5.1-6.8-5.1C401.5,147,391,147,380.6,147z"/>
	</g>
</g>
<path class="st8" d="M418.8,153.5c0-0.5,0-1-0.1-1.4c-0.7-3.2-3.2-5.1-6.8-5.1c-10.4,0-20.8,0-31.2,0c0,0,0,0,0,0
	c-1.1,0-2.2,0-3.3,0c-9.3,0-18.6,0-27.8,0c-4.2,0-6.9,2.6-6.9,6.8c0,13.8,0,27.7,0,41.5c0,4.1,2.6,6.7,6.7,6.7c3.9,0,7.9,0,11.8,0
	c1.9,0,2.7,0.8,2.7,2.6c0,2.5,0,5,0,7.6c0,1.1,0,1.1,1,0.6c6.1-3.3,12.2-6.6,18.3-9.9c1-0.6,2.1-0.8,3.2-0.8c8.7,0,17.3,0,26,0
	c3.8,0,6.5-2.7,6.5-6.5C418.8,181.5,418.8,167.5,418.8,153.5z M362.9,181.8l12.9-22.4h9.9l6.4,11.1c-1.7,2-3.8,4-6.5,5.8l-4.8-8.3
	l-7.8,13.5c0.6-0.1,1.3-0.2,2-0.3c1.5-0.2,3.7-0.7,6.2-1.7c6.5-2.5,12.9-7.3,15.6-16.6c0.2-0.6,0.4-1.3,0.5-1.9
	c-0.1,0.2-0.1,0.4-0.2,0.7c0.1-0.3,0.2-0.7,0.2-1c0,0,0,0.1,0,0.2c0,0,0,0.1,0,0.1c0,0,0-0.1,0-0.1c0.2,2.5,1.7,29.5-29.4,29.5
	C367.8,190.4,367.8,186.5,362.9,181.8z M393.6,190.4h-14.1c12.6-3.2,15.7-14.3,15.7-14.3l3.3,5.8L393.6,190.4z"/>
<g id="pbTU4Y.tif_2_">
	<g>
		<path class="st0" d="M730,123.1c10.4,0,20.8,0,31.1,0c5.6,0,9.7,3.1,10.9,8.1c0.2,0.9,0.3,1.8,0.3,2.8c0,13.9,0,27.9,0,41.8
			c0,6.3-4.7,11-11,11c-8.4,0-16.8,0-25.1,0c-1,0-1.9,0.2-2.8,0.7c-7,3.9-14,7.7-21,11.5c-0.5,0.3-1.1,0.6-1.8,0.5
			c-1.2-0.1-1.9-1-1.9-2.5c0-3.1,0-6.1,0-9.2c0-0.8-0.2-1-1-1c-3.1,0-6.2,0-9.3,0c-6.2,0-10.8-4.7-10.8-10.9c0-13.8,0-27.6,0-41.4
			c0-6.9,4.4-11.4,11.4-11.4C709.3,123.1,719.7,123.1,730,123.1z M729.9,127.4C729.9,127.4,729.9,127.4,729.9,127.4
			c-1.1,0-2.2,0-3.3,0c-9.3,0-18.6,0-27.8,0c-4.2,0-6.9,2.6-6.9,6.8c0,13.8,0,27.7,0,41.5c0,4.1,2.6,6.7,6.7,6.7c3.9,0,7.9,0,11.8,0
			c1.9,0,2.7,0.8,2.7,2.6c0,2.5,0,5,0,7.6c0,1.1,0,1.1,1,0.6c6.1-3.3,12.2-6.6,18.3-9.9c1-0.6,2.1-0.8,3.2-0.8c8.7,0,17.3,0,26,0
			c3.8,0,6.5-2.7,6.5-6.5c0-14,0-28,0-42c0-0.5,0-1-0.1-1.4c-0.7-3.2-3.2-5.1-6.8-5.1C750.7,127.4,740.3,127.4,729.9,127.4z"/>
	</g>
</g>
<path class="st8" d="M768.1,133.8c0-0.5,0-1-0.1-1.4c-0.7-3.2-3.2-5.1-6.8-5.1c-10.4,0-20.8,0-31.2,0c0,0,0,0,0,0
	c-1.1,0-2.2,0-3.3,0c-9.3,0-18.6,0-27.8,0c-4.2,0-6.9,2.6-6.9,6.8c0,13.8,0,27.7,0,41.5c0,4.1,2.6,6.7,6.7,6.7c3.9,0,7.9,0,11.8,0
	c1.9,0,2.7,0.8,2.7,2.6c0,2.5,0,5,0,7.6c0,1.1,0,1.1,1,0.6c6.1-3.3,12.2-6.6,18.3-9.9c1-0.6,2.1-0.8,3.2-0.8c8.7,0,17.3,0,26,0
	c3.8,0,6.5-2.7,6.5-6.5C768.1,161.9,768.1,147.9,768.1,133.8z M712.2,162.2l12.9-22.4h9.9l6.4,11.1c-1.7,2-3.8,4-6.5,5.8l-4.8-8.3
	l-7.8,13.5c0.6-0.1,1.3-0.2,2-0.3c1.5-0.2,3.7-0.7,6.2-1.7c6.5-2.5,12.9-7.3,15.6-16.6c0.2-0.6,0.4-1.3,0.5-1.9
	c-0.1,0.2-0.1,0.4-0.2,0.7c0.1-0.3,0.2-0.7,0.2-1c0,0,0,0.1,0,0.2c0,0,0,0.1,0,0.1c0,0,0-0.1,0-0.1c0.2,2.5,1.7,29.5-29.4,29.5
	C717.1,170.8,717,166.9,712.2,162.2z M742.9,170.8h-14.1c12.6-3.2,15.7-14.3,15.7-14.3l3.3,5.8L742.9,170.8z"/>
</svg>
