<?xml version="1.0" encoding="utf-8"?>
<!-- Generator: Adobe Illustrator 23.0.5, SVG Export Plug-In . SVG Version: 6.00 Build 0)  -->
<svg version="1.1" id="Capa_1" xmlns="http://www.w3.org/2000/svg" xmlns:xlink="http://www.w3.org/1999/xlink" x="0px" y="0px"
	 viewBox="0 0 338.9 439" style="enable-background:new 0 0 338.9 439;" xml:space="preserve">
<style type="text/css">
	.st0{fill:#8B44BA;stroke:#263238;stroke-linecap:round;stroke-linejoin:round;}
	.st1{fill:#263238;stroke:#263238;stroke-linecap:round;stroke-linejoin:round;}
	.st2{fill:none;stroke:#FFFFFF;stroke-linecap:round;stroke-linejoin:round;}
	.st3{fill:#FFFFFF;}
	.st4{fill:#8B44BA;}
	.st5{fill:#FFFFFF;stroke:#263238;stroke-linecap:round;stroke-linejoin:round;}
	.st6{fill:#858585;stroke:#263238;stroke-linecap:round;stroke-linejoin:round;}
	.st7{fill:none;stroke:#757575;stroke-linecap:round;stroke-linejoin:round;}
	.st8{fill:none;stroke:#263238;stroke-linecap:round;stroke-linejoin:round;}
</style>
<g id="freepik--Signs--inject-32">
	<path class="st0" d="M172.1,426.4h-9.5V11c0-2.6,2.1-4.8,4.8-4.8l0,0l0,0c2.6,0,4.8,2.1,4.8,4.8c0,0,0,0,0,0V426.4z"/>
	<rect x="78.6" y="61.5" class="st1" width="83.7" height="29.5"/>
	<rect x="172.3" y="29.9" class="st1" width="83.7" height="29.5"/>
	<polygon class="st1" points="172.3,111.2 219,117.1 219,75.7 172.3,81.7 	"/>
	<polygon class="st0" points="209.6,97.2 199.3,85.8 199.3,90.8 177.7,91.6 177.7,102.4 199.3,103.5 199.3,108.5 	"/>
	<polygon class="st0" points="243.2,42.5 227.3,33.4 227.3,37.4 185.4,37.4 185.4,47.7 227.3,47.7 227.3,51.7 	"/>
	<polygon class="st0" points="92,76.5 107.9,67.3 107.9,71.3 149.9,71.3 149.9,81.6 107.9,81.6 107.9,85.7 	"/>
</g>
<circle class="st2" cx="297.4" cy="56.4" r="34.7"/>
<path class="st2" d="M320.2,79.3c-2.3,2.3-5,4.3-7.9,5.8"/>
<path class="st2" d="M307.6,87.1c-16.9,5.7-35.3-3.4-41-20.3c-5.7-16.9,3.4-35.3,20.3-41s35.3,3.4,41,20.3c3,8.9,2,18.7-2.9,26.8"/>
<circle class="st3" cx="297.4" cy="56.4" r="2.6"/>
<polyline class="st2" points="301,70.8 297.4,56.4 318.8,41.7 "/>
<polyline class="st2" points="72.3,146.4 72.3,197.6 34.1,197.6 "/>
<polyline class="st2" points="2.8,189.6 2.8,132.4 72.3,132.4 72.3,141.9 "/>
<polyline class="st2" points="28.7,197.6 2.8,197.6 2.8,193.5 "/>
<rect x="7.1" y="148.5" class="st2" width="6.8" height="6.8"/>
<rect x="16.1" y="148.5" class="st2" width="6.8" height="6.8"/>
<rect x="25.1" y="148.5" class="st2" width="6.8" height="6.8"/>
<rect x="34.2" y="148.5" class="st2" width="6.8" height="6.8"/>
<rect x="43.2" y="148.5" class="st2" width="6.8" height="6.8"/>
<rect x="52.3" y="148.5" class="st2" width="6.8" height="6.8"/>
<rect x="61.3" y="148.5" class="st2" width="6.8" height="6.8"/>
<rect x="7.1" y="159.2" class="st2" width="6.8" height="6.8"/>
<rect x="16.1" y="159.2" class="st2" width="6.8" height="6.8"/>
<rect x="25.1" y="159.2" class="st2" width="6.8" height="6.8"/>
<rect x="34.2" y="159.2" class="st2" width="6.8" height="6.8"/>
<rect x="43.2" y="159.2" class="st2" width="6.8" height="6.8"/>
<rect x="52.3" y="159.2" class="st2" width="6.8" height="6.8"/>
<rect x="61.3" y="159.2" class="st2" width="6.8" height="6.8"/>
<rect x="7.1" y="169.9" class="st2" width="6.8" height="6.8"/>
<rect x="16.1" y="169.9" class="st2" width="6.8" height="6.8"/>
<rect x="25.1" y="169.9" class="st2" width="6.8" height="6.8"/>
<rect x="34.2" y="169.9" class="st2" width="6.8" height="6.8"/>
<rect x="43.2" y="169.9" class="st2" width="6.8" height="6.8"/>
<rect x="52.3" y="169.9" class="st2" width="6.8" height="6.8"/>
<rect x="61.3" y="169.9" class="st2" width="6.8" height="6.8"/>
<rect x="7.1" y="180.6" class="st2" width="6.8" height="6.8"/>
<rect x="16.1" y="180.6" class="st2" width="6.8" height="6.8"/>
<rect x="25.1" y="180.6" class="st2" width="6.8" height="6.8"/>
<rect x="34.2" y="180.6" class="st2" width="6.8" height="6.8"/>
<rect x="43.2" y="180.6" class="st2" width="6.8" height="6.8"/>
<rect x="52.3" y="180.6" class="st2" width="6.8" height="6.8"/>
<rect x="61.3" y="180.6" class="st2" width="6.8" height="6.8"/>
<path class="st3" d="M15.1,137h-3v-11h3V137z M27.1,126h-3v11h3V126z M39.1,126h-3v11h3V126z M51.1,126h-3v11h3V126z M63.1,126h-3
	v11h3V126z"/>
<path class="st2" d="M54.6,224.5c-14.6,0-26.5,11.9-26.5,26.5c0,14.6,11.9,26.5,26.5,26.5s26.5-11.9,26.5-26.5c0,0,0,0,0,0
	C81.1,236.3,69.2,224.5,54.6,224.5C54.6,224.5,54.6,224.5,54.6,224.5z M54.6,267.7c-9.3,0-16.8-7.5-16.8-16.8
	c0-9.3,7.5-16.8,16.8-16.8c9.3,0,16.8,7.5,16.8,16.8c0,0,0,0,0,0C71.3,260.2,63.8,267.7,54.6,267.7L54.6,267.7z"/>
<path class="st2" d="M55.1,224.5v9.8c9.2,0.3,16.5,8,16.2,17.2c-0.1,4.2-1.9,8.3-4.8,11.3l7.6,6.1c9.9-10.8,9.1-27.6-1.7-37.4
	C67.7,227.1,61.6,224.6,55.1,224.5L55.1,224.5z"/>
<line class="st2" x1="44.8" y1="249.9" x2="63.8" y2="249.9"/>
<line class="st2" x1="44.8" y1="254.7" x2="63.8" y2="254.7"/>
<line class="st2" x1="275.1" y1="149" x2="326.6" y2="149"/>
<line class="st2" x1="254.5" y1="149" x2="259.8" y2="149"/>
<line class="st2" x1="292.3" y1="157.2" x2="326.6" y2="157.2"/>
<line class="st2" x1="254.5" y1="157.2" x2="260.3" y2="157.2"/>
<line class="st2" x1="308.8" y1="165.4" x2="326.6" y2="165.4"/>
<line class="st2" x1="254.5" y1="165.4" x2="259.8" y2="165.4"/>
<line class="st2" x1="323.4" y1="173.6" x2="326.6" y2="173.6"/>
<line class="st2" x1="254.5" y1="173.6" x2="259.8" y2="173.6"/>
<line class="st2" x1="323.4" y1="183.1" x2="326.6" y2="183.1"/>
<line class="st2" x1="254.5" y1="183.1" x2="259.8" y2="183.1"/>
<line class="st2" x1="323.4" y1="192.6" x2="326.6" y2="192.6"/>
<line class="st2" x1="254.5" y1="192.6" x2="259.8" y2="192.6"/>
<rect x="261.2" y="143.4" class="st2" width="12" height="50.1"/>
<rect x="277.6" y="152.8" class="st2" width="12" height="40.7"/>
<rect x="293.9" y="161.6" class="st2" width="12" height="31.9"/>
<rect x="310.3" y="172.9" class="st2" width="12" height="20.5"/>
<path class="st2" d="M52.3,31c-13-9.7-31.5-7.1-41.2,6S4,68.4,17,78.2s31.5,7.1,41.2-6c8.5-11.4,7.7-27.3-2-37.7"/>
<path class="st2" d="M20.9,68c7.4,7.6,19.6,7.8,27.2,0.3c7.6-7.4,7.8-19.6,0.3-27.2s-19.6-7.8-27.2-0.3c-6.6,6.5-7.7,16.7-2.6,24.4"
	/>
<circle class="st2" cx="34.7" cy="54.5" r="10.1"/>
<path class="st3" d="M290.9,254.8c3.2,0.5,4.7,3,4.7,6.5v0.7h-2.8v-0.9c0-2.4-1-3.8-3.1-3.8s-3,1.5-3,3.8c0,6,8.9,6,8.9,13.5
	c0,3.6-1.5,6.1-4.8,6.6v2h-2.4v-2c-3.3-0.5-4.8-3-4.8-6.6V273h2.8v1.8c0,2.4,1,3.8,3.1,3.8s3.1-1.4,3.1-3.8c0-5.9-8.9-6-8.9-13.5
	c0-3.6,1.5-6,4.7-6.5v-2.1h2.4V254.8z"/>
<path class="st2" d="M299.4,290.5c1.9-0.8,3.6-1.9,5.2-3.1"/>
<path class="st2" d="M281,245c-12.7,4.7-19.1,18.9-14.4,31.6c4.2,11.4,16.2,17.9,28,15.4"/>
<path class="st2" d="M307.7,284.6c9.2-10,8.5-25.5-1.5-34.7c-6.1-5.6-14.6-7.7-22.6-5.7"/>
<circle class="st2" cx="289.7" cy="268" r="20.1"/>
<g id="freepik--Character--inject-32">
	<path class="st4" d="M192,179.2l0.7-0.1c3-0.4,14.8-1.9,21.5-4.6c7.8-3.1,25.5-1.4,25.5-1.4l7.8,5.6l-8.8,5.8
		c0,0-12.5-4.2-21.1-3.8s-12.8,2.9-18.2,2.5s-12.1-4-12.1-4L192,179.2z"/>
	<polygon class="st5" points="158.8,161.6 158.8,173.2 178,173.2 178,159.8 	"/>
	<path class="st5" d="M153.6,150.4c0,0-4.5-3-3,2.3s3,7.3,5.3,7.1c2.3-0.2,3.5-1,2.8-3C157.9,154.7,153.6,150.4,153.6,150.4z"/>
	<path class="st5" d="M183.9,150.4c0,0,4.5-3,3,2.3s-3,7.3-5.3,7.1c-2.3-0.2-3.5-1-2.8-3S183.9,150.4,183.9,150.4z"/>
	<path class="st1" d="M163.4,126.2c0,0-7.6,2.5-10.1,9.6c-2.5,7.1-0.2,15.6,1,19.1s7.3,10.3,7.3,10.3h13.6c3.2-3.2,5.9-7,7.8-11.1
		c2.8-6.3,2.8-15.1,2.8-15.1s2.3,0.8,2.3-2.3s-7-8.8-7-8.8s3.3-1.3,1-3s-10.3-1-10.3-1S170.7,118.6,163.4,126.2z"/>
	<path class="st6" d="M193.2,415.6l2.1,1.3c1.3,0,2.6,0.5,3.6,1.3c1.3,1.3,0.8,7.7,0.8,7.7s-1,0.8-6,0.8S178,427.8,177,426
		s0.2-9.4,0.2-9.4L193.2,415.6z"/>
	<path class="st1" d="M136.6,252.9c0,0-1.6,11.4-1.6,13.7s-0.5,22.5-0.5,22.5s0.3,53,0.3,54s-4.4,15.5-2.8,25.4s4.6,47.6,4.6,47.6
		s-1,8.3-0.3,9c0.7,0.8,10.4,1.8,12.4,0.8c2.1-1,0.8-11.1,0.8-11.1c0.7-2.4,1.2-5,1.3-7.5V399c0-2.6,1.3-25.6,2.6-34.6
		s2.1-21.2,2.1-21.2l5.4-55.9l4.1-0.3c0,0,5.2,60,5.4,64.4c0.3,4.4-0.8,13.2,1.6,23.3c2.3,10.1,3.6,37.5,3.6,37.5s-0.5,2.6,0,3.6
		c0.5,1,1.8,4.1,1.8,4.1c1.8,0.2,3.6,0.2,5.4,0c2.9-0.1,5.7-0.9,8.3-2.3c1.9-1.5,2.6-4.1,1.7-6.4c-1.5-3.8-2.2-4.5-2.2-4.5
		s2.3-32.6,2.3-40.6s-1.3-17.8-1.3-18.6s1.5-59,1.5-64.9s-0.5-22-3.1-29s-44-5.2-48.1-4.9C139.6,248.9,137.4,250.6,136.6,252.9z"/>
	<line class="st7" x1="151.9" y1="286.9" x2="174.1" y2="285.9"/>
	<path class="st5" d="M164.8,172.7l-14,3.4c0,0-20.2,9.8-24.6,12.4c-4.4,2.6-21.7,37.5-20.9,39.3s4.1,4.1,7.5,4.7
		s20.5-18.8,20.5-18.8s4.9,24.3,4.9,25.3s-2.8,13.5-1.6,15.5c1.3,2.1,51,0,51,0s3.6,0.3,4.1-3.1s-1-13.2-1-13.2l5.7-29.7
		c0,0,10.9,16.5,13.3,19.1c4.2,4.6,9.5,2.7,12.3-0.8c2.5-3,0.3-8.8-0.5-10.6s-14.5-32.6-18.7-33.9s-21.5-7.5-21.5-7.5L164.8,172.7z"
		/>
	<path class="st5" d="M150.8,176.1c0,0,17.1-0.4,19.9-0.4c2.8,0,13.3-0.1,13.3-0.1l-2.6-5.6c-4.5-1.1-9.1-1.6-13.7-1.6
		c-4.9,0-9.8,0.9-14.5,2.6L150.8,176.1z"/>
	<polyline class="st8" points="128,199.9 133.2,213.6 124.2,204.5 	"/>
	<line class="st8" x1="126.2" y1="195.5" x2="126.9" y2="197.1"/>
	<path class="st8" d="M155.4,236.7c-0.9,0.7-1.8,1.4-2.7,2"/>
	<path class="st8" d="M179,197.5c0,0-9.4,25.8-22.1,37.8"/>
	<polyline class="st8" points="202.3,193.7 196.3,208.4 205.9,198.1 	"/>
	<path class="st5" d="M103,234.3c1.5,4.1,4.1,7.7,7.5,10.3c5.7,4.4,21,18.9,21,18.9c-0.2,0.8-0.2,1.6,0,2.3c0.3,1.3,4.4,4.6,4.4,4.6
		v-2.6l1-2.1l1-2.6c1.2-0.4,2.3-1,3.4-1.5c0.5-0.4,0.9-0.8,1.3-1.3c1.5,0.3,3.1,0.4,4.6,0.5c1.8,0,4.4-1.8,2.9-2.3s-3.1,0-5.2-1
		c-2.1-1-3.1-2.1-5.2-2.1h-5.4L120,232.2L103,234.3z"/>
	<path class="st5" d="M109.1,218.4c0,0-3,0.9-3.8,1.7s-4.7,6.7-3.9,9.8s1.8,7.5,8.5,8.8s10.4-1.5,10.9-2.3s1.8-9.9,0.8-9.9
		s-3.9,3.5-3.9,3.5s-7.7-1.7-9.2-3S109.1,218.4,109.1,218.4z"/>
	<path class="st5" d="M227.7,234.3c-1.5,4.1-4.1,7.7-7.5,10.3c-5.7,4.4-21,18.9-21,18.9c0.2,0.8,0.2,1.6,0,2.3c-0.3,1.3-6,5.3-6,5.3
		v-3.8l-0.4-2.4l-0.1-1.7c-1.2-0.4-2.3-1-3.4-1.5c-0.5-0.4-0.9-0.8-1.3-1.3c-1.5,0.3-3.1,0.4-4.6,0.5c-1.8,0-4.4-1.8-2.9-2.3
		s3.1,0,5.2-1s3.1-2.1,5.2-2.1h5.4l14.2-23.3L227.7,234.3z"/>
	<path class="st5" d="M222.7,219.6c0,0,1.9-0.4,2.7,0.4s4.7,6.7,3.9,9.8s-1.8,7.5-8.5,8.8s-10.4-1.5-10.9-2.3s-0.9-9.6-0.2-8.8
		c1,1,2.1,1.8,3.4,2.3c0,0,8-0.4,9.3-4.9C222.6,223.2,222.8,221.4,222.7,219.6z"/>
	<path class="st6" d="M148.8,425.9c1.6-0.8,1.2-7.3,0.9-10c-1.8,0.9-3.8,1.4-5.8,1.7c-2.5,0.3-5.1-0.2-7.2-1.5c0,0-0.8,9-0.1,9.8
		C137.2,426.7,146.7,426.9,148.8,425.9z"/>
</g>
</svg>
