<?xml version="1.0" encoding="utf-8"?>
<!-- Generator: Adobe Illustrator 23.0.5, SVG Export Plug-In . SVG Version: 6.00 Build 0)  -->
<svg version="1.1" id="Capa_1" xmlns="http://www.w3.org/2000/svg" xmlns:xlink="http://www.w3.org/1999/xlink" x="0px" y="0px"
	 viewBox="0 0 678 736.5" style="enable-background:new 0 0 678 736.5;" xml:space="preserve">
<style type="text/css">
	.st0{fill:#57317C;}
	.st1{fill:#E8422E;stroke:#000000;stroke-width:11;stroke-miterlimit:10;}
	.st2{fill:#F5D349;stroke:#000000;stroke-width:11;stroke-miterlimit:10;}
	.st3{fill:#F39C4D;stroke:#000000;stroke-width:11;stroke-miterlimit:10;}
	.st4{fill:#E8422E;}
	.st5{fill:#754A97;}
	.st6{fill:#9676B3;}
</style>
<path d="M655.4,134.7c-0.7-32.7-26.3-61.9-60-68.4c-1-0.2-2-0.8-2.9-1.2c-7,0-14,0-21,0c-7.1,2.5-14.7,3.7-21.5,7.3
	c-25.1,13-39,33.5-41.3,61.7c-0.3,3.8-1.5,5-5,4.6c-0.9-0.1-1.7,0-2.6,0c-165.4,0-330.8,0-496.3,0c0,139.9,0,279.8,0,419.8
	c102.8,0,484.8,0.3,587.6,0c0,0,0.1-276.3,0-340.6c0-4.4,0.6-6.5,5.9-7.7C633.4,202.1,656.1,171.7,655.4,134.7z M571.5,291.3
	c0,34.3-0.1,246-0.1,246c-90.9,0.1-447.5,0-538.5,0.2c-5.4,0-7.3-0.9-7.3-7c0.2-121.3,0.2-242.6,0-364c0-5.9,1.5-7.1,7.2-7.1
	c157.4,0.2,314.8,0.1,472.2,0.1c4.4,0,7.3,0.6,8.6,5.6c1.4,5.3,4.3,10,7.5,14.4c1.6,2.1,1.5,3.5-0.4,5.5
	c-19.7,19.6-39.3,39.2-58.9,58.9l-16.2,14.9l-16.3-15c-5-5.2-10.1-10.4-15.3-15.3l-31.4-27L351,228.6c-15.4,15.2-30.7,30.5-45.9,46
	l15.5,14.3c15-14.7,29.8-29.6,44.5-44.5l17.4-15.7l17.3,15.8c1.5,1.8,3.3,3.5,5.1,5.1l40.6,34.9l31.8-26.3
	c19.2-19.1,38.4-38.2,57.5-57.5c2.5-2.5,4.1-2.7,7-0.7c7,5,14.8,8.7,23.3,10c5.8,0.9,6.6,3.6,6.5,8.6
	C571.4,242.8,571.5,267,571.5,291.3z"/>
<path class="st0" d="M214.7,432c0-26,0.1-52-0.1-78c0-4.7,1.3-5.8,5.8-5.8c17.3,0.3,34.5,0.2,51.8,0c4.2-0.1,5.6,1,5.5,5.4
	c-0.2,52.4-0.2,104.9,0,157.3c0,4.4-1.3,5.5-5.5,5.4c-17-0.2-34.1-0.3-51.1,0c-5,0.1-6.6-1.1-6.6-6.4C214.9,484,214.7,458,214.7,432
	z M235.7,431.6c0,16.4,0,32.8,0,49.1c0,14.6,0,14.4,14.6,14.6c5,0.1,6.6-1,6.6-6.4c-0.3-34.7-0.1-69.5-0.1-104.2
	c0-15.7,0-15.5-15.6-15.6c-4.9,0-5.6,1.8-5.5,6.1C235.8,394.1,235.7,412.9,235.7,431.6z"/>
<path class="st0" d="M109.7,464c0,15.7-0.1,31.4,0.1,47.2c0,3.9-0.8,5.3-5,5.2c-17.7-0.2-35.4-0.2-53.1,0c-4.2,0.1-5-1.4-5-5.2
	c0.1-31.7,0.1-63.3,0-95c0-3.6,0.8-4.9,4.7-4.9c17.9,0.2,35.8,0.2,53.7,0c3.9,0,4.7,1.3,4.7,4.9C109.7,432.1,109.7,448,109.7,464z
	 M88.8,463.6c0-5.2,0-10.5,0-15.7c0-16,0-15.9-16.1-15.7c-4.2,0-5,1.5-5,5.3c0.2,14,0.1,27.9,0.1,41.9c0,16.6,0,16.4,16.4,16
	c3.9-0.1,4.7-1.4,4.6-4.9C88.6,481.5,88.8,472.6,88.8,463.6z"/>
<path class="st0" d="M193.7,474.5c0,12.2-0.1,24.5,0.1,36.7c0.1,3.9-0.8,5.3-5,5.2c-17.7-0.2-35.4-0.2-53.1,0
	c-4.2,0.1-5.1-1.3-5-5.2c0.2-24.7,0.1-49.3,0-74c0-3.6,0.8-4.9,4.7-4.9c17.9,0.2,35.8,0.2,53.7,0c3.8,0,4.8,1.3,4.7,4.9
	C193.6,449.6,193.7,462,193.7,474.5z M172.7,474.2c0-1.7,0-3.5,0-5.2c0-16,0-16-16.1-15.6c-0.7,0-1.3,0.1-2,0c-2.3-0.2-3,1-3,3.1
	c0.1,12,0,24,0,36c0,1.8,0.6,2.9,2.6,2.8c5.9-0.2,12.5,1.4,17.3-1c3.2-1.6,0.7-8.9,1.1-13.6C172.9,478.5,172.7,476.3,172.7,474.2z"
	/>
<path d="M162.5,201.5c-22.5,0-45-0.1-67.5,0.1c-4.5,0-6.5-0.5-6.4-5.9c0.3-15.2,0-15.2,15.3-15.2c41.7,0,83.4,0.1,125.1-0.1
	c5.6,0,6.9,1.6,6.7,6.9c-0.3,14.2-0.1,14.2-14.3,14.2C201.8,201.5,182.2,201.5,162.5,201.5z"/>
<path d="M161.9,243.4c-22.5,0-45-0.1-67.5,0.1c-4.7,0.1-5.8-1.3-5.7-5.9c0.1-15.2-0.1-15.2,15.3-15.2c41.7,0,83.4,0.1,125.1-0.1
	c5.5,0,6.9,1.5,6.8,6.9c-0.4,14.2-0.1,14.2-14.3,14.2C201.6,243.4,181.8,243.4,161.9,243.4z"/>
<path d="M162.2,285.4c-22.5,0-45-0.2-67.5,0.1c-5.1,0.1-6.1-1.5-6.1-6.2c0.2-14.9,0-14.9,15-14.9c41.9,0,83.9,0.1,125.8-0.1
	c5.3,0,6.5,1.6,6.4,6.6c-0.3,14.5,0,14.5-14.6,14.5C201.5,285.4,181.8,285.4,162.2,285.4z"/>
<path d="M161.5,327.4c-22.3,0-44.6-0.2-66.8,0.1c-5,0.1-6.1-1.4-6.1-6.2c0.2-14.9,0-14.9,15-14.9c41.9,0,83.9,0.1,125.8-0.1
	c5.3,0,6.5,1.6,6.4,6.6c-0.3,14.5,0,14.6-14.6,14.6C201.3,327.4,181.4,327.4,161.5,327.4z"/>
<path d="M57.6,201.5c-10.8,0-10.8,0-10.8-11c0-10,0-10,9.8-10c11.1,0,11.1,0,11.1,11.3C67.8,201.5,67.8,201.5,57.6,201.5z"/>
<path d="M46.8,232.4c0-9.9,0-9.9,9.9-9.9c11,0,11,0,11,10.7c0,1.5-0.2,3.1,0,4.6c0.7,4.6-1.2,6.4-5.7,5.7c-1.3-0.2-2.6,0-3.9,0
	C46.8,243.4,46.8,243.4,46.8,232.4z"/>
<path d="M67.8,274.9c0,10.5,0,10.5-12.6,10.5c-8.3,0-8.3,0-8.3-12.8c0-8.2,0-8.2,13-8.2C67.8,264.4,67.8,264.4,67.8,274.9z"/>
<path d="M67.8,316.7c0,10.7,0,10.7-12.4,10.7c-8.6,0-8.6,0-8.6-12.6c0-8.4,0-8.4,13.4-8.4C67.8,306.4,67.8,306.4,67.8,316.7z"/>
<path d="M614,386.8 M588.7,367.7 M614,386.8c46.7,42.1,66,94.3,55.9,156.6c-14.8,91.7-107.8,154.9-198.5,135.4
	c-72.7-15.6-125.3-73.5-133.4-147.3c-0.3-2.4-1.7-28.9-1.7-28.9c1.6-52,42.5-100.8,42.5-100.8c62.4-60.6,131.9-72,209.9-34.2
	C588.7,367.7,611,382.7,614,386.8"/>
<circle class="st1" cx="303.9" cy="279.7" r="32.1"/>
<circle class="st2" cx="372.3" cy="214.9" r="22.1"/>
<circle class="st3" cx="442.6" cy="264.4" r="22.1"/>
<path class="st4" d="M588.4,514.4c0.2-45.8-37.8-84-83.7-84.2c-45.8-0.2-84,37.9-84.2,83.7c-0.2,45.8,37.9,84,83.7,84.2
	C549.9,598.3,588.2,560.3,588.4,514.4z"/>
<path class="st0" d="M494.2,389.2c0-5.2-0.3-10.5,0.1-15.7c0.3-4.4-1.2-5.7-5.5-5.2c-16.4,1.9-32,6.4-46.9,13.3
	C371,414.3,338.4,500.6,370,571.9c1.9,4.4,3.5,6.1,8.3,2.9c8.2-5.4,16.8-10.1,25.5-14.7c4-2.1,4.8-3.8,3.1-8.4
	c-11.3-30-9.9-59.6,5.6-87.7c16.6-30.1,42.2-48.2,76.3-53.6c4.4-0.7,5.8-2.4,5.5-6.8C494,398.8,494.2,394,494.2,389.2z"/>
<path class="st5" d="M608.2,512.9c0.4,13.3-2.3,26-7.2,38.3c-1.4,3.6-1.4,5.5,2.4,7.5c9,4.8,18,9.8,26.6,15.4c4.6,3,6,1.4,7.8-2.8
	c7.4-17.2,11.9-35.2,12.1-53.9c0.5-50.8-19.6-91.8-60.1-122.5c-20.1-15.2-43-23.8-67.8-27.3c-8.3-1.2-8.3-1.1-8.3,7.3
	c0,9.2,0.3,18.4-0.1,27.5c-0.2,4.8,1.4,6.4,5.9,7.1C570.5,417.1,608.2,461.2,608.2,512.9z"/>
<path class="st6" d="M504,659.3c4.9-0.4,10.8-0.8,16.7-1.4c2.6-0.3,5.2-0.8,7.8-1.2c38.8-7,69.6-26.7,93.3-58
	c2.7-3.6,1.7-4.9-1.7-6.7c-8.8-4.8-17.6-9.7-26-15.1c-4.5-2.9-6.6-2-9.9,1.9c-20,24.1-45.8,37.4-77.2,38.4
	c-35.1,1.1-63.6-12.7-85.8-39.7c-2.6-3.1-4.2-3.2-7.4-1.3c-8.6,5.2-17.2,10.4-26.1,15c-4.9,2.5-5.6,4.4-2,9
	C415.4,638.4,454.7,657.7,504,659.3z"/>
<path class="st6" d="M581.6,190.9c-28.7-0.2-52.6-24.5-52.2-53c0.4-28.5,24.3-52,52.6-51.9c28.7,0.2,52.6,24.5,52.2,53
	C633.9,167.5,609.9,191.1,581.6,190.9z"/>
</svg>
