<?xml version="1.0" encoding="utf-8"?>
<!-- Generator: Adobe Illustrator 23.0.5, SVG Export Plug-In . SVG Version: 6.00 Build 0)  -->
<svg version="1.1" id="Capa_1" xmlns="http://www.w3.org/2000/svg" xmlns:xlink="http://www.w3.org/1999/xlink" x="0px" y="0px"
	 viewBox="0 0 678 736.5" style="enable-background:new 0 0 678 736.5;" xml:space="preserve">
<style type="text/css">
	.st0{fill:#754A97;}
	.st1{fill:#57317C;}
	.st2{fill:#F5D349;}
</style>
<g id="trMPfW.tif">
	<g>
		<path d="M8.3,482.2c3.3-20.2,7.8-40.1,16.6-58.7c29.9-63,79.1-101.3,147.6-114.5c19.8-3.8,39.7-3.5,59.6-1.1
			c4.9,0.6,6.8-0.3,6.7-5.8c-0.3-29-0.3-58,0-87c0.1-5.8-2-7.5-7.5-7.2c-5.8,0.4-11.6,0.1-17.4,0.1c-11.1-0.1-18.9-4.9-22.4-14
			c-3.9-10-1.2-18.6,6.2-25.8c14-13.6,28.1-27.2,42.2-40.7c26.7-25.6,53.4-51.1,80-76.7c12.3-11.8,24.5-11.9,36.7-0.2
			c40.4,38.8,80.9,77.6,121.3,116.5c9.6,9.2,11.7,19,6.4,29c-3.9,7.4-10.2,11.6-18.6,11.9c-7.3,0.2-14.6,0.2-21.9,0
			c-4-0.1-5.9,1.1-5.9,5.4c0.1,21.5,0.2,43,0,64.4c0,5.4,2.9,5.8,7,5.7c24.1-0.1,48.1,0,72.2,0c37.4,0,74.8,0,112.1,0
			c21.2,0,31.1,6.6,39.2,25.9c0,12.9,0,25.8,0,38.7c-5,13.5-13.8,22.9-28.6,24.6c-4.8,0.6-4.7,2.3-4.4,6.1c1.3,13,2.4,26.1-1.9,38.9
			c-1,3-0.3,4.8,2,6.7c4.8,4.2,8.8,9.3,9.9,15.5c2.4,14.2,3,28.6-0.5,42.7c-0.9,3.6-1.1,5.7,2,8.2c6,5,9.3,11.6,10.7,19.3
			c1.5,8.5,0.8,17.1,0.7,25.7c-0.2,14.5-6.4,25.7-19.7,32.1c-3.1,1.5-4,3-3.4,6.4c2,11.3,1.8,22.7,0.5,34c-0.4,3.4,0.4,5.5,3.9,6
			c15.1,2.2,24,11.4,28.9,25.2c0,12.9,0,25.8,0,38.7c-4.2,12.2-12.3,20.3-24.5,24.5c-79.1,0-158.2,0-237.2,0
			c-17.9-6.8-26.2-19.7-25-38.9c0.5-7.5,0.2-15,0.6-22.5c0.2-2.9-0.6-3.8-3.3-4.1c-5-0.4-9.8-2-13.8-4.8c-3.7-2.6-5.7-1.5-8.4,1.6
			c-20.8,24.5-46.3,42.5-75.9,54.8c-17.2,7.1-35.2,10.8-53.3,13.9c-14.2,0-28.4,0-42.5,0c-4.2-0.7-8.4-1.4-12.6-2.2
			c-67.8-13.4-117-50.9-146.9-113.4c-9.1-19-13.7-39.2-17.2-59.7C8.3,512.3,8.3,497.2,8.3,482.2z M206.3,635.6
			c65.9,1.2,131.1-51.5,131.3-130.8c0.2-74.1-57.8-131.3-130.8-131.4C127,373.3,74.6,438.8,75.3,504.7
			C76,577.8,133.3,635.6,206.3,635.6z M525.7,307.2c-23.6,0-47.2,0-70.9,0c-12.5,0-24.9-0.1-37.4,0.1c-8.3,0.1-11.7,3.5-11.9,11.8
			c-0.2,6.9,0,13.7,0,20.6c0.1,5.6,3.1,8.8,8.4,9.8c2.9,0.5,6,0.6,9,0.6c68.3,0,136.6,0,204.9,0c1.9,0,3.9,0.1,5.8-0.1
			c8.2-0.6,12-4.3,12.4-12.7c0.2-4.9,0.1-9.9,0.1-14.8c-0.1-11.9-3.5-15.4-15.4-15.4C595.7,307.2,560.7,307.2,525.7,307.2z
			 M525.5,680.2c10.5,0,21,0,31.6,0c24.7,0,49.4,0.1,74.1,0c10.8,0,14.7-4,14.8-14.8c0.1-3.6,0-7.3,0-11c0-14.1-3-17.1-16.9-17.1
			c-69.1,0-138.3,0-207.4,0c-1.5,0-3,0-4.5,0c-7.9,0.3-11.4,3.6-11.7,11.4c-0.2,5.1-0.1,10.3-0.1,15.5c0,13.3,2.7,16,16.4,16
			C456.4,680.3,491,680.2,525.5,680.2z M492.9,373.1c-18,0-36.1,0-54.1,0c-17.8,0-35.6-0.1-53.5,0.1c-9.1,0.1-12.3,4.1-13.3,12.9
			c-0.9,8.6,4,14.5,7.2,21.5c3,6.4,6.9,8.8,14.3,8.8c67.2-0.3,134.4-0.2,201.6-0.2c1.9,0,3.9,0.1,5.8,0c7.5-0.3,11.5-4.2,11.7-11.7
			c0.2-5.4,0.1-10.7,0.1-16.1c0-11.8-3.4-15.1-15.5-15.2C562.5,373,527.7,373.1,492.9,373.1z M515.1,547.7c35.7,0,71.3,0,107,0
			c9.2,0,12.4-3.3,12.6-12.4c0.1-5.8,0.1-11.6,0-17.4c-0.1-8.8-3.3-12.3-12-12.3c-70.2-0.1-140.5,0-210.7-0.1
			c-5.3,0-7.5,2.1-7.3,7.2c0.2,9.1-1.2,18-2.8,26.9c-1.4,8.1-1.4,8.2,6.9,8.2C444.2,547.7,479.7,547.7,515.1,547.7z M492.5,613.6
			c35.7,0,71.3,0,107,0c9.8,0,13.1-3.2,13.2-12.4c0.1-5.6,0.1-11.2,0-16.8c-0.1-9.3-3.6-12.9-12.9-12.9c-66.8,0-133.6,0-200.4-0.1
			c-4.8,0-6.9,1.9-8.4,6c-3.6,9.7-8.4,18.8-13.5,27.8c-3.2,5.5-2.1,7.6,4.2,8.3c2.3,0.3,4.7,0.2,7.1,0.2
			C423.3,613.6,457.9,613.6,492.5,613.6z M506.3,439.7c-35,0-70,0.1-105.1-0.1c-5.8,0-7.1,1.5-5.1,7.1c3.2,8.9,5.5,18.1,6.4,27.5
			c0.6,6.5,3.4,7.8,9.4,7.8c60.8-0.2,121.6-0.1,182.4-0.1c6.2,0,12.5,0.1,18.7-0.1c6.5-0.2,9.9-3.6,10.2-10c0.3-6,0.2-12,0.1-18
			c-0.1-11.7-2.3-14-14-14C575.1,439.6,540.7,439.7,506.3,439.7z"/>
		<path class="st0" d="M194.9,546.7c0-8.2-0.2-16.3,0.1-24.5c0.2-4.8-1.2-7.1-6-8.8c-38.4-13.3-50.6-59-24.2-89.7
			c6.5-7.5,14.5-12.7,23.9-15.7c3.4-1.1,5.9-2.5,7.1-6.4c1.4-4.7,5.3-7.2,10.3-7.3c5.3-0.1,9.3,2.4,10.9,7.4
			c1.2,3.5,3.3,5.1,6.5,6.2c23.5,8.4,35.9,25.4,38.4,49.9c0.8,7.8-3.6,13.7-10.5,14.4c-6.8,0.7-12.1-4.2-12.8-12.2
			c-0.8-10.7-5.4-19.3-14.1-25.7c-1.5-1.1-3.1-2.9-5.2-1.8c-1.7,0.9-1.1,3.1-1.1,4.7c0,17,0.1,33.9-0.1,50.9
			c-0.1,4.4,1.7,6.3,5.8,7.8c23.1,8.1,38.4,29.5,38.2,52.9c-0.2,23.9-15.5,44.7-39.1,52.9c-3,1.1-5.1,2.3-6.1,5.7
			c-1.5,5-5.4,7.7-10.7,7.8c-5.3,0.1-9.5-2.5-10.8-7.5c-1.1-4.1-3.8-5.2-7.1-6.3c-22.6-8.1-37.8-28.8-37.6-51.1
			c0.1-7.8,3.8-12.5,10.4-13c6.9-0.5,11.5,3.7,12.4,11.7c1.2,11,5.4,20.3,14.9,26.5c1.5,1,3.2,2.9,5.2,1.7c1.7-1,0.9-3.2,0.9-4.8
			C194.9,563.8,194.9,555.3,194.9,546.7z M194.8,460.8c0-8.4-0.1-16.7,0-25.1c0.1-4.4-1.8-4.8-5-2.7c-10.2,6.5-15.9,15.9-15.7,27.8
			c0.2,11.8,5.7,21.3,16.2,27.6c3.1,1.8,4.6,1.6,4.6-2.5C194.8,477.6,194.8,469.2,194.8,460.8z M238.8,548.7
			c-0.7-11.7-5.7-21-15.6-27.4c-2.9-1.9-4.8-2-4.8,2.2c0,16.7,0,33.4,0,50.2c0,4.1,1.8,4.3,4.7,2.3
			C233.1,569.6,238,560.3,238.8,548.7z"/>
	</g>
</g>
<path class="st1" d="M461,184.5c-1.5-2-2-2.7-2.5-3.3c-38.5-37.1-77.1-74.1-115.5-111.3c-4.2-4.1-6.5-4.2-10.8,0
	c-28,27.2-56.5,54-84.5,81.4c-10.7,10.4-20.3,22-30.7,33.3c6.5,0,14.3-0.1,22.2,0c10.8,0.2,19.2,7.3,21.3,17.9
	c0.7,3.6,0.9,7.2,0.9,10.9c0.1,30.9,0,61.9,0,92.8c0,3.7-0.4,7.2,4.4,8.8c31.5,10,58.7,27.1,81.8,50.8c2.1,2.2,3.3,2.7,5.3-0.4
	c5.8-9.3,14.2-14.8,25.2-15.7c2.6-0.2,3.8-1.1,3.4-4c-1.5-9.8-0.7-19.7-0.6-29.6c0.1-14.7,10-28.1,24.3-31.2
	c7.4-1.6,8.4-5.1,8.3-11.5c-0.3-21-0.1-42.1-0.1-63.2c0-15.8,10.2-27,26.1-25.8C446.2,184.9,452.8,184.5,461,184.5z"/>
<path class="st2" d="M193.2,338c0-10.1-0.4-10.7-8.4-9.7c-30.6,3.8-58.7,14.4-83.6,32.8c-12.3,9.1-12.2,9-1.6,19.8
	c3.2,3.3,5.2,3.6,8.9,0.6c21.9-17.6,46.9-28.3,74.8-32.2C193.2,347.9,193.2,348.1,193.2,338z"/>
<path class="st2" d="M369.2,513.9c-10.3,0-10.3,0-11.4,8.5c-3.2,26.1-12.9,49.7-28.3,71c-7.3,10.1-7.3,10.1,1.5,18.9
	c5.5,5.5,5.5,5.5,10.5-0.7c20.2-25.5,32.5-54.4,36.8-86.7C379.7,514.2,379.7,513.9,369.2,513.9z"/>
<path class="st2" d="M193.2,666.6c0-9.9,0-9.7-10-11.2c-24.9-3.7-47.7-12.6-68.1-27.3c-11.6-8.3-11.4-8.2-21.5,1.7
	c-3.8,3.7-2.8,5.5,0.8,8.4c12,9.5,24.9,17.5,38.9,23.9c17,7.7,34.8,12.1,53.2,14.5c5,0.6,7.5-0.8,6.8-6.2
	C193,669.2,193.2,667.9,193.2,666.6z"/>
<path class="st2" d="M40.3,513.9c-10.1,0-10.6,0.3-9.8,6.9c3.7,31.6,14.8,60.3,33.7,86c8.3,11.3,8.1,11,18.2,1.7
	c4.7-4.3,4.1-7,0.4-11.5c-17-21.3-27-45.7-31.1-72.6C50,513.9,50.2,513.9,40.3,513.9z"/>
<path class="st2" d="M216.7,338c0,10,0.1,10.2,8.1,11.2c26.3,3.4,50,13.1,71.4,28.7c9.5,6.9,9.5,6.9,17.8-1.4c6-6,6-6.1-0.8-11.4
	c-25.2-19.7-53.6-32-85.4-36.1C217.1,327.5,216.7,327.5,216.7,338z"/>
<path class="st2" d="M368.9,490.3c10,0,10.7-0.6,9.7-8.4c-4.1-31.7-15.5-60.5-34.9-86c-7-9.1-6.9-9.1-14.8-1.3
	c-1.1,1.1-2,2.3-3.2,3.2c-3.7,2.7-2.9,5-0.3,8.3c17.4,21.7,28.1,46.5,32.2,74C359.1,490.3,359,490.3,368.9,490.3z"/>
<path class="st2" d="M37.4,490.3c7.8-0.1,13.3,1.4,14.1-7.1c2.8-26.6,12.8-50.5,28.5-72.2c7.1-9.8,7.1-9.8-1.6-18.4
	c-5.7-5.7-5.7-5.7-10.9,1c-19.8,25.4-32.2,54-36.3,86.1C29.8,490.3,29.7,490.3,37.4,490.3z"/>
<path class="st2" d="M216.7,667.3c0.8,3.6-2.6,10.4,6.4,9.4c31.5-3.8,60.3-14.7,85.8-33.7c11.4-8.4,11.2-8.3,1.2-18.6
	c-3.5-3.7-5.7-4.1-9.9-0.7c-21.6,17.3-46.2,27.7-73.5,31.8C216.8,656.9,216.7,656.9,216.7,667.3z"/>
</svg>
