<?xml version="1.0" encoding="utf-8"?>
<!-- Generator: Adobe Illustrator 23.0.5, SVG Export Plug-In . SVG Version: 6.00 Build 0)  -->
<svg version="1.1" id="LOGOTYPES" xmlns="http://www.w3.org/2000/svg" xmlns:xlink="http://www.w3.org/1999/xlink" x="0px" y="0px"
	 viewBox="0 0 2423.5 590.2" style="enable-background:new 0 0 2423.5 590.2;" xml:space="preserve">
<style type="text/css">
	.st0{fill:#FFFFFF;}
</style>
<g>
	<path class="st0" d="M417.9,488.3c-28.3,1.9-45.3,1.9-61-0.6c-10.7-1.3-16.4-7.5-22-23.9c-6.3-18.9-12-37.8-18.2-56.6
		c-6.3-18.2-13.8-23.3-32.7-23.3H151.7c-18.9,0.6-25.2,6.9-32.7,30.2c-4.4,15.1-10.1,32.7-17.6,54.1c-5,13.9-14.5,20.8-28.3,20.8
		c-18.9,0-37.8,1.3-56.6-0.6C1.4,486.4-3,478.8,2,461.2l41.5-129c29.6-91.9,59.8-183.1,89.3-275C139.2,39,146.1,34,165.6,34h57.3
		c17,0.6,38.4-1.3,59.8,0.6c10.7,1.3,17,8.2,22.7,25.2C348.1,190.6,390.2,321.5,433,453c1.3,5,2.5,10.7,3.8,17.6
		C438.7,482,433,487.6,417.9,488.3z M246.8,286.9c21.4-0.6,27.1-8.2,21.4-28.3c-3.8-12-7.6-25.2-13.2-41.5
		c-8.8-25.2-15.1-51.6-27.1-76.1c-1.9-3.8-3.8-8.8-8.8-8.8c-3.8,0-6.3,2.5-9.4,8.8c-16.4,39.6-28.3,80.5-40.9,120.8
		c-5,17,1.3,25.2,20.1,25.2H246.8z"/>
	<path class="st0" d="M777.9,289.4v166.1c0,5,0,9.4-1.3,13.8c-1.9,12.6-6.3,17-21.4,17.6c-17,1.3-34,1.3-50.3,0
		c-17-0.6-22.7-8.2-22.7-25.2V299.5c0-12.6-0.6-24.5-3.1-37.1c-3.8-16.4-13.8-27.1-30.8-29.6c-17-2.5-34-3.1-50.3,0
		c-20.1,4.4-31.5,18.2-32.7,43.4c-2.5,59.1,0,118.9-0.6,178.1c0,5-0.6,10.1-1.3,15.1c-1.9,12.6-6.9,17-21.4,17.6
		c-16.4,1.3-33.3,1.3-50.3,0c-17-0.6-22.7-7.6-22.7-25.2V176.2c0-17.6,5.7-24.5,23.9-25.2c17.6-1.3,35.2-1.9,53.5,0.6
		c12,1.3,17.6,8.8,17.6,23.9c0.6,3.8-1.3,8.2,1.9,10.1c4.4,1.9,7.5-1.9,10.7-4.4c13.8-9.4,25.2-22,40.3-28.9
		c21.4-10.1,44-8.2,66.1-7.6c18.2,0.6,35.9,2.5,52.9,10.7c25.8,12,34.6,34.6,38.4,60.4C778.5,239.7,777.9,264.9,777.9,289.4z"/>
	<path class="st0" d="M1164.3,307c-0.6,44.7-0.6,88.7-0.6,133.4c0.6,72.4-42.8,117.7-91.9,138.4c-22,10.1-46.6,10.7-70.5,10.7
		c-35.2,0.6-70.5,0.6-105.7,0.6c-18.2,0-23.3-5-23.9-23.3c0-10.1-0.6-20.1,0-29.6c1.3-17,8.8-23.9,25.8-24.5
		c32.7-0.6,65.4-0.6,98.2-1.3c13.8,0,28.3-1.3,42.2-5c20.8-5.7,30.2-18.2,31.5-40.9l0.6-10.7c0-12.6-3.1-15.1-15.7-13.2
		c-23.3,4.4-45.3,13.8-68.6,16.4c-42.8,5-85.6,5-125.2-13.8c-28.3-13.8-40.3-39.6-44.7-68c-8.8-54.1-10.1-107.6,3.1-161.1
		c9.4-36.5,34-57.9,71.1-64.8c38.4-7.5,78-8.8,117,0c16.4,3.8,28.9,14.5,43.4,22.7l5,2.5c8.2,4.4,12.6,1.9,13.2-7.5
		c1.3-14.5,3.1-16.4,17.6-17c19.5,0,39.6-1.3,59.8,1.3c13.2,1.3,18.2,9.4,18.2,27.1V307z M1067.4,337.2c3.8-22,3.8-44.1,0.6-65.4
		c-3.1-22-13.2-37.8-35.9-43.4c-15.7-4.4-31.5-4.4-47.8-5l-27.1,1.9c-28.3,3.1-44.1,15.7-49.1,42.8c-4.4,22.6-3.8,46.6,0,69.2
		c3.8,22.6,16.4,36.5,38.4,40.9c24.5,5,49.7,5,74.3,1.3C1050.5,375,1063,363,1067.4,337.2z"/>
	<path class="st0" d="M1525.6,336c-0.6,11.3-8.2,17-24.5,17h-176.2c-10.7,0.6-15.1,4.4-17,15.1c-1.9,8.2-2.5,17-1.3,25.2
		c1.9,13.2,12,21.4,30.2,23.9c32.1,4.4,64.2,1.9,96.3,1.3c25.2-0.6,37.8,9.4,37.8,35.2c0,6.9,0.6,13.8-1.3,21.4
		c-3.1,13.8-13.2,21.4-29.6,20.8c-39.6,0-79.9,1.9-120.2-1.9c-31.5-3.1-62.9-8.2-88.1-30.8c-19.5-18.2-27.7-42.2-31.5-68
		c-7.6-56.6-8.8-112.6,3.8-168.6c11.3-47.2,44-70.5,90-76.8c47.2-6.9,95-7.6,142.2,1.3c49.7,9.4,74.9,41.5,83.7,89.4
		C1525.6,271.8,1526.9,303.9,1525.6,336z M1340,222.1c-28.9,1.9-39.6,13.8-38.4,42.8c0.6,19.5,10.1,28.3,29.6,28.3h75.5
		c14.5-0.6,17.6-3.1,17-15.7l-1.3-19.5c-0.6-18.9-8.8-29.6-27.1-33.4C1377.1,220.2,1358.2,220.8,1340,222.1z"/>
	<path class="st0" d="M2074.4,302.6V465c0,16.4-7.6,23.3-23.3,23.3c-16.4,0.6-32.7,0.6-49.1,0c-15.1,0-22-7.6-22-22
		c-0.6-56-0.6-112-0.6-168c0-10.1-0.6-20.8-2.5-30.8c-4.4-23.3-16.4-33.3-40.3-35.2c-12-0.6-23.3-0.6-34.6,1.3
		c-23.9,3.8-34.6,16.4-35.9,44c-3.1,58.5-0.6,117-1.3,176.2c0,5,0,10.7-0.6,15.7c-1.3,11.3-6.9,17-18.2,18.2
		c-18.9,1.9-37.1,1.9-56,0.6c-15.1-1.3-20.1-8.8-20.1-26.4l-0.6-163c0-11.3,0-23.3-2.5-34.6c-4.4-18.9-14.5-28.3-33.3-31.5
		c-14.5-1.9-29.6-1.9-44,0.6c-20.8,3.8-31.5,17-32.7,42.2c-3.1,49.7-0.6,99.4-1.3,149.1c-0.6,13.8,0,28.3-0.6,42.8
		c-1.3,13.8-6.3,19.5-20.1,20.8c-18.2,1.3-36.5,1.3-54.7,0c-14.5-1.9-20.1-8.8-20.1-25.8V176.2c1.3-16.4,6.9-23.3,22.7-23.9
		c18.2-1.3,37.1-0.6,55.4,0c8.2,0.6,13.8,5.7,15.7,13.8c1.3,5,2.5,9.4,4.4,14.5c1.9,4.4,5.7,5,9.4,2.5c3.8-3.1,8.2-6.3,11.3-10.1
		c22.6-24.5,52.2-28.9,83.1-27.7c10.1,0.6,20.1,0.6,29.6,2.5c17,3.1,30.8,11.3,42.2,24.5c13.2,17,23.3,17.6,39,3.1
		c23.3-23.3,52.2-30.2,84.3-30.2c17.6,0,35.2,0,52.2,3.8c38.4,7.6,56.6,27.1,62.3,67.3C2075.6,245.4,2074.4,274.3,2074.4,302.6z"/>
	<path class="st0" d="M2415.6,366.8c0,33.4,0.6,66.1,0,99.4c0,14.5-7.5,21.4-22.6,22c-12.6,0.6-25.8,0.6-38.4,0
		c-17-0.6-30.8-15.7-30.8-34v-1.9l-1.3,1.3c-28.3,35.2-66.1,43.4-108.9,40.9c-17.6-0.6-35.2-1.3-52.9-5
		c-30.2-6.9-47.2-25.2-51.6-55.4c-5-28.9-5-58.5,0.6-88.1c6.3-34,25.8-52.2,63.6-58.5c50.3-7.6,100.7-10.1,149.8,8.8
		c0.6,0,1.3-0.6,1.3-0.6c0-15.1,0.6-30.2-6.9-44.1c-7.6-15.7-22.7-19.5-38.4-21.4c-34-3.8-67.3,0-100.7,8.8
		c-12.6,3.8-20.8-0.6-26.4-13.2c-5-11.3-8.2-22.7-10.7-34.6c-3.1-12,1.3-19.5,12.6-24.5c32.1-13.2,65.4-19.5,100-19.5
		c27.7,0,55.4-0.6,81.8,8.2c41.5,13.8,76.8,60.4,79.3,104.4C2417.5,295.1,2415.6,331,2415.6,366.8z M2325.6,354.2
		c0-1.3-0.6-1.9-1.9-2.5c-28.3-13.8-57.9-13.2-88.1-10.1c-16.4,1.3-30.8,6.3-35.2,25.2c-3.1,11.3-3.1,22.7-1.3,34.6
		c2.5,15.7,9.4,22,24.5,25.2c9.4,1.9,18.9,1.9,28.3,2.5l30.2-1.9c24.5-2.5,37.1-13.2,41.5-34C2326.3,380,2325.6,367.5,2325.6,354.2z
		"/>
</g>
</svg>
