<?xml version="1.0" encoding="utf-8"?>
<!-- Generator: Adobe Illustrator 23.0.5, SVG Export Plug-In . SVG Version: 6.00 Build 0)  -->
<svg version="1.1" id="Capa_1" xmlns="http://www.w3.org/2000/svg" xmlns:xlink="http://www.w3.org/1999/xlink" x="0px" y="0px"
	 viewBox="0 0 353.2 500" style="enable-background:new 0 0 353.2 500;" xml:space="preserve">
<style type="text/css">
	.st0{fill:#7516B2;stroke:#FFFFFF;stroke-linecap:round;stroke-linejoin:round;}
	.st1{fill:#440068;stroke:#FFFFFF;stroke-linecap:round;stroke-linejoin:round;}
	.st2{fill:#FFFFFF;stroke:#440068;stroke-linecap:round;stroke-linejoin:round;}
	.st3{fill:#263238;}
	.st4{fill:#FFFFFF;stroke:#263238;stroke-linecap:round;stroke-linejoin:round;}
	.st5{fill:#7D7D7D;stroke:#263238;stroke-linecap:round;stroke-linejoin:round;}
	.st6{fill:#263238;stroke:#263238;stroke-linecap:round;stroke-linejoin:round;}
	.st7{fill:none;stroke:#707070;stroke-linecap:round;stroke-linejoin:round;}
	.st8{fill:none;stroke:#FFFFFF;stroke-linecap:round;stroke-linejoin:round;}
	.st9{fill:none;stroke:#263238;stroke-linecap:round;stroke-linejoin:round;}
</style>
<g id="freepik--question-marks-2--inject-31">
	<path class="st0" d="M309.2,335.6v-3.7c0-19.2,24.3-20,24.3-33.7c0-5.9-4.8-9.8-12-9.8c-7.9,0-12.8,4.3-12.8,10.4v1.5
		c0,1.5-0.8,2.2-2.3,2.2l-14.8-0.6c-1.4,0-2.3-0.7-2.3-1.6v-1.5c0-16.7,13.3-28.2,32.7-28.2c19.1,0,31.3,10.8,31.3,26.9
		c0,22.9-24.7,23.1-24.7,35.6v2.5c0.1,1.2-0.7,2.2-1.9,2.3c-0.2,0-0.3,0-0.5,0h-14.6c-1.2,0.1-2.2-0.7-2.3-1.9
		C309.1,336,309.1,335.8,309.2,335.6z M307.9,357.9c0-6.1,5.4-11.1,11.9-11.1c6.2,0,11.7,5,11.7,11.1c0,6.1-5.6,11.1-11.9,11.1
		S307.9,364,307.9,357.9L307.9,357.9z"/>
	<path class="st1" d="M17.3,177.5v-3.2c0-16.7,21.1-17.4,21.1-29.3c0-5.2-4.2-8.5-10.4-8.5c-6.8,0-11.1,3.7-11.1,9v1.3
		c0,1.3-0.7,1.9-2,1.9L2,148.2c-1.2,0-2-0.6-2-1.4v-1.3C0,131,11.5,121,28.4,121c16.6,0,27.2,9.4,27.2,23.4c0,19.9-21.5,20-21.5,31
		v2.2c0.1,1-0.6,1.9-1.6,2c-0.1,0-0.3,0-0.4,0H19.4c-1,0.1-1.9-0.6-2-1.6C17.3,177.7,17.3,177.6,17.3,177.5z M16.2,196.8
		c0-5.3,4.7-9.6,10.3-9.6c5.4,0,10.2,4.3,10.2,9.6s-4.8,9.6-10.3,9.6C21,206.5,16.4,202.2,16.2,196.8L16.2,196.8z"/>
	<path class="st1" d="M286,49.8v-1.6c0-8.4,10.7-8.8,10.7-14.8c0-2.6-2.1-4.3-5.3-4.3c-3.5,0-5.6,1.9-5.6,4.6v0.7c0,0.7-0.4,1-1,1
		l-6.5-0.2c-0.6,0-1-0.3-1-0.7v-0.7c0-7.3,5.8-12.4,14.4-12.4c8.4,0,13.8,4.7,13.8,11.8c0,10-10.9,10.1-10.9,15.6v1.1
		c0.1,0.5-0.3,1-0.8,1c-0.1,0-0.2,0-0.2,0H287c-0.5,0.1-1-0.3-1-0.8C286,49.9,286,49.8,286,49.8z M285.4,59.5
		c-0.2-2.9,2-5.3,4.8-5.5c2.9-0.2,5.3,2,5.5,4.8c0.2,2.9-2,5.3-4.8,5.5c-0.1,0-0.2,0-0.4,0C287.8,64.5,285.5,62.3,285.4,59.5
		C285.4,59.5,285.4,59.5,285.4,59.5z"/>
	<path class="st2" d="M59.9,420.2v-2.1c0-10.6,13.4-11.1,13.4-18.6c0-3.3-2.7-5.4-6.7-5.4c-4.4,0-7.1,2.4-7.1,5.7v0.8
		c0,0.8-0.5,1.2-1.3,1.2l-8.2-0.3c-0.8,0-1.3-0.4-1.3-0.9v-0.8c0-9.2,7.3-15.6,18.1-15.6c10.5,0,17.3,6,17.3,14.9
		c0,12.7-13.7,12.8-13.7,19.7v1.4c0.1,0.6-0.4,1.2-1,1.3c-0.1,0-0.2,0-0.3,0h-8.1c-0.6,0.1-1.2-0.4-1.3-1
		C59.9,420.3,59.9,420.3,59.9,420.2z M59.2,432.5c-0.2-3.6,2.5-6.7,6.1-7c3.6-0.2,6.7,2.5,7,6.1c0.2,3.6-2.5,6.7-6.1,7
		c-0.2,0-0.3,0-0.5,0C62.2,438.7,59.3,436,59.2,432.5L59.2,432.5z"/>
	<path class="st0" d="M75.8,82.7v-1.4c0-7.3,9.2-7.6,9.2-12.8c0-2.2-1.8-3.7-4.6-3.7c-3,0-4.9,1.6-4.9,3.9v0.6
		c0,0.6-0.3,0.8-0.9,0.8l-5.6-0.2c-0.5,0-0.9-0.3-0.9-0.6v-0.6c0-6.4,5-10.7,12.4-10.7s11.8,4.1,11.8,10.2c0,8.7-9.4,8.8-9.4,13.6
		v0.9c0.1,0.4-0.3,0.8-0.7,0.9c-0.1,0-0.1,0-0.2,0h-5.6c-0.4,0-0.8-0.3-0.8-0.8C75.8,82.8,75.8,82.8,75.8,82.7z M75.3,91.2
		c-0.1-2.5,1.7-4.6,4.2-4.7c2.5-0.1,4.6,1.7,4.7,4.2c0.1,2.5-1.7,4.6-4.2,4.7c-0.1,0-0.2,0-0.2,0C77.4,95.5,75.4,93.6,75.3,91.2
		L75.3,91.2z"/>
	<path class="st2" d="M240.5,387.9v-1.4c0-7.3,9.2-7.6,9.2-12.8c0-2.2-1.8-3.7-4.6-3.7c-3,0-4.9,1.6-4.9,3.9v0.6
		c0,0.6-0.3,0.8-0.9,0.8l-5.6-0.2c-0.5,0-0.9-0.3-0.9-0.6v-0.6c0-6.4,5-10.7,12.4-10.7c7.4,0,11.9,4.1,11.9,10.3
		c0,8.7-9.4,8.8-9.4,13.5v0.9c0.1,0.4-0.3,0.8-0.7,0.9c-0.1,0-0.1,0-0.2,0h-5.6c-0.4,0.1-0.9-0.2-0.9-0.6
		C240.5,388,240.5,387.9,240.5,387.9z M240.1,396.3c-0.1-2.5,1.7-4.6,4.2-4.7c2.5-0.1,4.6,1.7,4.7,4.2c0.1,2.5-1.7,4.6-4.2,4.7
		c-0.1,0-0.2,0-0.2,0C242.1,400.6,240.1,398.7,240.1,396.3L240.1,396.3z"/>
	<path class="st2" d="M295.4,178.6v-3.9c0-20.2,25.5-21,25.5-35.4c0-6.2-5.1-10.3-12.7-10.3c-8.3,0-13.5,4.5-13.5,10.9v1.6
		c0,1.6-0.9,2.3-2.5,2.3l-15.5-0.6c-1.5,0-2.5-0.7-2.5-1.8v-1.6c0-17.5,13.9-29.6,34.4-29.6c20,0,32.9,11.3,32.9,28.3
		c0,24.1-26,24.2-26,37.4v2.6c0.1,1.2-0.7,2.3-1.9,2.5c-0.2,0-0.4,0-0.5,0h-15.3c-1.2,0.1-2.3-0.8-2.4-2
		C295.3,179,295.3,178.8,295.4,178.6z M294,202c-0.5-6.9,4.7-12.8,11.6-13.2c6.9-0.5,12.8,4.7,13.2,11.6c0.5,6.9-4.7,12.8-11.6,13.2
		c-0.3,0-0.6,0-0.9,0C299.8,213.8,294.2,208.6,294,202L294,202z"/>
	<path class="st0" d="M87.9,329v-1.4c0-7.3,9.2-7.6,9.2-12.8c0-2.2-1.8-3.7-4.6-3.7c-3,0-4.9,1.6-4.9,3.9v0.6c0,0.6-0.3,0.8-0.9,0.8
		l-5.6-0.2c-0.5,0-0.9-0.3-0.9-0.6V315c0-6.4,5-10.7,12.4-10.7s11.8,4.1,11.8,10.2c0,8.7-9.4,8.8-9.4,13.6v0.9
		c0.1,0.4-0.3,0.8-0.7,0.9c-0.1,0-0.1,0-0.2,0h-5.6c-0.4,0-0.8-0.3-0.8-0.8C87.9,329.1,87.9,329.1,87.9,329z M87.4,337.5
		c-0.1-2.5,1.7-4.6,4.2-4.7c2.5-0.1,4.6,1.7,4.7,4.2c0.1,2.5-1.7,4.6-4.2,4.7c-0.1,0-0.2,0-0.2,0C89.5,341.8,87.5,339.9,87.4,337.5
		L87.4,337.5z"/>
</g>
<g id="freepik--question-mark-1--inject-31">
	<path class="st3" d="M196.9,413.2c-0.1-0.2-0.2-0.5-0.2-0.7c-0.1-0.2-0.2-0.5-0.2-0.7c-0.1-0.2-0.2-0.5-0.2-0.7
		c-0.1-0.2-0.2-0.5-0.2-0.7c-0.1-0.2-0.2-0.5-0.2-0.7c-0.1-0.2-0.2-0.5-0.2-0.7l-0.2-0.7c-0.1-0.2-0.2-0.5-0.2-0.7l-0.2-0.7
		c-0.1-0.2-0.2-0.5-0.2-0.7l-0.2-0.7c-0.1-0.2-0.2-0.5-0.2-0.7l-0.2-0.7c-0.1-0.2-0.2-0.5-0.2-0.7l-0.3-0.7
		c-0.1-0.2-0.2-0.5-0.2-0.7c-0.1-0.2-0.2-0.5-0.2-0.7c-0.1-0.2-0.2-0.5-0.2-0.7c-0.1-0.2-0.2-0.5-0.2-0.7
		c-3.6-11-14.8-19.1-27.2-19.1c-12,0-22.4,7-26.7,16.8c-0.1,0.2-0.2,0.5-0.3,0.7l-0.3,0.7c-0.1,0.2-0.2,0.4-0.3,0.7
		c-0.1,0.2-0.2,0.5-0.3,0.7l-0.3,0.7c-0.1,0.2-0.2,0.5-0.3,0.7s-0.2,0.4-0.3,0.7s-0.2,0.4-0.3,0.7l-0.3,0.7
		c-0.1,0.2-0.2,0.5-0.3,0.7c-0.1,0.2-0.2,0.5-0.3,0.7l-0.3,0.7c-0.1,0.2-0.2,0.4-0.3,0.7c-0.1,0.2-0.2,0.5-0.3,0.7l-0.3,0.7
		c-0.1,0.2-0.2,0.5-0.3,0.7c-0.1,0.2-0.2,0.4-0.3,0.7l-0.3,0.7c-0.1,0.2-0.2,0.5-0.3,0.7c-0.1,0.2-0.2,0.5-0.3,0.7
		c-1.9,4.1-2.9,8.5-2.9,13c0,17.9,15.5,32.6,34.6,32.6c18.7,0,35-14.6,35-32.6c0-3.4-0.6-6.8-1.8-10
		C197.1,413.7,197,413.4,196.9,413.2z"/>
	<path class="st3" d="M170.5,166.7c-57.4,0-96.5,33.8-96.5,83v4.5c0,1.5,0.8,2.9,2.1,3.6c0.2,0.2,0.5,0.4,0.8,0.6
		c0.2,0.2,0.5,0.4,0.8,0.6c0.2,0.2,0.5,0.4,0.8,0.6c0.2,0.2,0.5,0.4,0.8,0.6c0.2,0.2,0.5,0.4,0.8,0.6c0.2,0.2,0.5,0.5,0.8,0.6
		c0.2,0.2,0.5,0.4,0.8,0.6c0.2,0.2,0.5,0.4,0.8,0.6c0.2,0.2,0.5,0.4,0.8,0.6c0.3,0.3,0.5,0.5,0.9,0.7c0.2,0.2,0.5,0.4,0.7,0.6
		c0.2,0.2,0.5,0.4,0.8,0.6c0.2,0.2,0.5,0.4,0.8,0.6c0.2,0.2,0.5,0.4,0.8,0.6c0.2,0.2,0.5,0.4,0.8,0.6c0.2,0.2,0.5,0.4,0.8,0.6
		c0.2,0.2,0.5,0.4,0.8,0.6c0.2,0.2,0.5,0.4,0.8,0.6c0.2,0.2,0.5,0.4,0.8,0.6c0.2,0.2,0.5,0.4,0.8,0.6c1.3,1.1,3,1.7,4.7,1.6
		l35.8,1.3c3.7,0,5.7-1.7,5.7-5.4v-3.7c0-14.7,12-25.1,31.2-25.1c17.4,0,29.1,9.4,29.1,23.8c0,1.6-0.2,3.3-0.5,4.9
		c-18,23.6-64.7,33.9-64.7,79.6v11c0,4.5,2.4,6.9,6.9,6.9h43.1c4.5,0,6.9-2.4,6.9-6.9v-7.3c0-37,72.9-37.5,72.9-105
		C262.9,198.4,226.6,166.7,170.5,166.7z"/>
	<path class="st0" d="M133,358.4v-11c0-56.6,71.6-59,71.6-99.3c0-17.5-14.2-28.9-35.4-28.9c-23.2,0-37.8,12.6-37.8,30.5v4.5
		c0,4.5-2.4,6.5-6.9,6.5L80.9,259c-4.1,0-6.9-2-6.9-4.9v-4.5c0-49.3,39.1-83,96.5-83c56.2,0,92.4,31.7,92.4,79.4
		c0,67.6-72.9,68-72.9,105v7.3c0,4.5-2.4,6.9-6.9,6.9h-43.1C135.4,365.3,133,362.9,133,358.4z M129.3,424c0-17.9,15.9-32.6,35-32.6
		c18.3,0,34.6,14.7,34.6,32.6s-16.3,32.5-35,32.5C144.8,456.5,129.3,441.9,129.3,424z"/>
	<ellipse class="st3" cx="162.2" cy="479.4" rx="60.8" ry="13.6"/>
</g>
<g id="freepik--Character--inject-31">
	<path class="st4" d="M115.7,171.2l-2.3,5.1c0,0-13.5,1.5-13.5,2.5s0.1,8,0.9,8.3c0.6,0.2,1.2,0.2,1.7,0l19.9-5.1l1.9-9L115.7,171.2
		z"/>
	<path class="st4" d="M111.9,180.2c-2.5,2-5.1,3.8-8,5.3c-3.2,1.4-3.3,3.6-2.3,3.6c1,0,10.1-3.8,10.1-3.8s8.2-2.2,9.4-2.8
		c1.2-0.7,1.3-4.3,1.3-4.3"/>
	<polygon class="st1" points="127.6,73.6 119.3,137.3 113.5,171.8 126.3,174.8 135.9,134 140.4,108.4 	"/>
	<polygon class="st4" points="194.6,27.6 189.5,26.8 179.2,22.8 178.8,35.2 194.9,36.6 	"/>
	<path class="st5" d="M135.4,253.3c-3.8,4.4-7.3,9-10.6,13.8c-4.3,6.5-2.8,13.6,2.5,15.3c5.3,1.8,12.1-3,13.8-6.8
		c1.8-3.8,1.3-5.8,4-9.5c2.8-3.8,5-7.5,4-12.6C148.2,248.5,138.1,249.7,135.4,253.3z"/>
	<path class="st4" d="M140.7,276.6c-0.4-0.8-0.8-1.6-1.3-2.4c-4-7.1-11.1-6.5-15.6-5.2c-2.9,6-1.3,11.9,3.5,13.5
		S138.4,280.1,140.7,276.6z"/>
	<path class="st4" d="M139.4,274.1c-1.5,2.2-3.5,8.3-11.3,5.8c-2.2-0.6-4.1-1.8-5.6-3.5c0.3,2.8,2.2,5.1,4.9,6
		c5.3,1.8,12.1-3,13.8-6.8c1.8-3.8,1.3-5.8,4-9.5c2.8-3.8,5-7.5,4-12.6c0,6-2.2,7-5,10.3C141.4,267.1,140.9,271.9,139.4,274.1z"/>
	<path class="st5" d="M209.6,253.3c3.8,4.4,7.3,9,10.6,13.8c4.3,6.5,2.8,13.6-2.5,15.3c-5.3,1.8-12.1-3-13.8-6.8
		c-1.8-3.8-1.3-5.8-4-9.5c-2.8-3.8-5-7.5-4-12.6C196.8,248.5,206.9,249.7,209.6,253.3z"/>
	<path class="st4" d="M204.4,276.6c0.3-0.8,0.8-1.6,1.2-2.4c4-7.1,11.1-6.5,15.6-5.2c2.9,6,1.3,11.9-3.5,13.5
		C212.9,284,206.7,280.1,204.4,276.6z"/>
	<path class="st4" d="M205.6,274.1c1.5,2.2,3.5,8.3,11.3,5.8c2.2-0.6,4.1-1.8,5.6-3.5c-0.3,2.8-2.2,5.1-4.9,6
		c-5.3,1.8-12.1-3-13.8-6.8c-1.8-3.8-1.3-5.8-4-9.5c-2.8-3.8-5-7.5-4-12.6c0,6,2.2,7,5,10.3C203.6,267.1,204.1,271.9,205.6,274.1z"
		/>
	<path class="st6" d="M221.4,166.5c0-4.5-7.8-9.6-7.8-9.6c-11.7-11.9-32.9-10.4-40.8-9.3c-7.8-1.1-29-2.6-40.7,9.3
		c0,0-7.8,5-7.8,9.6c0,4.5,9.8,86.3,9.8,86.3s-0.3,4.3,6.8,4.8s10-3.5,10-3.5l2.8-69.2c0,0,11.3-8.1,13.4-8.3
		c0.7-0.1,1.7-0.3,2.8-0.4v0.1c2-0.4,4.1-0.4,6,0v-0.1c1.1,0.1,2,0.3,2.8,0.4c2,0.2,13.4,8.3,13.4,8.3l2.8,69.2c0,0,3,4,10,3.5
		c7-0.5,6.8-4.8,6.8-4.8S221.4,171,221.4,166.5z"/>
	<path class="st7" d="M192,184.8c0,0-1.5-16.6,5.8-22.9"/>
	<path class="st7" d="M153.8,184.8c0,0,0.8-13.8-0.8-18.9s-4-7-4-7"/>
	<path class="st7" d="M163.1,151.9c0,0,8,9.3,9.6,17.1"/>
	<path class="st7" d="M180.7,152.4c0,0-4.5,5-5,8.8"/>
	<path class="st0" d="M169.4,54.5c0,0-7.3-1-9.8,1.5c-2.5,2.5-11.1,11.8-11.1,11.8l4.5,80c0,0,10.3,4,19.1,4c8.8,0,18.9-3.3,21.1-5
		c2.3-1.8,0.3-87.5,0.3-87.5S174.8,53.8,169.4,54.5z"/>
	<path class="st1" d="M182.7,56.3c3.8-0.6,7.7-0.9,11.6-1c5,0,10,0.3,10,0.3l12.6-12.1l-25.3-5.8l2-11.6c0,0,18.6-1.3,27.9,0.5
		s23.9,6.3,24.7,6.3c0.8,0,1.8,2.8,1,4.8s-24.4,28.2-31.5,35c-4.6,4.5-9,9.3-13.1,14.3l-3.2,56.1c0,0,8.3,4.5,9.8,6
		c1.5,1.5,3.3,7.5,3.3,7.5s-15.3-6.3-19.4-6.8c-4-0.5-6.5-0.8-7.3-2.2s-7-68.7-7-68.7l0.3-21.4C179,57.6,178.9,56.3,182.7,56.3z"/>
	<polygon class="st8" points="197.8,90.8 184.2,92.5 185.5,97.5 192.3,99.3 198.8,96.3 	"/>
	<polyline class="st8" points="205.6,60.6 202.6,87 210.4,64.6 	"/>
	<path class="st8" d="M216.9,43.5c0,0,6.3,1.3,15.8-2.5"/>
	<path class="st8" d="M223.4,45.2c4.1,0.1,8.3-0.2,12.3-1"/>
	<path class="st4" d="M160.8,54.3l1.3,18.4c2.3,3.1,6,4.8,9.8,4.8c6.3-0.2,7-4.8,7-4.8V57.6L160.8,54.3z"/>
	<path class="st0" d="M179.2,63.8L178.7,79l5.3-8.3c0,0,5.8,7.3,7.3,7c1.5-0.2-1-3.3-1.5-6s-4.8-12.6-5.3-15.3s-5.3-3.3-5.6-2
		c-0.1,1.1-0.1,2.2,0,3.3L179.2,63.8z"/>
	<path class="st1" d="M161.8,77.4c0,0,1,70.4-1.5,71.2c-2.5,0.8-12.6,1-18.9,4c-6.3,3-9.3,4.3-9.3,4.3s3-7.3,6.5-10.6
		c2.3-2.1,5-3.9,7.8-5.3l-6.5-33.7c0,0-12.1-32-12.3-33.7c-0.3-1.8,22.9-14.8,27.7-17.1c4.8-2.3,6-0.2,6-0.2L161.8,77.4z"/>
	<path class="st0" d="M155.5,53c0,0-6,19.1-6.5,21.6c-0.5,2.5,0,2.5,1.8,0.7c1.8-1.8,6.3-6,6.3-6l4.8,8l-0.3-14.8V54
		C161.6,54,161.3,50.5,155.5,53z"/>
	<polygon class="st8" points="143.7,94.3 158.5,94.3 158.3,100.3 151.8,102.6 143.4,100.3 	"/>
	<path class="st4" d="M184.5,28.1c0,0,3.5,15.3,4.3,17.8c0.8,2.5-4,12.3-5.6,14.6c-1.2,2-3.3,3.3-5.6,3.5c-1.8,0-11.3-3.3-13.6-4.8
		c-2.3-1.5-4.5-3.3-4.5-3.3c-2.2,1-4.8,0.6-6.5-1c-3-2.8-7-6-6-8.3c1-2.3,3.3-3.7,5.8-3.5c2.8,0,1.8-0.3,1.8-0.3s-5-7.3-5-13.1
		s10.8-10,17.1-10c4.3,0.2,8.6,1.2,12.6,3L184.5,28.1z"/>
	<polyline class="st9" points="175.6,33.9 180.2,42.5 175.6,45.5 173.6,43 	"/>
	<path class="st9" d="M184,41.7c0,0,0.2,2-2.8,5.3"/>
	<path class="st3" d="M170.9,37.1c0,1.2-0.5,2.1-1.1,2.1c-0.6,0-1.1-1-1.1-2.1s0.5-2.1,1.1-2.1C170.4,34.9,170.9,35.9,170.9,37.1z"
		/>
	<path class="st3" d="M178.8,30.9c0.6,0,1.1,1,1.1,2.1c0,1.2-0.5,2.1-1.1,2.1c-0.6,0-1.1-1-1.1-2.1
		C177.7,31.8,178.2,30.9,178.8,30.9z"/>
	<path class="st6" d="M157.3,15c0,0-15.8,5.8-16.4,13.1s14.1,17.4,14.8,18.6c0.8,1.3,3-1.5,3-1.5c-1-1.4-1.4-3.1-1-4.8
		c0.8-2.5,4-5.6,4-6.8c0-1.2-3.8,1-3.8-2.8s9.3-6,14.8-5.8c5.5,0.2,10.3,9.6,14.3,5s-1.8-5.8-1.8-5.8s7.8-1,7.8-5s-4-6.8-5.8-6.8
		c-1.8,0-6.5,3-6.5-0.2s4.8-4.8,0.2-10c-4.5-5.2-10.3,0-10.3,2s-1.5,5.8-2.5,5.8s-4-4.5-7.5-2C158.7,9.7,157.4,12.3,157.3,15z"/>
	<line class="st9" x1="163.8" y1="34.4" x2="171.9" y2="31.4"/>
	<path class="st9" d="M173.1,27.9c-0.2-0.8,0-1.6,0.4-2.3"/>
	<path class="st8" d="M173.5,25.5c0.6-1.1,1.8-2.5,4.7-3.7"/>
</g>
</svg>
