<?xml version="1.0" encoding="utf-8"?>
<!-- Generator: Adobe Illustrator 23.0.5, SVG Export Plug-In . SVG Version: 6.00 Build 0)  -->
<svg version="1.1" id="Capa_1" xmlns="http://www.w3.org/2000/svg" xmlns:xlink="http://www.w3.org/1999/xlink" x="0px" y="0px"
	 viewBox="0 0 199 343.3" style="enable-background:new 0 0 199 343.3;" xml:space="preserve">
<style type="text/css">
	.st0{fill:#263238;}
	.st1{fill:#9331C0;stroke:#263238;stroke-linecap:round;stroke-linejoin:round;}
	.st2{fill:#FFFFFF;stroke:#263238;stroke-linecap:round;stroke-linejoin:round;}
	.st3{fill:#263238;stroke:#263238;stroke-linecap:round;stroke-linejoin:round;}
	.st4{fill:none;stroke:#636363;stroke-linecap:round;stroke-linejoin:round;}
	.st5{fill:none;stroke:#263238;stroke-linecap:round;stroke-miterlimit:10;}
	.st6{fill:none;stroke:#263238;stroke-linecap:round;stroke-linejoin:round;}
	.st7{fill:#8A8A8A;stroke:#263238;stroke-linecap:round;stroke-linejoin:round;}
	.st8{fill:#440068;stroke:#FFFFFF;stroke-linecap:round;stroke-linejoin:round;}
	.st9{fill:none;stroke:#949494;stroke-linecap:round;stroke-linejoin:round;}
	.st10{fill:#707070;stroke:#263238;stroke-linecap:round;stroke-linejoin:round;}
	.st11{fill:#440068;stroke:#263238;stroke-linecap:round;stroke-linejoin:round;}
</style>
<g id="freepik--Character--inject-2">
	<ellipse class="st0" cx="109.5" cy="328.3" rx="87.2" ry="9.8"/>
	<path class="st1" d="M108.8,307.7c0,0-5.7,8.3-7.5,9.8s-9.2,4.8-9.5,6s-0.9,2.1,0.3,3s15.5,1.2,18.2,1.2s4.5-2.7,5.7-3.6
		s4.8-3.6,6.9-5.1s8.3-5.1,8.6-7.1s-8-10.1-8-10.1L108.8,307.7z"/>
	<path class="st2" d="M92.1,326.4c1.2,0.9,15.5,1.2,18.2,1.2s4.5-2.7,5.7-3.6s4.8-3.6,6.9-5.1s8.3-5.1,8.6-7.1
		c0.1-0.8-0.9-2.2-2.2-3.9c-2.2,2.1-4.3,4.4-6.1,6.9c-2.7,3.9-10.1,8.6-14.3,8.9s-17-0.3-17-0.3C91.5,324.7,90.9,325.5,92.1,326.4z"
		/>
	<path class="st3" d="M58.4,189.7c0,0,4.5,14.6,8.3,26.2s11.6,33.7,15.2,39.6c3.6,5.9,14.3,24.4,17.3,31.9s8.6,18.8,8.6,18.8
		l14.9-7.4c0,0-5.1-15.2-6.9-22.9s-3.9-16.4-7.1-21.1c-2.2-3.1-4.6-6.1-7.1-8.9l-7.7-35.5l-7.8-31C86.2,179.3,65.6,179,58.4,189.7z"
		/>
	<path class="st2" d="M104,303.8c0,0,2.1,3.9,2.7,5.1s6.5,1.5,9.2,0.3s10.1-5.1,10.1-6.9s-2.4-6.2-3.3-7.7s-4.2-0.3-6.2,0.6
		s-9.8,4.8-10.7,5.1c-1.4,0.4-2.3,1.9-1.9,3.3C103.9,303.6,104,303.7,104,303.8z"/>
	<path class="st1" d="M51.3,313c-1.8,1.9-3.8,3.6-6,5.1c-3.9,2.7-13.1,5.4-16.4,6s-3.3,2.4-3.3,4.2s11.3,4.5,17,5.4
		s20.9,0.6,22.3-0.6s1.5-13.1,1.5-14.3S51.3,313,51.3,313z"/>
	<path class="st2" d="M65,333c0.5-0.4,0.8-1.9,1-3.9c-5.5,0.8-11,1.3-16.5,1.2c-8,0-16-1.6-23.3-4.8c-0.4,0.8-0.6,1.8-0.5,2.7
		c0,1.8,11.3,4.5,17,5.4S63.5,334.2,65,333z"/>
	<path class="st3" d="M65.3,190c0,0-2.4,22-3,32.8s-2.4,20.3-2.4,25s-4.2,34.6-4.2,39.6s-3.6,20.3-3.6,20.3s0,0.6,3.3,1.5
		s8.6,2.1,8.6,2.1h2.7c0,0,3.3-9.8,7.1-18.8s7.1-15.2,8-24.1s0-19.7,1.2-21.7s14.6-36,16.4-39s5.4-10.4,5.4-10.4s4.2-4.8,3.9-13.4
		s-4.8-8-13.1-8s-18.8,3.6-22.3,6S65.3,190,65.3,190z"/>
	<path class="st4" d="M67.6,298.1c-0.8,2.5-1.3,4.1-1.3,4.1"/>
	<path class="st4" d="M75.2,243.8c0,1.7,0,3,0,3.4c0,1.1-1.1,1.5-1.5,4.1s2.6,6.7,1.5,7.4S73,260.2,73,262c0.4,4.7,0.4,9.4,0,14.1
		c-0.4,5-2.6,13.1-4.4,18.9"/>
	<path class="st4" d="M91,193.5c-4.7,12-13.5,34.8-14.6,39.1c-0.6,2.4-0.9,4.9-1,7.4"/>
	<path class="st4" d="M93.8,186.2l-1.5,3.9"/>
	<path class="st2" d="M50.7,304.4c0,0,9.2,3.3,11.6,4.2s6.5,0.9,6.5,2.7s0.3,8-1.2,8.3s-10.1-1.5-13.1-2.7s-5.1-1.2-5.7-2.4
		s0.3-4.5,0.3-6.3C49.3,306.8,49.9,305.5,50.7,304.4z"/>
	<path class="st1" d="M77.9,72.4c0,0-15,3.6-16.4,5.2S51,95,50.3,95.7c-1.5,1.4-3.2,2.7-4.9,3.8c-1.1,0.9-2,2-2.5,3.4
		c-0.2,0.9-0.9,2.2-3.6,7s-9,12.8-7.2,13.2s7.6-1.4,12.6-2.5s11.2-6.3,11.2-6.3s-1.1,13.5-1.1,21.5s0.2,35,0.2,39.9s-0.5,9.9,0,11.5
		s3.6,6.5,3.6,6.5l2.5-2.9l2,4.3c0,0,2.7-3.4,13.9-7.2s16.2-5.4,19.1-5.2s18.9,9.2,19.8,9.6s-0.9-17.1-0.9-26.9s-0.7-27.4-0.7-27.4
		s7.6-37,8.5-45.1s-3.1-15.5-4.7-17.7s-20.6-7.4-20.6-7.4L77.9,72.4z"/>
	<path class="st5" d="M55.9,114.4c0,0,0.7-11.7,3.1-18.9"/>
	<path class="st5" d="M43.1,104.9c0,0,1.6,8.8,1.4,11.4s1.1,0.7,1.1-5.6"/>
	<path class="st5" d="M77.1,79.9c0,0-6,19.8-8,29.7"/>
	<line class="st5" x1="64" y1="142" x2="63.1" y2="153.4"/>
	<path class="st5" d="M62.6,161.7c0,0-1.8,18.2-1.3,26.5"/>
	<path class="st1" d="M38.6,101.6c-0.9,3.1-2.3,6-4.3,8.5c-3.4,4.5-4.6,5.2-6.7,5.4s-4.6-3.1-5.2-4.5s-1.3,0-0.7,4.5s6.5,9,9.6,9
		s8.1-6.3,9.2-9.4c1.1-3.2,1.5-6.5,1.1-9.9C41.3,102.7,41.3,100.7,38.6,101.6z"/>
	<path class="st2" d="M42.9,66.6c0,0,4.5-4.3,5.4-5.4s1.8-6.3,2-7.9s2.9-5.7,2.9-6.4s-1.5-1.4-2.7-0.1c-0.8,1.2-1.6,2.5-2.2,3.8
		c-0.5,0.7-1.8,0.4-1.8,0.4s0.1-1.2,0.4-2.5s2.7-5.1,3.6-6.5s0.1-5-1.9-2.3s-6.1,7.7-6.1,7.7s-6.5,8.1-7.4,10.1s-1,5.5-1,7.5
		s0.7,1.1-0.5,4.7s-7.4,19.1-10.1,25.8s-3.6,11.7-2.2,14.4s5.4,7,7.6,6.5s7.9-8.1,9-10.8c0.9-2.4,1.3-4.9,1.1-7.4c0-2-1.1-15,0-19.8
		S42.9,66.6,42.9,66.6z"/>
	<path class="st2" d="M36.6,58.9l1.1-0.8c0.6,0.6,1.2,1.2,1.9,1.6c1.3,0.5,2.7,0.1,3.6-0.9l0.3-0.5l1.8-2l1.7-1.8
		c0.4-0.4,0.6-1,0.5-1.6c0-1-0.3-1.9-0.8-2.7c-0.5-0.6-2.3-4.8-3.4-5.1s-2.5,2.5-2.5,2.5c-1.1,0.6-2.1,1.5-2.9,2.5
		c-0.4,0.6-0.7,1.2-0.9,1.8c0,0-2.9,1.6-3.1,3.6c0,2.5,0.1,5.1,0.5,7.6"/>
	<path class="st6" d="M41.4,47.8c0,0,4.3,5.6,4.7,7.6"/>
	<path class="st6" d="M37.5,51.7c0,0,4.7,3.1,6.1,6.6"/>
	<polygon class="st1" points="80.6,69.8 76.9,72.2 75.5,81.5 77.1,79.9 80.4,71.8 	"/>
	<path class="st2" d="M55.8,40.8c0,0-0.2,5.1,0.8,7.1s3.2,6.3,3.2,8.3c0.2,2.9,1.2,5.6,3,7.9c2.2,3,7.3,8.1,9.7,8.1s7.1-4.2,7.1-4.2
		l0.6,3.9l-2.6,7.9c0,0,8.9-6.7,11.6-9.1s5.7-8.5,5.7-8.5l-5.2-10.7c1.3-1.9,2.1-4.2,2.2-6.5c0.2-3.9-0.2-2.8-0.6-5.3
		s-4.9-8.5-10.7-12S64.1,25.8,60.1,28S55.8,40.8,55.8,40.8z"/>
	<path class="st3" d="M83.5,75.3l-1.6-1l1.8-8.7l-4,2.4l0.6,3.9l-2.6,7.9C77.7,79.7,80.6,77.6,83.5,75.3z"/>
	<path class="st6" d="M62.5,48.3l1.8,3c0,0,0.6,6.5,1,7.7s2.8,1.2,4,0.4"/>
	<path class="st6" d="M67.6,62.9c0,0,6.1,1.6,7.7-5.5"/>
	<path class="st6" d="M61.3,47.7c0,0-2.2,0.2-2.8,1.6"/>
	<path class="st6" d="M66.6,46.1c2-1.3,4.6-1.5,6.7-0.4"/>
	<path class="st0" d="M71.8,50.2c0.2,0.8,0,1.6-0.5,1.7s-1-0.4-1.2-1.3s0-1.6,0.5-1.7S71.6,49.4,71.8,50.2z"/>
	<path class="st0" d="M62.5,52.6c0.2,0.8,0,1.6-0.5,1.7s-1-0.4-1.2-1.2s0-1.6,0.5-1.7S62.3,51.8,62.5,52.6z"/>
	<path class="st7" d="M60.3,21.4c0,0-2.2,2.8-4.3,2.6s-6.5-2.6-9.3,1.2s-1.8,8.3,1.6,9.3s3.2,2.8,5.9,4.2s6.5,2.6,9.7-1.6
		c2.7-3.6,7.6-4.9,11.8-3.2c3,1.4,1.6,3.4,2.6,5.5c0.7,1.4,1.8,2.5,3,3.4c0,0,0.4,2.4,1,2.8s1.8,1,2-0.4s-0.2-2.2,0.6-3.6
		c0.5-1.1,1.6-1.8,2.8-1.8c1.2-0.2,3.6,1.2,3.6,1.2c0.6-2.9,1-5.9,1-8.9c0-4.7-2.2-9.7-7.9-13.4s-15.2-1.8-18-1S60.3,21.4,60.3,21.4
		z"/>
	<path class="st3" d="M76.7,31.7c-2.8-0.3-5.7-0.4-8.5-0.2c-3.9,0.4-5.3,1.4-5.7,2s0.2,7.3,2.4,9.1c2.7,2,6.3,2.1,9.1,0.4
		c2.3-1.9,3.9-4.5,4.3-7.5C78.5,33.5,77.9,31.7,76.7,31.7z"/>
	<line class="st6" x1="77.5" y1="31.9" x2="87.1" y2="40"/>
	<line class="st6" x1="62.5" y1="33.5" x2="59.3" y2="34.3"/>
	<path class="st3" d="M60.7,37.4c0,0-0.4-3.2-3.4-3.2s-8.3,3.2-8.7,5.7s1.8,5.9,4.7,7.1s6.3-1.8,6.9-3.1
		C60.9,41.8,61.1,39.5,60.7,37.4z"/>
	<polygon class="st1" points="95.4,60.5 80.6,75.1 84,80.5 98.8,67.4 	"/>
	<polygon class="st3" points="0,110.7 10.9,128.2 19,128.5 8.5,109.7 	"/>
	<path class="st2" d="M79.4,122.4c0,0-27.2,5.7-34.8,5.9s-12.8,0.5-12.8,0.5s-3.8-4.3-6.4-6.9s-7.6-1.6-7.6-1.6s-5.9,0.2-7.6,0.2
		s-5.9,1.2-5.9,2.1s1,1.4,2.4,1.4h4.7l3.3,1c-2.2,0.3-4.5,0.8-6.6,1.4c-1,0.5,0,2.6,0,2.6l0.9,1l1,1.9l1.2,1c0,0,0,1.2,2.4,2.1
		s10.7,1.4,12.1,1.4h3.8c0,0,22,2.6,27,3.3s23,1.2,27,0.5s5.9-0.2,6.9-1.9s-4.3-12.8-5.7-14.5S79.4,122.4,79.4,122.4z"/>
	<line class="st6" x1="9" y1="129.9" x2="16.4" y2="129.4"/>
	<line class="st6" x1="11.1" y1="132.7" x2="18.2" y2="133.2"/>
	<path class="st1" d="M100.5,84.6c0,0-5.9,12.6-7.6,17.8s-2.6,6.6-2.1,8.5c0.3,1.1,0,2.2-0.7,3.1c0,0-1.9,1.9-1.9,2.6
		s-2.4,0.2-0.2,4.7s6.2,13.3,7.3,15.2c1.2,2,3.7,2.6,5.7,1.4c2.1-1.2,7.8-4,8.5-8.1c0.7-4.1,0.7-8.1,1.7-9.7s7.8-14.2,9.7-21.1
		s2.8-11.1,1.2-15.6s-4.7-5.2-4.7-5.2"/>
	<path class="st1" d="M88.2,116.6c0,0,10.4,15.6,11.1,17.7s0.5,3.5-0.5,4.5s-7.8,3.5-9.7,3.5s-2.6-3.1-2.6-4.5S77.3,122,77.3,122
		c0.4-1.2,1-2.3,1.7-3.3C79.6,118,88.2,116.6,88.2,116.6z"/>
	<path class="st6" d="M100.2,125c1,0.7,1.7,1.7,2.2,2.8"/>
	<path class="st6" d="M90.1,117.8c0,0,4.4,2.7,8,5.5"/>
	<path class="st6" d="M92,116.9c0,0,9.2,1.4,10.2,3.6"/>
</g>
<g id="freepik--Character--inject-2_1_">
	<path class="st2" d="M177.4,178.1v12.5c0,4.1,1.7,12.5,2.4,12.7s6.7,0.7,8.2-1.7c1.4-2.4,4.3-4.3,4.3-8.2s-1-14.9-1-14.9
		L177.4,178.1z"/>
	<path class="st2" d="M183.1,188.9L182,191c-1.2,2.2,0.5,6.5,0.5,6.5s-5.3,1.5-5.8,2.9s3.1,2.9,3.1,2.9s4.1-0.7,4.8-1.7
		s4.3-5.1,4.5-5.8s0.7-6.3,0.7-6.3"/>
	<path class="st8" d="M186.4,82.2c0,1.7-0.2,13-0.6,19c-0.4,6-3.9,36.2-3.9,36.2s1.1,24,1.1,29.6v15.9c1.6,0.6,3.4,0.8,5.1,0.4
		c2.4-0.6,5.8-3.6,5.8-3.6v-4.5c0-3.2-3.2-30.2-3.6-31.7c-0.4-1.5,1.5-14.6,1.5-27.2S189,81.1,189,81.1S186.4,80.5,186.4,82.2z"/>
	<path class="st8" d="M149.3,308.3c0,0-1.9,13.3-1.7,15.4s1.3,3,3.2,3.9s5.6,0.6,9.4,2.1c3.8,1.5,11.4,1.5,16.5,0s5.3-2.8,3.9-4.1
		s-8.2-6.2-11.8-9.2c-2.5-2.2-4.5-4.9-6-7.9L149.3,308.3z"/>
	<path class="st2" d="M147.6,323.6c0.2,2.1,1.3,3,3.2,3.9s5.6,0.6,9.4,2.1s11.4,1.5,16.5,0s5.3-2.8,3.9-4.1l-0.5-0.4
		c-2.8,2.3-6.4,3.5-10,3.4c-7.7,0-8.8-0.8-15-3.6c-2.4-1.1-4.9-2-7.5-2.8C147.6,322.7,147.6,323.1,147.6,323.6z"/>
	<path class="st8" d="M122.4,310.6c0,0-1.7,12.9-0.6,15s1.3,3,3.2,6.4c1.9,3.4,6.4,4.7,13.1,4.7s10.5-0.6,10.7-2.8s-3.6-5.2-5.4-8.2
		c-1.7-3-5.6-15-5.6-15C135.8,311,122.4,310.6,122.4,310.6z"/>
	<path class="st2" d="M138,336.8c6.6,0,10.5-0.6,10.7-2.8c0-0.5-0.1-1-0.3-1.4c-1.6,0.4-5.2,1.2-11.5,0.9
		c-8.8-0.4-10.3-2.5-12.9-7.3c-1-1.8-1.9-3.5-2.7-4.9c-0.1,1.4,0,2.9,0.3,4.2c1.1,2.1,1.3,3,3.2,6.4
		C126.8,335.5,131.3,336.8,138,336.8z"/>
	<path class="st3" d="M182.8,156.1c0,0-3,0.9-14.4,3.9s-36.4-1.3-36.4-1.3l-1.9,3.4l-4.5,22.7v15.4c0,5.8,2.3,34,2.6,34.9
		c0.2,0.9-3,10.9-4.1,14.4c-1.1,3.4-4.5,15-4.7,22.7s2.4,33.4,2.4,33.4s6.9,1.9,9.6,1.9s7.5-1.5,7.5-1.5s1.5-12.6,2.1-16.9
		c0.7-4.3,8.2-42.9,8.2-42.9s-0.6,28.3-0.6,32.8v24.7l14.6,0.9c0,0,2.8-16.9,4.1-24.4s5.6-33.6,5.6-33.6s9-30.9,9.9-47.1
		s-0.2-37.5-0.2-37.5L182.8,156.1z"/>
	<path class="st9" d="M151.5,239c2.8-10.1,7.5-42.4,7.5-42.4l7.9-6"/>
	<path class="st10" d="M165.2,303.1c-0.6,1.7-0.7,4.1-1.1,6c-0.4,1.9-4.7,1.3-7.9,1.3s-9.4,0-10.1-0.9c-0.6-0.9,0-8.6,0-9.9
		s0.9-1.5,6.2-1.5s13.1,0.2,13.1,0.2C166.7,299.9,165.8,301.4,165.2,303.1z"/>
	<path class="st10" d="M138.8,300.3c-1.5,0.6-3.1,1.1-4.7,1.5c-2.8,0.6-10.5-0.6-12-1.1c-1.5-0.4-1.9,0.2-1.9,1.7s0,8.4,1.1,9.6
		c1.1,1.3,10.7,2.8,15.2,1.3s4.1-1.1,4.1-3c0.1-2.4,0.3-4.8,0.6-7.3c0.1-1.1-0.1-2.2-0.4-3.2C140.3,298.6,138.8,300.3,138.8,300.3z"
		/>
	<path class="st10" d="M131.8,77.9c0.9,3.9,4.9,31.3,4.9,37.1s-1.3,46.5-1.3,46.5s7.1,4.1,9.2,4.3c5.8,0.6,11.7,0.8,17.6,0.4
		c9.4-0.4,14.8-4.3,14.8-4.3s-0.4-6-0.4-13.9s-1.5-51.2-2.6-59.8s-6.9-18.6-6.9-18.6L146.8,64l-8.2,4.3
		C138.6,68.3,130.9,74,131.8,77.9z"/>
	<path class="st2" d="M162.5,67.9c4.9,1.8,7.6,6.5,6.1,10.7c-1.5,4.1-6.7,6-11.5,4.2c-4.9-1.8-7.6-6.5-6.1-10.7
		S157.6,66.1,162.5,67.9z"/>
	<path class="st2" d="M144.6,62l-3,4.9c0,0,11.6,15.9,12.2,16.3s8.6-8.4,8.6-8.4L144.6,62z"/>
	<path class="st2" d="M161.8,67.2c0.2,1.5,0.6,7.7,0.6,7.7l6.9,5.6c0,0-2.8-9.9-3.9-11.1c-0.9-1.3-1.7-2.6-2.4-4.1
		C162.2,65.5,161.7,66.3,161.8,67.2z"/>
	<path class="st2" d="M154.5,50.3c-4.9-2.8-11.1-9.2-11.1-9.2s0.9,3.8,1.3,6.4c0.4,2.6-0.6,12.9,0,14.6c0.6,1.7,16.2,12.2,17.8,12.9
		c1.6,0.6,0.6-15.3,0.6-16.3c0.3-1.5,0.7-3.1,1.3-4.5C160.9,53.3,157.6,52,154.5,50.3z"/>
	<path class="st3" d="M164.1,54.6l-15-1.9l14.1,14.5c0-3.9-0.2-8-0.2-8.6C163.2,57.3,163.6,55.9,164.1,54.6z"/>
	<path class="st8" d="M128.8,69.8c-4.1,1.5-17.4,5.1-18.4,7.1s-1.3,5.6-2.4,11.1c-1.1,5.6-7.2,33.8-8.6,38.1
		c-1.3,4.3-2.8,10.9-0.9,15s12.9,2.8,14.6,1.5s8.4-22.3,8.4-22.3l4.3,15.6c0.1,8-0.9,16-2.8,23.8c-3.2,13.7-6.6,36.2-6.4,37.7
		s2.1-0.9,5.6-3.4c3.4-2.6,7.3-7.1,7.7-9.6c0.4-2.6,6.4-16.7,10.9-23.6c4.5-6.9,7.7-15,9.4-26.3s1.1-18.6,0.6-30.4
		s-7.7-39.4-7.7-39.4S132.9,68.3,128.8,69.8z"/>
	<path class="st11" d="M132.4,180.1c-1.9,4.9-3.9,6.9-3.9,6.9s-2.4-1.7-3.9-2.8s-4.9-3.4-4.9-3.4s7.1-12.4,13.5-16.9
		c6.4-4.5,9.6-7.1,9.6-7.1S134.3,175.2,132.4,180.1z"/>
	<path class="st8" d="M172,71.7c0.9,0.6,16.3,8.4,16.9,9.4c0.6,1.1,0.6,9.6,0.4,14.6c-0.2,4.9-2.4,31.3-2.4,35.4
		c0,4.1,0,11.4,0.2,16.3c0.2,4.9,4.7,35.6,4.7,35.6c-3,0.5-6,0.5-9,0c-4.1-0.9-6.9-2.8-7.1-6.4s-1.7-46.7-1.9-57s-2.1-26.8-4.1-35.4
		c-1.5-6.2-3.6-12.2-6.2-18C166,67.8,171.2,71,172,71.7z"/>
	<path class="st8" d="M121.9,119c0,0,4.7-18.4,4.1-23.8c-0.3-2.2-1.6-4.9-3-7.2"/>
	<path class="st6" d="M120.4,84.2c-1-1.3-1.7-2.2-1.7-2.2"/>
	<path class="st2" d="M125.1,170.5l2.8,3c0,0,2.1,3.4,3.2,5.6c0.6,1.3,1.7,2.3,3,2.8l9.2-6.2c1.1,0.8,2.3,1.6,3.6,2.1
		c1.1,0.3,2.4,0,3.2-0.9c0.9-0.6-0.6-1.7-2.4-2.8s-3.4-4.7-3.4-4.7s-5.4-1.7-8.4-2.4c-2.2-0.6-4.4-1.3-6.4-2.4L125.1,170.5z"/>
	<path class="st8" d="M98.8,130.4c-0.9,2-1.6,4.1-1.9,6.2c-0.9,4.3,1.7,7.3,5.6,14.4s19.3,25.3,19.3,25.3l3.4-3.4
		c2.6-2.6,6-8.6,6-8.6l-18-29.4"/>
	<path class="st6" d="M146.5,143.7c0,0,0-2.1-0.2-6"/>
	<path class="st8" d="M145.4,132.1c-1.8-9.5-5.7-27-5.7-27l4.7-8.4l-7.9-3.6c0,0,0.1-10.4,0.2-17.7"/>
	<path class="st6" d="M136.7,73c0-2.4,0-4.2,0-4.3"/>
	<path class="st8" d="M171,72.8c0,0,5.6,10.1,6.9,12.4c1.3,2.4,2.8,5.3,2.8,5.3l-4.9,3.9l7.1,7.5c0,0-3,17-4.8,27.4"/>
	<path class="st6" d="M177.5,132c-0.2,1.4-0.4,2.6-0.6,3.5"/>
	<path class="st3" d="M158.3,25.8c-4.1-0.9-6.1-0.4-6.9,0.5c-0.8,0.9-1.7,8.2-1.5,10.9s-2,3.7-5.3,5.1c-1.9,0.8-4,0.5-5.7-0.7
		c-2.6-3.1-5-6.4-7.2-9.9c-2.3-3.9-3.1-9.7-0.3-14.1s11.4-7.3,11.6-8c0.2-0.7,4.4-7.7,10.6-9.2c6.2-1.5,5.4,3.7,5.4,3.7
		s8-1.7,14.7,1.5c6.7,3.1,1.5,8.9,1.5,8.9c3.6,1.1,5.9,4.6,5.5,8.4c-0.4,6.8-8.8,6.2-9.5,6.2C171.3,29,162.4,26.6,158.3,25.8z"/>
	<path class="st2" d="M144.8,20.6c0,0,2.1,3.9,3.1,6.1s0.6,2-0.1,4.5c-0.7,2.5-1.4,3.2-1.3,4.4c0.1,1,0.4,1.9,0.6,2.9
		c0.3,1.6-1.7,1.7-1.7,1.7c-1.3-1-2.7-1.9-4.2-2.6c-2.8-1.4-6.5-0.7-5.5,5.1c1.1,5.8,8.1,7.1,8.1,7.1s0.5,0.6,2,2.8
		c1.5,2.1,10.7,5.3,14.1,6c3.4,0.7,7.1,2.6,9.4,2.5c2.2-0.1,6.5-3.3,6.2-7.4c-0.7-6.3-1.7-12.5-3-18.7c-0.6-1.8-1-8-1-8
		C164.1,21.4,144.8,20.6,144.8,20.6z"/>
	<path class="st6" d="M156.6,29.5c2.2-1.5,5.5-1,5.5-1"/>
	<path class="st6" d="M171.3,27.9c-1.1-0.5-2.4-0.4-3.5,0.1"/>
	<path class="st6" d="M163.5,46.4c3.8,2.7,6.6,1.1,6.6,1.1"/>
	<path class="st0" d="M159.1,33c0-0.7,0.5-1.4,1.3-1.4c0.7,0,1.4,0.5,1.4,1.2c0.1,0.7-0.5,1.4-1.2,1.4
		C159.8,34.3,159.1,33.7,159.1,33L159.1,33z"/>
	<path class="st0" d="M169.9,30.4L169.9,30.4c0.6,0,1.2,0.4,1.2,1.1c0,0.6-0.4,1.2-1.1,1.2c-0.6,0-1.2-0.4-1.2-1.1
		C168.8,31,169.3,30.5,169.9,30.4z"/>
	<path class="st6" d="M152.7,31.6c0,0,0.9,4,2.4,5.4c1.4,1.5,7.1,2,9.4,0.1s0.9-6.8,0.9-6.8C159.7,29.1,152.7,31.6,152.7,31.6z"/>
	<path class="st6" d="M177.6,29.9c0,0-0.2,4.1-1.1,5.7c-0.9,1.6-5.1,2.8-7,1.1c-2-1.7-1.5-6.6-1.5-6.6
		C172.1,28.2,177.6,29.9,177.6,29.9z"/>
	<path class="st6" d="M165.4,30.3c1.9-0.8,2.6-0.2,2.6-0.2"/>
	<line class="st6" x1="143" y1="38.1" x2="152.7" y2="31.9"/>
	<path class="st2" d="M167,43.9c0,0,7.5,0.2,8.2-2.3S167,32,167,32"/>
</g>
</svg>
