<?xml version="1.0" encoding="utf-8"?>
<!-- Generator: Adobe Illustrator 23.0.5, SVG Export Plug-In . SVG Version: 6.00 Build 0)  -->
<svg version="1.1" id="Capa_1" xmlns="http://www.w3.org/2000/svg" xmlns:xlink="http://www.w3.org/1999/xlink" x="0px" y="0px"
	 viewBox="0 0 219.6 535.8" style="enable-background:new 0 0 219.6 535.8;" xml:space="preserve">
<style type="text/css">
	.st0{fill:none;stroke:#F9AE14;stroke-width:6;stroke-miterlimit:10;}
	.st1{fill:none;stroke:#9331C0;stroke-width:10;stroke-linecap:round;stroke-linejoin:round;stroke-miterlimit:10;}
	.st2{fill:#9331C0;}
	.st3{fill:none;stroke:#010101;stroke-width:2.5624;stroke-miterlimit:10;}
	.st4{clip-path:url(#SVGID_2_);}
	.st5{fill:none;stroke:#010101;stroke-width:2;stroke-linecap:round;stroke-linejoin:round;stroke-miterlimit:10;}
	.st6{fill:none;stroke:#9331C0;stroke-width:2;stroke-miterlimit:10;}
	.st7{fill:none;stroke:#010101;stroke-width:2;stroke-miterlimit:10;}
	.st8{fill:#010101;}
	.st9{fill:none;stroke:#010101;stroke-width:4;stroke-linecap:round;stroke-linejoin:round;stroke-miterlimit:10;}
	.st10{fill:none;stroke:#010101;stroke-width:2.2857;stroke-linecap:round;stroke-linejoin:round;stroke-miterlimit:10;}
</style>
<g id="XMLID_43_">
	<path id="XMLID_45_" class="st0" d="M472.1,1396.1c-11.5,11.5-30.2,11.5-41.8,0c-11.5-11.5-11.5-30.2,0-41.8"/>
	<path id="XMLID_44_" class="st1" d="M471.7,1396.5c-11.5,11.5-30.2,11.5-41.8,0c-11.5-11.5-11.5-30.2,0-41.8"/>
</g>
<g id="XMLID_37_">
	<g id="XMLID_40_">
		<path id="XMLID_41_" class="st2" d="M297,1374c0,4.1-1.6,8.2-4.7,11.3c-6.2,6.2-16.4,6.2-22.6,0c-8.5-8.5-22.4-8.5-30.9,0
			c-8.5,8.5-8.5,22.4,0,30.9c6.2,6.2,6.2,16.4,0,22.6c-6.2,6.2-16.4,6.2-22.6,0c-21-21-21-55.1,0-76.1c21-21,55.1-21,76.1,0
			C295.4,1365.8,297,1369.9,297,1374z"/>
	</g>
	<g id="XMLID_38_">
		<path id="XMLID_39_" class="st3" d="M287.4,1364.4c0,4.1-1.6,8.2-4.7,11.3c-6.2,6.2-16.4,6.2-22.6,0c-8.5-8.5-22.4-8.5-30.9,0
			c-8.5,8.5-8.5,22.4,0,30.9c6.2,6.2,6.2,16.4,0,22.6c-6.2,6.2-16.4,6.2-22.6,0c-21-21-21-55.1,0-76.1c21-21,55.1-21,76.1,0
			C285.8,1356.2,287.4,1360.3,287.4,1364.4z"/>
	</g>
</g>
<g>
	<defs>
		<rect id="SVGID_1_" x="0" y="-0.2" width="219.6" height="535.8"/>
	</defs>
	<clipPath id="SVGID_2_">
		<use xlink:href="#SVGID_1_"  style="overflow:visible;"/>
	</clipPath>
	<g class="st4">
		<g id="XMLID_86_">
			<path id="XMLID_89_" class="st2" d="M33.8,485.4c16,16,42,16,58,0l-58-58C17.8,443.4,17.8,469.4,33.8,485.4z"/>
			<g id="XMLID_87_">
				<path id="XMLID_88_" class="st5" d="M45.3,483.7c16,16,42,16,58,0l-58-58C29.3,441.7,29.3,467.7,45.3,483.7z"/>
			</g>
		</g>
		<g id="XMLID_73_">
			<path id="XMLID_75_" class="st6" d="M-25.9,37.7l18-18c0.3-0.3,0.3-0.8,0-1.1l-18-18c-0.3-0.3-0.8-0.3-1.1,0l-18,18
				c-0.3,0.3-0.3,0.8,0,1.1l18,18C-26.7,38-26.2,38-25.9,37.7z"/>
			<path id="XMLID_74_" class="st7" d="M-24.8,28.4l7.6-7.6c0.9-0.9,0.9-2.4,0-3.3l-7.6-7.6c-0.9-0.9-2.4-0.9-3.3,0l-7.6,7.6
				c-0.9,0.9-0.9,2.4,0,3.3l7.6,7.6C-27.2,29.3-25.7,29.3-24.8,28.4z"/>
		</g>
		<g id="XMLID_70_">
			<path id="XMLID_72_" class="st6" d="M-80.5,513.6l23.9-23.9c0.4-0.4,0.4-1,0-1.4l-23.9-23.9c-0.4-0.4-1-0.4-1.4,0l-23.9,23.9
				c-0.4,0.4-0.4,1,0,1.4l23.9,23.9C-81.5,514-80.9,514-80.5,513.6z"/>
			<path id="XMLID_71_" class="st8" d="M-80.8,503.1l13.7-13.7c0.2-0.2,0.2-0.6,0-0.8l-13.7-13.7c-0.2-0.2-0.6-0.2-0.8,0l-13.7,13.7
				c-0.2,0.2-0.2,0.6,0,0.8l13.7,13.7C-81.4,503.3-81,503.3-80.8,503.1z"/>
		</g>
		<g id="XMLID_17_">
			<g id="XMLID_22_">
				<path id="XMLID_23_" class="st8" d="M151,427.8c-9.1,0-16.5-7.4-16.5-16.5c0-9.1,7.4-16.5,16.5-16.5c9.1,0,16.5,7.4,16.5,16.5
					C167.5,420.4,160.1,427.8,151,427.8z M151,420c4.8,0,8.7-3.9,8.7-8.7s-3.9-8.7-8.7-8.7c-4.8,0-8.7,3.9-8.7,8.7
					S146.2,420,151,420z"/>
			</g>
			<g id="XMLID_18_">
				<path id="XMLID_19_" class="st6" d="M133.1,409.8c-9.1,0-16.5-7.4-16.5-16.5c0-9.1,7.4-16.5,16.5-16.5c9.1,0,16.5,7.4,16.5,16.5
					C149.6,402.4,142.2,409.8,133.1,409.8z M133.1,402c4.8,0,8.7-3.9,8.7-8.7c0-4.8-3.9-8.7-8.7-8.7s-8.7,3.9-8.7,8.7
					C124.3,398.1,128.2,402,133.1,402z"/>
			</g>
		</g>
		<circle id="XMLID_16_" class="st9" cx="-60.1" cy="338.7" r="7.9"/>
		<g id="XMLID_4_">
			<path id="XMLID_6_" class="st1" d="M-141,38.1c5.2,5.3,13.7,5.3,18.9,0L-141,19C-146.2,24.2-146.2,32.8-141,38.1z"/>
			<path id="XMLID_5_" class="st6" d="M-132.1,3.5c-5.2-5.3-13.7-5.3-18.9,0l18.9,19.1C-126.9,17.3-126.9,8.8-132.1,3.5z"/>
		</g>
		<g id="XMLID_988_">
			<path id="XMLID_990_" class="st6" d="M176.1,341.4l24.1-24.1c0.4-0.4,0.4-1,0-1.4l-24.1-24.1c-0.4-0.4-1-0.4-1.4,0L150.7,316
				c-0.4,0.4-0.4,1,0,1.4l24.1,24.1C175.1,341.8,175.7,341.8,176.1,341.4z"/>
			<path id="XMLID_989_" class="st8" d="M177.5,329.1l10.3-10.3c1.2-1.2,1.2-3.1,0-4.2l-10.3-10.3c-1.2-1.2-3.1-1.2-4.2,0L163,314.6
				c-1.2,1.2-1.2,3.1,0,4.2l10.3,10.3C174.5,330.3,176.4,330.3,177.5,329.1z"/>
		</g>
		<g id="XMLID_985_">
			<path id="XMLID_987_" class="st6" d="M96,295.1l18.6-18.6c0.3-0.3,0.3-0.8,0-1.1L96,256.8c-0.3-0.3-0.8-0.3-1.1,0l-18.6,18.6
				c-0.3,0.3-0.3,0.8,0,1.1L95,295.1C95.3,295.4,95.7,295.4,96,295.1z"/>
			<path id="XMLID_986_" class="st7" d="M97.1,285.6l8-8c0.9-0.9,0.9-2.4,0-3.3l-8-8c-0.9-0.9-2.4-0.9-3.3,0l-8,8
				c-0.9,0.9-0.9,2.4,0,3.3l8,8C94.8,286.5,96.2,286.5,97.1,285.6z"/>
		</g>
		<g id="XMLID_13_">
			<path id="XMLID_15_" class="st10" d="M61.1,341.8c2.5,0,4.5-2,4.5-4.5s-2-4.5-4.5-4.5c-2.5,0-4.5,2-4.5,4.5
				S58.6,341.8,61.1,341.8z"/>
			<path id="XMLID_14_" class="st2" d="M64.1,344.8c2.5,0,4.5-2,4.5-4.5c0-2.5-2-4.5-4.5-4.5s-4.5,2-4.5,4.5
				C59.5,342.7,61.6,344.8,64.1,344.8z"/>
		</g>
	</g>
</g>
</svg>
