<?xml version="1.0" encoding="utf-8"?>
<!-- Generator: Adobe Illustrator 23.0.5, SVG Export Plug-In . SVG Version: 6.00 Build 0)  -->
<svg version="1.1" id="Capa_1" xmlns="http://www.w3.org/2000/svg" xmlns:xlink="http://www.w3.org/1999/xlink" x="0px" y="0px"
	 viewBox="0 0 165 483.9" style="enable-background:new 0 0 165 483.9;" xml:space="preserve">
<style type="text/css">
	.st0{clip-path:url(#SVGID_2_);fill:#8B44BA;}
	.st1{fill:#8B44BA;}
</style>
<g>
	<g>
		<defs>
			<polygon id="SVGID_1_" points="0.4,495.2 266.2,500.9 266.2,0 0.4,-11.3 			"/>
		</defs>
		<clipPath id="SVGID_2_">
			<use xlink:href="#SVGID_1_"  style="overflow:visible;"/>
		</clipPath>
		<path class="st0" d="M-351.6,47.5c0.6-2.5,1.3-5,1.9-7.5c5.5-20.9,21.1-35.7,40.4-38.1c3-0.4,6-0.5,9.1-0.5
			c138.1,0,276.3,0,414.4-0.1c13.1,0,25,3.5,34.9,13.4c11.2,11.2,16.4,25.4,16.3,42.2c-0.1,67.8,0,203.5,0,271.3c0,33,0,66.1,0,99.1
			c0,33-20.3,56-49.7,56.1c-139.1,0.1-278.3,0.1-417.4,0c-25.7,0-43.4-16.3-49.1-44.7c-0.1-0.5-0.5-1-0.7-1.5
			C-351.6,330-351.6,154.8-351.6,47.5z M-122.9,469.2c59.9,0,128.3,0,188.2,0c7.6,0,6.8,1,6.9-7.5c0-118,0-323.8,0-441.8
			c0-7.3,0-7.3-6.5-7.3c-119.1,0-246.8,0-365.9,0c-1.8,0-3.7,0-5.5,0.2c-15.2,1.7-25.5,14.2-25.6,31.4c-0.1,16.2,0.1,43.8-0.1,60
			c-0.1,4.1,1.4,5.5,4.5,6.6c7.4,2.5,14.7,5.2,22.1,8c6.5,2.4,8.8,5.8,8.8,13.2c0,51,0,170,0,220.9c0,7.2-2.3,10.6-8.5,12.9
			c-7.7,2.9-15.3,5.7-23,8.3c-2.9,1-3.9,2.5-3.8,6c0.2,15.1,0.1,30.2,0.1,45.3c0,23.2,10.7,43.8,31.3,43.8
			C-241,469.2-182,469.2-122.9,469.2z M83.9,275.8c0,12.3,0,24.5,0,36.8c0,47.2,0.1,102.9-0.1,150c0,5.6,1.4,7,6.2,6.8
			c8.7-0.4,17.5,0,26.2-0.1c17.6-0.2,37.5-21.6,37.5-41.3c0-101,0-269.9,0-370.9c0-20-19.9-44.1-37.9-44.3
			c-8.7-0.1-17.5,0.3-26.2-0.1c-4.7-0.2-5.8,1.5-5.8,6.6C83.9,78.3,83.9,216.7,83.9,275.8z M-316.3,276.4c0-19.4,0-106.9,0-126.3
			c0-11.8-0.1-11.6-10-15.5c-4.4-1.7-5.2-0.6-5.2,4.4c0.2,44.3,0.1,156.6,0.1,201c0,11.8-0.1,11.6,10.3,8.2c4-1.3,5-3.4,4.9-7.8
			C-316.4,319.1-316.3,297.8-316.3,276.4z"/>
	</g>
</g>
<circle class="st1" cx="119.7" cy="245.6" r="16.4"/>
</svg>
